{
.appVersion = "122";
DisplayStrings = (
"Rhone/space rhone/space roman/space for/space the/space burnt/space porous/space of/space the/space lemur/space clamor/space and/space carrot."
);
copyright = "Copyright © 2025 by Thomas Nicholson";
customParameters = (
{
name = vendorID;
value = "TN  ";
},
{
name = panose;
value = (
0,
0,
0,
0,
0,
0,
0,
0,
0,
0
);
},
{
name = fsType;
value = (
2
);
},
{
name = blueShift;
value = 0;
},
{
name = familyName;
value = "Plainsound Text";
},
{
name = postscriptFontName;
value = "PlainsoundText-Regular";
},
{
name = postscriptFullName;
value = "Plainsound Text Regular";
},
{
name = license;
value = "SIL Open Font License Version 1.1 with reserved font name";
}
);
date = "2002-01-15 12:20:35 +0000";
designer = "Thomas Nicholson";
designerURL = www.superparticular.com;
familyName = "Plainsound Text";
featurePrefixes = (
{
automatic = 1;
code = "languagesystem DFLT dflt;\012languagesystem latn dflt;\012languagesystem latn ROM;\012languagesystem latn MOL;\012languagesystem latn KAZ;\012languagesystem latn TAT;\012languagesystem latn TRK;\012languagesystem latn CRT;\012languagesystem latn AZE;\012";
name = Languagesystems;
}
);
features = (
{
automatic = 1;
code = "feature locl;\012feature frac;\012feature ordn;\012";
name = aalt;
},
{
automatic = 1;
code = "script latn;\012language ROM;\012sub Scedilla by Scommaaccent;\012sub scedilla by scommaaccent;\012sub Tcedilla by Tcommaaccent;\012sub tcedilla by tcommaaccent;\012language MOL;\012sub Scedilla by Scommaaccent;\012sub scedilla by scommaaccent;\012sub Tcedilla by Tcommaaccent;\012sub tcedilla by tcommaaccent;\012language KAZ;\012sub i by idotaccent;\012language TAT;\012sub i by idotaccent;\012language TRK;\012sub i by idotaccent;\012language CRT;\012sub i by idotaccent;\012language AZE;\012sub i by idotaccent;\012";
name = locl;
},
{
automatic = 1;

glyphs = (
{
color = 10;
glyphname = A;
lastChange = "2025-02-19 09:35:05 +0000";
layers = (
{
anchors = (
{
name = bottom;
position = "{245, 0}";
},
{
name = ogonek;
position = "{505, 0}";
},
{
name = top;
position = "{347, 727}";
}
);
background = {
paths = (
{
closed = 1;
nodes = (
"540 0 LINE",
"338 727 LINE",
"262 727 LINE",
"468 0 LINE"
);
},
{
closed = 1;
nodes = (
"451 174 LINE",
"451 244 LINE",
"112 244 LINE",
"112 174 LINE"
);
},
{
closed = 1;
nodes = (
"92 0 LINE",
"298 727 LINE",
"222 727 LINE",
"20 0 LINE"
);
}
);
};
layerId = m01;
paths = (
{
closed = 1;
nodes = (
"504 0 LINE",
"404 727 LINE",
"288 727 LINE",
"-16 0 LINE",
"57 0 LINE",
"130 174 LINE",
"408 174 LINE",
"433 0 LINE"
);
},
{
closed = 1;
nodes = (
"338 663 LINE",
"398 244 LINE",
"160 244 LINE"
);
}
);
vertWidth = 1200;
width = 560;
}
);
leftKerningGroup = A;
note = A;
rightKerningGroup = A;
unicode = 0041;
},
{
glyphname = Abreve;
lastChange = "2025-02-19 09:35:11 +0000";
layers = (
{
anchors = (
{
name = bottom;
position = "{245, 0}";
},
{
name = ogonek;
position = "{505, 0}";
},
{
name = top;
position = "{375, 926}";
}
);
hints = (
{
horizontal = 1;
place = "{785, 28}";
type = Stem;
},
{
place = "{312, 28}";
type = Stem;
},
{
place = "{115, 28}";
type = Stem;
}
);
layerId = m01;
paths = (
{
closed = 1;
nodes = (
"504 0 LINE",
"404 727 LINE",
"288 727 LINE",
"-16 0 LINE",
"57 0 LINE",
"130 174 LINE",
"408 174 LINE",
"433 0 LINE"
);
},
{
closed = 1;
nodes = (
"338 663 LINE",
"398 244 LINE",
"160 244 LINE"
);
},
{
closed = 1;
nodes = (
"409 873 OFFCURVE",
"395 860 OFFCURVE",
"361 860 CURVE SMOOTH",
"335 860 OFFCURVE",
"326 872 OFFCURVE",
"329 924 CURVE",
"260 928 LINE",
"259 919 OFFCURVE",
"259 911 OFFCURVE",
"259 904 CURVE SMOOTH",
"259 829 OFFCURVE",
"287 808 OFFCURVE",
"361 808 CURVE SMOOTH",
"441 808 OFFCURVE",
"469 828 OFFCURVE",
"488 924 CURVE",
"421 928 LINE"
);
}
);
width = 560;
}
);
leftKerningGroup = A;
rightKerningGroup = A;
unicode = 0102;
},
{
glyphname = Aogonek;
lastChange = "2025-02-19 09:35:11 +0000";
layers = (
{
anchors = (
{
name = bottom;
position = "{245, 0}";
},
{
name = ogonek;
position = "{505, 0}";
},
{
name = top;
position = "{347, 727}";
}
);
layerId = m01;
paths = (
{
closed = 1;
nodes = (
"504 0 LINE",
"404 727 LINE",
"288 727 LINE",
"-16 0 LINE",
"57 0 LINE",
"130 174 LINE",
"408 174 LINE",
"433 0 LINE"
);
},
{
closed = 1;
nodes = (
"338 663 LINE",
"398 244 LINE",
"160 244 LINE"
);
},
{
closed = 1;
nodes = (
"414 -188 OFFCURVE",
"474 -188 CURVE SMOOTH",
"486 -188 OFFCURVE",
"500 -187 OFFCURVE",
"514 -185 CURVE",
"520 -124 LINE",
"511 -127 OFFCURVE",
"502 -129 OFFCURVE",
"491 -129 CURVE SMOOTH",
"464 -129 OFFCURVE",
"437 -117 OFFCURVE",
"437 -91 CURVE SMOOTH",
"437 -60 OFFCURVE",
"462 -31 OFFCURVE",
"506 -1 CURVE",
"438 1 LINE",
"389 -34 OFFCURVE",
"373 -62 OFFCURVE",
"373 -109 CURVE SMOOTH",
"373 -164 OFFCURVE"
);
}
);
width = 560;
}
);
leftKerningGroup = A;
rightKerningGroup = A;
unicode = 0104;
},
{
glyphname = Aring;
lastChange = "2025-02-19 09:35:14 +0000";
layers = (
{
anchors = (
{
name = bottom;
position = "{245, 0}";
},
{
name = ogonek;
position = "{505, 0}";
},
{
name = top;
position = "{381, 970}";
}
);
hints = (
{
horizontal = 1;
place = "{906, 14}";
type = Stem;
},
{
horizontal = 1;
place = "{755, 14}";
type = Stem;
},
{
place = "{295, 13}";
type = Stem;
},
{
place = "{146, 13}";
type = Stem;
}
);
layerId = m01;
paths = (
{
closed = 1;
nodes = (
"504 0 LINE",
"404 727 LINE",
"288 727 LINE",
"-16 0 LINE",
"57 0 LINE",
"130 174 LINE",
"408 174 LINE",
"433 0 LINE"
);
},
{
closed = 1;
nodes = (
"338 663 LINE",
"398 244 LINE",
"160 244 LINE"
);
},
{
closed = 1;
nodes = (
"268 808 OFFCURVE",
"305 770 OFFCURVE",
"355 770 CURVE SMOOTH",
"413 772 OFFCURVE",
"457 816 OFFCURVE",
"464 867 CURVE SMOOTH",
"470 925 OFFCURVE",
"429 970 OFFCURVE",
"379 970 CURVE SMOOTH",
"313 970 OFFCURVE",
"268 916 OFFCURVE",
"268 859 CURVE SMOOTH"
);
},
{
closed = 1;
nodes = (
"320 898 OFFCURVE",
"346 921 OFFCURVE",
"377 921 CURVE SMOOTH",
"401 921 OFFCURVE",
"421 902 OFFCURVE",
"418 875 CURVE",
"413 844 OFFCURVE",
"386 819 OFFCURVE",
"356 819 CURVE SMOOTH",
"328 819 OFFCURVE",
"312 840 OFFCURVE",
"315 867 CURVE"
);
}
);
width = 560;
}
);
leftKerningGroup = A;
rightKerningGroup = A;
unicode = 00C5;
},
{
glyphname = Atilde;
lastChange = "2025-02-19 09:35:14 +0000";
layers = (
{
anchors = (
{
name = bottom;
position = "{245, 0}";
},
{
name = ogonek;
position = "{505, 0}";
},
{
name = top;
position = "{374, 924}";
}
);
layerId = m01;
paths = (
{
closed = 1;
nodes = (
"504 0 LINE",
"404 727 LINE",
"288 727 LINE",
"-16 0 LINE",
"57 0 LINE",
"130 174 LINE",
"408 174 LINE",
"433 0 LINE"
);
},
{
closed = 1;
nodes = (
"338 663 LINE",
"398 244 LINE",
"160 244 LINE"
);
},
{
closed = 1;
nodes = (
"254 806 LINE",
"260 831 OFFCURVE",
"284 853 OFFCURVE",
"310 853 CURVE SMOOTH",
"345 853 OFFCURVE",
"367 815 OFFCURVE",
"414 815 CURVE SMOOTH",
"440 815 OFFCURVE",
"463 825 OFFCURVE",
"484 845 CURVE",
"503 865 OFFCURVE",
"517 893 OFFCURVE",
"524 922 CURVE",
"473 926 LINE",
"465 896 OFFCURVE",
"449 879 OFFCURVE",
"420 879 CURVE SMOOTH",
"380 879 OFFCURVE",
"375 916 OFFCURVE",
"319 916 CURVE SMOOTH",
"262 916 OFFCURVE",
"225 879 OFFCURVE",
"208 810 CURVE"
);
}
);
width = 560;
}
);
leftKerningGroup = A;
rightKerningGroup = A;
unicode = 00C3;
},
{
color = 10;
glyphname = AE;
lastChange = "2025-02-19 09:35:05 +0000";
layers = (
{
components = (
{
name = E;
transform = "{1, 0, 0, 1, 310, 0}";
}
);
layerId = m01;
paths = (
{
closed = 1;
nodes = (
"440 174 LINE",
"450 244 LINE",
"111 244 LINE",
"101 174 LINE"
);
},
{
closed = 1;
nodes = (
"62 0 LINE",
"420 727 LINE",
"338 727 LINE",
"-16 0 LINE"
);
},
{
closed = 1;
nodes = (
"343 657 LINE",
"549 657 LINE",
"559 727 LINE",
"353 727 LINE"
);
}
);
width = 790;
}
);
leftKerningGroup = A;
leftMetricsKey = A;
rightMetricsKey = E;
unicode = 00C6;
},
{
color = 10;
glyphname = B;
lastChange = "2025-02-19 09:35:14 +0000";
layers = (
{
anchors = (
{
name = bottom;
position = "{245, 0}";
},
{
name = top;
position = "{347, 727}";
}
);
background = {
paths = (
{
closed = 1;
nodes = (
"266 0 LINE SMOOTH",
"409 0 OFFCURVE",
"505 42 OFFCURVE",
"505 189 CURVE SMOOTH",
"505 310 OFFCURVE",
"439 357 OFFCURVE",
"327 382 CURVE",
"419 406 OFFCURVE",
"470 447 OFFCURVE",
"470 546 CURVE SMOOTH",
"470 677 OFFCURVE",
"402 727 OFFCURVE",
"271 727 CURVE SMOOTH",
"75 727 LINE",
"75 0 LINE"
);
},
{
closed = 1;
nodes = (
"151 344 LINE",
"245 344 LINE SMOOTH",
"362 344 OFFCURVE",
"429 301 OFFCURVE",
"429 192 CURVE SMOOTH",
"429 95 OFFCURVE",
"353 70 OFFCURVE",
"265 70 CURVE SMOOTH",
"151 70 LINE"
);
},
{
closed = 1;
nodes = (
"151 656 LINE",
"271 656 LINE SMOOTH",
"345 656 OFFCURVE",
"394 624 OFFCURVE",
"394 545 CURVE SMOOTH",
"394 460 OFFCURVE",
"339 414 OFFCURVE",
"251 414 CURVE SMOOTH",
"151 414 LINE"
);
},
{
closed = 1;
nodes = (
"324 366 LINE",
"340 366 LINE",
"340 397 LINE",
"324 397 LINE"
);
}
);
};
layerId = m01;
paths = (
{
closed = 1;
nodes = (
"232 0 LINE SMOOTH",
"375 0 OFFCURVE",
"475 40 OFFCURVE",
"495 185 CURVE SMOOTH",
"497 201 OFFCURVE",
"499 217 OFFCURVE",
"499 231 CURVE SMOOTH",
"499 319 OFFCURVE",
"451 361 OFFCURVE",
"347 381 CURVE",
"453 405 OFFCURVE",
"496 440 OFFCURVE",
"511 542 CURVE SMOOTH",
"513 557 OFFCURVE",
"514 571 OFFCURVE",
"514 584 CURVE SMOOTH",
"514 686 OFFCURVE",
"452 727 OFFCURVE",
"336 727 CURVE SMOOTH",
"142 727 LINE",
"40 0 LINE"
);
},
{
closed = 1;
nodes = (
"164 344 LINE",
"259 344 LINE SMOOTH",
"364 344 OFFCURVE",
"423 311 OFFCURVE",
"423 226 CURVE SMOOTH",
"423 217 OFFCURVE",
"423 207 OFFCURVE",
"421 196 CURVE",
"407 97 OFFCURVE",
"326 70 OFFCURVE",
"238 70 CURVE SMOOTH",
"125 70 LINE"
);
},
{
closed = 1;
nodes = (
"208 656 LINE",
"329 656 LINE SMOOTH",
"395 656 OFFCURVE",
"438 632 OFFCURVE",
"438 571 CURVE SMOOTH",
"438 564 OFFCURVE",
"437 557 OFFCURVE",
"436 549 CURVE SMOOTH",
"423 462 OFFCURVE",
"370 414 OFFCURVE",
"272 414 CURVE SMOOTH",
"174 414 LINE"
);
}
);
vertWidth = 1200;
width = 565;
}
);
leftMetricsKey = H;
note = B;
rightKerningGroup = O;
rightMetricsKey = O;
unicode = 0042;
},
{
color = 10;
glyphname = C;
lastChange = "2025-02-19 09:35:14 +0000";
layers = (
{
anchors = (
{
name = bottom;
position = "{230, 0}";
},
{
name = top;
position = "{332, 727}";
}
);
layerId = m01;
paths = (
{
closed = 1;
nodes = (
"398 216 LINE SMOOTH",
"383 112 OFFCURVE",
"332 57 OFFCURVE",
"234 57 CURVE SMOOTH",
"155 57 OFFCURVE",
"126 91 OFFCURVE",
"126 162 CURVE SMOOTH",
"126 177 OFFCURVE",
"128 194 OFFCURVE",
"130 212 CURVE SMOOTH",
"172 510 LINE SMOOTH",
"187 613 OFFCURVE",
"228 670 OFFCURVE",
"327 670 CURVE SMOOTH",
"410 670 OFFCURVE",
"444 636 OFFCURVE",
"444 560 CURVE SMOOTH",
"444 547 OFFCURVE",
"443 534 OFFCURVE",
"441 520 CURVE",
"516 516 LINE",
"518 532 OFFCURVE",
"519 548 OFFCURVE",
"519 562 CURVE SMOOTH",
"519 676 OFFCURVE",
"459 737 OFFCURVE",
"330 737 CURVE SMOOTH",
"186 737 OFFCURVE",
"117 659 OFFCURVE",
"96 512 CURVE SMOOTH",
"55 218 LINE SMOOTH",
"52 199 OFFCURVE",
"51 182 OFFCURVE",
"51 165 CURVE SMOOTH",
"51 56 OFFCURVE",
"109 -10 OFFCURVE",
"231 -10 CURVE SMOOTH",
"370 -10 OFFCURVE",
"454 72 OFFCURVE",
"474 214 CURVE SMOOTH",
"476 230 LINE",
"400 230 LINE"
);
}
);
vertWidth = 1200;
width = 524;
}
);
leftKerningGroup = O;
leftMetricsKey = O;
note = C;
rightKerningGroup = O;
rightMetricsKey = E;
unicode = 0043;
},
{
glyphname = Cacute;
lastChange = "2025-02-19 09:35:14 +0000";
layers = (
{
anchors = (
{
name = bottom;
position = "{230, 0}";
},
{
name = top;
position = "{363, 949}";
}
);
layerId = m01;
paths = (
{
closed = 1;
nodes = (
"398 216 LINE SMOOTH",
"383 112 OFFCURVE",
"332 57 OFFCURVE",
"234 57 CURVE SMOOTH",
"155 57 OFFCURVE",
"126 91 OFFCURVE",
"126 162 CURVE SMOOTH",
"126 177 OFFCURVE",
"128 194 OFFCURVE",
"130 212 CURVE SMOOTH",
"172 510 LINE SMOOTH",
"187 613 OFFCURVE",
"228 670 OFFCURVE",
"327 670 CURVE SMOOTH",
"410 670 OFFCURVE",
"444 636 OFFCURVE",
"444 560 CURVE SMOOTH",
"444 547 OFFCURVE",
"443 534 OFFCURVE",
"441 520 CURVE",
"516 516 LINE",
"518 532 OFFCURVE",
"519 548 OFFCURVE",
"519 562 CURVE SMOOTH",
"519 676 OFFCURVE",
"459 737 OFFCURVE",
"330 737 CURVE SMOOTH",
"186 737 OFFCURVE",
"117 659 OFFCURVE",
"96 512 CURVE SMOOTH",
"55 218 LINE SMOOTH",
"52 199 OFFCURVE",
"51 182 OFFCURVE",
"51 165 CURVE SMOOTH",
"51 56 OFFCURVE",
"109 -10 OFFCURVE",
"231 -10 CURVE SMOOTH",
"370 -10 OFFCURVE",
"454 72 OFFCURVE",
"474 214 CURVE SMOOTH",
"476 230 LINE",
"400 230 LINE"
);
},
{
closed = 1;
nodes = (
"377 808 LINE",
"517 949 LINE",
"417 949 LINE",
"308 808 LINE"
);
}
);
width = 524;
}
);
leftKerningGroup = O;
rightKerningGroup = O;
unicode = 0106;
},
{
glyphname = Ccaron;
lastChange = "2025-02-19 09:35:14 +0000";
layers = (
{
anchors = (
{
name = bottom;
position = "{230, 0}";
},
{
name = top;
position = "{363, 949}";
}
);
hints = (
{
horizontal = 1;
place = "{773, 106}";
type = Stem;
},
{
place = "{84, 257}";
type = Stem;
}
);
layerId = m01;
paths = (
{
closed = 1;
nodes = (
"398 216 LINE SMOOTH",
"383 112 OFFCURVE",
"332 57 OFFCURVE",
"234 57 CURVE SMOOTH",
"155 57 OFFCURVE",
"126 91 OFFCURVE",
"126 162 CURVE SMOOTH",
"126 177 OFFCURVE",
"128 194 OFFCURVE",
"130 212 CURVE SMOOTH",
"172 510 LINE SMOOTH",
"187 613 OFFCURVE",
"228 670 OFFCURVE",
"327 670 CURVE SMOOTH",
"410 670 OFFCURVE",
"444 636 OFFCURVE",
"444 560 CURVE SMOOTH",
"444 547 OFFCURVE",
"443 534 OFFCURVE",
"441 520 CURVE",
"516 516 LINE",
"518 532 OFFCURVE",
"519 548 OFFCURVE",
"519 562 CURVE SMOOTH",
"519 676 OFFCURVE",
"459 737 OFFCURVE",
"330 737 CURVE SMOOTH",
"186 737 OFFCURVE",
"117 659 OFFCURVE",
"96 512 CURVE SMOOTH",
"55 218 LINE SMOOTH",
"52 199 OFFCURVE",
"51 182 OFFCURVE",
"51 165 CURVE SMOOTH",
"51 56 OFFCURVE",
"109 -10 OFFCURVE",
"231 -10 CURVE SMOOTH",
"370 -10 OFFCURVE",
"454 72 OFFCURVE",
"474 214 CURVE SMOOTH",
"476 230 LINE",
"400 230 LINE"
);
},
{
closed = 1;
nodes = (
"418 949 LINE",
"349 855 LINE",
"306 949 LINE",
"232 949 LINE",
"303 808 LINE",
"385 808 LINE",
"494 949 LINE"
);
}
);
width = 524;
}
);
leftKerningGroup = O;
rightKerningGroup = O;
unicode = 010C;
},
{
glyphname = Ccedilla;
lastChange = "2025-02-19 09:35:14 +0000";
layers = (
{
anchors = (
{
name = bottom;
position = "{187, -225}";
},
{
name = top;
position = "{332, 727}";
}
);
hints = (
{
place = "{250, 41}";
type = Stem;
}
);
layerId = m01;
paths = (
{
closed = 1;
nodes = (
"398 216 LINE SMOOTH",
"383 112 OFFCURVE",
"332 57 OFFCURVE",
"234 57 CURVE SMOOTH",
"155 57 OFFCURVE",
"126 91 OFFCURVE",
"126 162 CURVE SMOOTH",
"126 177 OFFCURVE",
"128 194 OFFCURVE",
"130 212 CURVE SMOOTH",
"172 510 LINE SMOOTH",
"187 613 OFFCURVE",
"228 670 OFFCURVE",
"327 670 CURVE SMOOTH",
"410 670 OFFCURVE",
"444 636 OFFCURVE",
"444 560 CURVE SMOOTH",
"444 547 OFFCURVE",
"443 534 OFFCURVE",
"441 520 CURVE",
"516 516 LINE",
"518 532 OFFCURVE",
"519 548 OFFCURVE",
"519 562 CURVE SMOOTH",
"519 676 OFFCURVE",
"459 737 OFFCURVE",
"330 737 CURVE SMOOTH",
"186 737 OFFCURVE",
"117 659 OFFCURVE",
"96 512 CURVE SMOOTH",
"55 218 LINE SMOOTH",
"52 199 OFFCURVE",
"51 182 OFFCURVE",
"51 165 CURVE SMOOTH",
"51 56 OFFCURVE",
"109 -10 OFFCURVE",
"231 -10 CURVE SMOOTH",
"370 -10 OFFCURVE",
"454 72 OFFCURVE",
"474 214 CURVE SMOOTH",
"476 230 LINE",
"400 230 LINE"
);
},
{
closed = 1;
nodes = (
"158 -65 LINE",
"218 -65 LINE",
"272 20 LINE",
"212 20 LINE"
);
},
{
closed = 1;
nodes = (
"201 -80 OFFCURVE",
"212 -76 OFFCURVE",
"224 -76 CURVE SMOOTH",
"246 -76 OFFCURVE",
"265 -89 OFFCURVE",
"265 -114 CURVE SMOOTH",
"265 -146 OFFCURVE",
"236 -182 OFFCURVE",
"193 -182 CURVE SMOOTH",
"169 -182 OFFCURVE",
"145 -173 OFFCURVE",
"135 -157 CURVE",
"101 -183 LINE",
"122 -212 OFFCURVE",
"157 -227 OFFCURVE",
"195 -227 CURVE SMOOTH",
"255 -227 OFFCURVE",
"318 -189 OFFCURVE",
"318 -117 CURVE SMOOTH",
"318 -61 OFFCURVE",
"278 -35 OFFCURVE",
"232 -35 CURVE SMOOTH",
"208 -35 OFFCURVE",
"182 -43 OFFCURVE",
"157 -64 CURVE",
"191 -86 LINE"
);
}
);
width = 524;
}
);
leftKerningGroup = O;
rightKerningGroup = O;
unicode = 00C7;
},
{
glyphname = Cdotaccent;
lastChange = "2025-02-19 09:35:14 +0000";
layers = (
{
anchors = (
{
name = bottom;
position = "{230, 0}";
},
{
name = top;
position = "{355, 896}";
}
);
layerId = m01;
paths = (
{
closed = 1;
nodes = (
"398 216 LINE SMOOTH",
"383 112 OFFCURVE",
"332 57 OFFCURVE",
"234 57 CURVE SMOOTH",
"155 57 OFFCURVE",
"126 91 OFFCURVE",
"126 162 CURVE SMOOTH",
"126 177 OFFCURVE",
"128 194 OFFCURVE",
"130 212 CURVE SMOOTH",
"172 510 LINE SMOOTH",
"187 613 OFFCURVE",
"228 670 OFFCURVE",
"327 670 CURVE SMOOTH",
"410 670 OFFCURVE",
"444 636 OFFCURVE",
"444 560 CURVE SMOOTH",
"444 547 OFFCURVE",
"443 534 OFFCURVE",
"441 520 CURVE",
"516 516 LINE",
"518 532 OFFCURVE",
"519 548 OFFCURVE",
"519 562 CURVE SMOOTH",
"519 676 OFFCURVE",
"459 737 OFFCURVE",
"330 737 CURVE SMOOTH",
"186 737 OFFCURVE",
"117 659 OFFCURVE",
"96 512 CURVE SMOOTH",
"55 218 LINE SMOOTH",
"52 199 OFFCURVE",
"51 182 OFFCURVE",
"51 165 CURVE SMOOTH",
"51 56 OFFCURVE",
"109 -10 OFFCURVE",
"231 -10 CURVE SMOOTH",
"370 -10 OFFCURVE",
"454 72 OFFCURVE",
"474 214 CURVE SMOOTH",
"476 230 LINE",
"400 230 LINE"
);
},
{
closed = 1;
nodes = (
"384 813 LINE",
"395 896 LINE",
"315 896 LINE",
"304 813 LINE"
);
}
);
width = 524;
}
);
leftKerningGroup = O;
rightKerningGroup = O;
unicode = 010A;
},
{
color = 10;
glyphname = D;
lastChange = "2025-02-19 09:35:14 +0000";
layers = (
{
anchors = (
{
name = bottom;
position = "{244, 0}";
},
{
name = center;
position = "{295, 364}";
},
{
name = top;
position = "{336, 727}";
}
);
layerId = m01;
paths = (
{
closed = 1;
nodes = (
"415 0 OFFCURVE",
"479 111 OFFCURVE",
"514 360 CURVE SMOOTH",
"522 420 OFFCURVE",
"527 473 OFFCURVE",
"527 518 CURVE SMOOTH",
"527 663 OFFCURVE",
"476 727 OFFCURVE",
"335 727 CURVE SMOOTH",
"142 727 LINE",
"40 0 LINE",
"236 0 LINE SMOOTH"
);
},
{
closed = 1;
nodes = (
"125 67 LINE",
"208 660 LINE",
"319 660 LINE SMOOTH",
"403 660 OFFCURVE",
"451 619 OFFCURVE",
"451 517 CURVE SMOOTH",
"451 499 OFFCURVE",
"449 478 OFFCURVE",
"446 455 CURVE SMOOTH",
"421 276 LINE SMOOTH",
"401 132 OFFCURVE",
"328 67 OFFCURVE",
"232 67 CURVE SMOOTH"
);
}
);
vertWidth = 1200;
width = 559;
}
);
leftMetricsKey = H;
note = D;
rightKerningGroup = O;
rightMetricsKey = O;
unicode = 0044;
},
{
color = 10;
glyphname = Eth;
lastChange = "2025-02-19 09:35:14 +0000";
layers = (
{
anchors = (
{
name = bottom;
position = "{244, 0}";
},
{
name = center;
position = "{295, 364}";
},
{
name = top;
position = "{336, 727}";
}
);
layerId = m01;
paths = (
{
closed = 1;
nodes = (
"29 366 LINE",
"320 366 LINE",
"328 422 LINE",
"37 422 LINE"
);
},
{
closed = 1;
nodes = (
"415 0 OFFCURVE",
"479 111 OFFCURVE",
"514 360 CURVE SMOOTH",
"522 420 OFFCURVE",
"527 473 OFFCURVE",
"527 518 CURVE SMOOTH",
"527 663 OFFCURVE",
"476 727 OFFCURVE",
"335 727 CURVE SMOOTH",
"142 727 LINE",
"40 0 LINE",
"236 0 LINE SMOOTH"
);
},
{
closed = 1;
nodes = (
"125 67 LINE",
"208 660 LINE",
"319 660 LINE SMOOTH",
"403 660 OFFCURVE",
"451 619 OFFCURVE",
"451 517 CURVE SMOOTH",
"451 499 OFFCURVE",
"449 478 OFFCURVE",
"446 455 CURVE SMOOTH",
"421 276 LINE SMOOTH",
"401 132 OFFCURVE",
"328 67 OFFCURVE",
"232 67 CURVE SMOOTH"
);
}
);
width = 559;
}
);
rightKerningGroup = O;
unicode = 00D0;
},
{
glyphname = Dcaron;
lastChange = "2025-02-19 09:35:14 +0000";
layers = (
{
anchors = (
{
name = bottom;
position = "{244, 0}";
},
{
name = center;
position = "{295, 364}";
},
{
name = top;
position = "{367, 949}";
}
);
hints = (
{
horizontal = 1;
place = "{773, 106}";
type = Stem;
},
{
place = "{88, 257}";
type = Stem;
}
);
layerId = m01;
paths = (
{
closed = 1;
nodes = (
"415 0 OFFCURVE",
"479 111 OFFCURVE",
"514 360 CURVE SMOOTH",
"522 420 OFFCURVE",
"527 473 OFFCURVE",
"527 518 CURVE SMOOTH",
"527 663 OFFCURVE",
"476 727 OFFCURVE",
"335 727 CURVE SMOOTH",
"142 727 LINE",
"40 0 LINE",
"236 0 LINE SMOOTH"
);
},
{
closed = 1;
nodes = (
"125 67 LINE",
"208 660 LINE",
"319 660 LINE SMOOTH",
"403 660 OFFCURVE",
"451 619 OFFCURVE",
"451 517 CURVE SMOOTH",
"451 499 OFFCURVE",
"449 478 OFFCURVE",
"446 455 CURVE SMOOTH",
"421 276 LINE SMOOTH",
"401 132 OFFCURVE",
"328 67 OFFCURVE",
"232 67 CURVE SMOOTH"
);
},
{
closed = 1;
nodes = (
"422 949 LINE",
"353 855 LINE",
"310 949 LINE",
"236 949 LINE",
"307 808 LINE",
"389 808 LINE",
"498 949 LINE"
);
}
);
width = 559;
}
);
rightKerningGroup = O;
unicode = 010E;
},
{
glyphname = Dcroat;
lastChange = "2025-02-19 09:35:14 +0000";
layers = (
{
anchors = (
{
name = bottom;
position = "{244, 0}";
},
{
name = center;
position = "{295, 364}";
},
{
name = top;
position = "{336, 727}";
}
);
layerId = m01;
paths = (
{
closed = 1;
nodes = (
"29 366 LINE",
"320 366 LINE",
"328 422 LINE",
"37 422 LINE"
);
},
{
closed = 1;
nodes = (
"415 0 OFFCURVE",
"479 111 OFFCURVE",
"514 360 CURVE SMOOTH",
"522 420 OFFCURVE",
"527 473 OFFCURVE",
"527 518 CURVE SMOOTH",
"527 663 OFFCURVE",
"476 727 OFFCURVE",
"335 727 CURVE SMOOTH",
"142 727 LINE",
"40 0 LINE",
"236 0 LINE SMOOTH"
);
},
{
closed = 1;
nodes = (
"125 67 LINE",
"208 660 LINE",
"319 660 LINE SMOOTH",
"403 660 OFFCURVE",
"451 619 OFFCURVE",
"451 517 CURVE SMOOTH",
"451 499 OFFCURVE",
"449 478 OFFCURVE",
"446 455 CURVE SMOOTH",
"421 276 LINE SMOOTH",
"401 132 OFFCURVE",
"328 67 OFFCURVE",
"232 67 CURVE SMOOTH"
);
}
);
width = 559;
}
);
rightKerningGroup = O;
unicode = 0110;
},
{
color = 10;
glyphname = E;
lastChange = "2025-02-19 09:35:05 +0000";
layers = (
{
anchors = (
{
name = bottom;
position = "{220, 0}";
},
{
name = ogonek;
position = "{400, 0}";
},
{
name = top;
position = "{321, 727}";
},
{
name = topleft;
position = "{85, 727}";
}
);
layerId = m01;
paths = (
{
closed = 1;
nodes = (
"400 0 LINE",
"409 70 LINE",
"125 70 LINE",
"163 336 LINE",
"420 336 LINE",
"430 406 LINE",
"173 406 LINE",
"208 657 LINE",
"489 657 LINE",
"499 727 LINE",
"142 727 LINE",
"40 0 LINE"
);
}
);
vertWidth = 1200;
width = 480;
}
);
leftMetricsKey = H;
note = E;
rightKerningGroup = E;
unicode = 0045;
},
{
glyphname = Eogonek;
lastChange = "2025-02-19 09:35:11 +0000";
layers = (
{
anchors = (
{
name = bottom;
position = "{220, 0}";
},
{
name = ogonek;
position = "{400, 0}";
},
{
name = top;
position = "{321, 727}";
},
{
name = topleft;
position = "{85, 727}";
}
);
layerId = m01;
paths = (
{
closed = 1;
nodes = (
"400 0 LINE",
"409 70 LINE",
"125 70 LINE",
"163 336 LINE",
"420 336 LINE",
"430 406 LINE",
"173 406 LINE",
"208 657 LINE",
"489 657 LINE",
"499 727 LINE",
"142 727 LINE",
"40 0 LINE"
);
},
{
closed = 1;
nodes = (
"309 -188 OFFCURVE",
"369 -188 CURVE SMOOTH",
"381 -188 OFFCURVE",
"395 -187 OFFCURVE",
"409 -185 CURVE",
"415 -124 LINE",
"406 -127 OFFCURVE",
"397 -129 OFFCURVE",
"386 -129 CURVE SMOOTH",
"359 -129 OFFCURVE",
"332 -117 OFFCURVE",
"332 -91 CURVE SMOOTH",
"332 -60 OFFCURVE",
"357 -31 OFFCURVE",
"401 -1 CURVE",
"333 1 LINE",
"284 -34 OFFCURVE",
"268 -62 OFFCURVE",
"268 -109 CURVE SMOOTH",
"268 -164 OFFCURVE"
);
}
);
width = 480;
}
);
rightKerningGroup = E;
unicode = 0118;
},
{
color = 10;
glyphname = F;
lastChange = "2025-02-19 09:35:05 +0000";
layers = (
{
anchors = (
{
name = bottom;
position = "{191, 0}";
},
{
name = top;
position = "{293, 727}";
}
);
layerId = m01;
paths = (
{
closed = 1;
nodes = (
"116 0 LINE",
"163 336 LINE",
"411 336 LINE",
"421 406 LINE",
"173 406 LINE",
"208 657 LINE",
"477 657 LINE",
"487 727 LINE",
"142 727 LINE",
"40 0 LINE"
);
}
);
vertWidth = 1200;
width = 465;
}
);
leftMetricsKey = H;
note = F;
rightKerningGroup = F;
rightMetricsKey = E;
unicode = 0046;
},
{
color = 10;
glyphname = G;
lastChange = "2025-02-19 09:35:11 +0000";
layers = (
{
anchors = (
{
name = bottom;
position = "{220, 0}";
},
{
name = top;
position = "{333, 727}";
}
);
background = {
paths = (
{
closed = 1;
nodes = (
"403 214 LINE SMOOTH",
"403 110 OFFCURVE",
"361 57 OFFCURVE",
"265 57 CURVE SMOOTH",
"167 57 OFFCURVE",
"136 110 OFFCURVE",
"136 214 CURVE SMOOTH",
"136 512 LINE SMOOTH",
"136 615 OFFCURVE",
"168 670 OFFCURVE",
"265 670 CURVE SMOOTH",
"360 670 OFFCURVE",
"399 625 OFFCURVE",
"403 527 CURVE",
"479 527 LINE",
"474 665 OFFCURVE",
"406 737 OFFCURVE",
"265 737 CURVE SMOOTH",
"119 737 OFFCURVE",
"60 657 OFFCURVE",
"60 510 CURVE SMOOTH",
"60 216 LINE SMOOTH",
"60 75 OFFCURVE",
"125 -10 OFFCURVE",
"255 -10 CURVE SMOOTH",
"412 -10 OFFCURVE",
"430 74 OFFCURVE",
"439 216 CURVE SMOOTH",
"429 366 LINE",
"403 366 LINE"
);
},
{
closed = 1;
nodes = (
"479 527 LINE",
"403 527 LINE"
);
},
{
closed = 1;
nodes = (
"267 306 LINE",
"438 306 LINE",
"438 366 LINE",
"267 366 LINE"
);
},
{
closed = 1;
nodes = (
"403 0 LINE",
"479 0 LINE",
"479 366 LINE",
"403 366 LINE"
);
}
);
};
layerId = m01;
paths = (
{
closed = 1;
nodes = (
"283 366 LINE",
"275 306 LINE",
"411 306 LINE",
"398 216 LINE SMOOTH",
"383 112 OFFCURVE",
"332 57 OFFCURVE",
"234 57 CURVE SMOOTH",
"155 57 OFFCURVE",
"126 91 OFFCURVE",
"126 162 CURVE SMOOTH",
"126 177 OFFCURVE",
"128 194 OFFCURVE",
"130 212 CURVE SMOOTH",
"172 510 LINE SMOOTH",
"187 613 OFFCURVE",
"228 670 OFFCURVE",
"327 670 CURVE SMOOTH",
"409 670 OFFCURVE",
"444 636 OFFCURVE",
"444 561 CURVE SMOOTH",
"444 551 OFFCURVE",
"443 540 OFFCURVE",
"442 529 CURVE",
"517 525 LINE",
"519 539 OFFCURVE",
"519 552 OFFCURVE",
"519 565 CURVE SMOOTH",
"519 677 OFFCURVE",
"459 737 OFFCURVE",
"330 737 CURVE SMOOTH",
"186 737 OFFCURVE",
"117 659 OFFCURVE",
"96 512 CURVE SMOOTH",
"55 218 LINE SMOOTH",
"52 199 OFFCURVE",
"51 181 OFFCURVE",
"51 165 CURVE SMOOTH",
"51 55 OFFCURVE",
"107 -10 OFFCURVE",
"221 -10 CURVE SMOOTH",
"299 -10 OFFCURVE",
"345 9 OFFCURVE",
"375 49 CURVE",
"378 0 LINE",
"444 0 LINE",
"495 366 LINE"
);
}
);
vertWidth = 1200;
width = 539;
}
);
leftKerningGroup = O;
leftMetricsKey = O;
note = G;
rightMetricsKey = O;
unicode = 0047;
},
{
glyphname = Gbreve;
lastChange = "2025-02-19 09:35:11 +0000";
layers = (
{
anchors = (
{
name = bottom;
position = "{220, 0}";
},
{
name = top;
position = "{361, 926}";
}
);
hints = (
{
horizontal = 1;
place = "{785, 28}";
type = Stem;
},
{
place = "{298, 28}";
type = Stem;
},
{
place = "{101, 28}";
type = Stem;
}
);
layerId = m01;
paths = (
{
closed = 1;
nodes = (
"283 366 LINE",
"275 306 LINE",
"411 306 LINE",
"398 216 LINE SMOOTH",
"383 112 OFFCURVE",
"332 57 OFFCURVE",
"234 57 CURVE SMOOTH",
"155 57 OFFCURVE",
"126 91 OFFCURVE",
"126 162 CURVE SMOOTH",
"126 177 OFFCURVE",
"128 194 OFFCURVE",
"130 212 CURVE SMOOTH",
"172 510 LINE SMOOTH",
"187 613 OFFCURVE",
"228 670 OFFCURVE",
"327 670 CURVE SMOOTH",
"409 670 OFFCURVE",
"444 636 OFFCURVE",
"444 561 CURVE SMOOTH",
"444 551 OFFCURVE",
"443 540 OFFCURVE",
"442 529 CURVE",
"517 525 LINE",
"519 539 OFFCURVE",
"519 552 OFFCURVE",
"519 565 CURVE SMOOTH",
"519 677 OFFCURVE",
"459 737 OFFCURVE",
"330 737 CURVE SMOOTH",
"186 737 OFFCURVE",
"117 659 OFFCURVE",
"96 512 CURVE SMOOTH",
"55 218 LINE SMOOTH",
"52 199 OFFCURVE",
"51 181 OFFCURVE",
"51 165 CURVE SMOOTH",
"51 55 OFFCURVE",
"107 -10 OFFCURVE",
"221 -10 CURVE SMOOTH",
"299 -10 OFFCURVE",
"345 9 OFFCURVE",
"375 49 CURVE",
"378 0 LINE",
"444 0 LINE",
"495 366 LINE"
);
},
{
closed = 1;
nodes = (
"395 873 OFFCURVE",
"381 860 OFFCURVE",
"347 860 CURVE SMOOTH",
"321 860 OFFCURVE",
"312 872 OFFCURVE",
"315 924 CURVE",
"246 928 LINE",
"245 919 OFFCURVE",
"245 911 OFFCURVE",
"245 904 CURVE SMOOTH",
"245 829 OFFCURVE",
"273 808 OFFCURVE",
"347 808 CURVE SMOOTH",
"427 808 OFFCURVE",
"455 828 OFFCURVE",
"474 924 CURVE",
"407 928 LINE"
);
}
);
width = 539;
}
);
leftKerningGroup = O;
unicode = 011E;
},
{
glyphname = Gcommaaccent;
lastChange = "2025-02-19 09:35:11 +0000";
layers = (
{
anchors = (
{
name = bottom;
position = "{169, -231}";
},
{
name = top;
position = "{333, 727}";
}
);
layerId = m01;
paths = (
{
closed = 1;
nodes = (
"283 366 LINE",
"275 306 LINE",
"411 306 LINE",
"398 216 LINE SMOOTH",
"383 112 OFFCURVE",
"332 57 OFFCURVE",
"234 57 CURVE SMOOTH",
"155 57 OFFCURVE",
"126 91 OFFCURVE",
"126 162 CURVE SMOOTH",
"126 177 OFFCURVE",
"128 194 OFFCURVE",
"130 212 CURVE SMOOTH",
"172 510 LINE SMOOTH",
"187 613 OFFCURVE",
"228 670 OFFCURVE",
"327 670 CURVE SMOOTH",
"409 670 OFFCURVE",
"444 636 OFFCURVE",
"444 561 CURVE SMOOTH",
"444 551 OFFCURVE",
"443 540 OFFCURVE",
"442 529 CURVE",
"517 525 LINE",
"519 539 OFFCURVE",
"519 552 OFFCURVE",
"519 565 CURVE SMOOTH",
"519 677 OFFCURVE",
"459 737 OFFCURVE",
"330 737 CURVE SMOOTH",
"186 737 OFFCURVE",
"117 659 OFFCURVE",
"96 512 CURVE SMOOTH",
"55 218 LINE SMOOTH",
"52 199 OFFCURVE",
"51 181 OFFCURVE",
"51 165 CURVE SMOOTH",
"51 55 OFFCURVE",
"107 -10 OFFCURVE",
"221 -10 CURVE SMOOTH",
"299 -10 OFFCURVE",
"345 9 OFFCURVE",
"375 49 CURVE",
"378 0 LINE",
"444 0 LINE",
"495 366 LINE"
);
},
{
closed = 1;
nodes = (
"164 -231 LINE",
"251 -65 LINE",
"170 -65 LINE",
"110 -231 LINE"
);
}
);
width = 539;
}
);
leftKerningGroup = O;
unicode = 0122;
},
{
glyphname = Gdotaccent;
lastChange = "2025-02-19 09:35:11 +0000";
layers = (
{
anchors = (
{
name = bottom;
position = "{220, 0}";
},
{
name = top;
position = "{356, 896}";
}
);
layerId = m01;
paths = (
{
closed = 1;
nodes = (
"283 366 LINE",
"275 306 LINE",
"411 306 LINE",
"398 216 LINE SMOOTH",
"383 112 OFFCURVE",
"332 57 OFFCURVE",
"234 57 CURVE SMOOTH",
"155 57 OFFCURVE",
"126 91 OFFCURVE",
"126 162 CURVE SMOOTH",
"126 177 OFFCURVE",
"128 194 OFFCURVE",
"130 212 CURVE SMOOTH",
"172 510 LINE SMOOTH",
"187 613 OFFCURVE",
"228 670 OFFCURVE",
"327 670 CURVE SMOOTH",
"409 670 OFFCURVE",
"444 636 OFFCURVE",
"444 561 CURVE SMOOTH",
"444 551 OFFCURVE",
"443 540 OFFCURVE",
"442 529 CURVE",
"517 525 LINE",
"519 539 OFFCURVE",
"519 552 OFFCURVE",
"519 565 CURVE SMOOTH",
"519 677 OFFCURVE",
"459 737 OFFCURVE",
"330 737 CURVE SMOOTH",
"186 737 OFFCURVE",
"117 659 OFFCURVE",
"96 512 CURVE SMOOTH",
"55 218 LINE SMOOTH",
"52 199 OFFCURVE",
"51 181 OFFCURVE",
"51 165 CURVE SMOOTH",
"51 55 OFFCURVE",
"107 -10 OFFCURVE",
"221 -10 CURVE SMOOTH",
"299 -10 OFFCURVE",
"345 9 OFFCURVE",
"375 49 CURVE",
"378 0 LINE",
"444 0 LINE",
"495 366 LINE"
);
},
{
closed = 1;
nodes = (
"385 813 LINE",
"396 896 LINE",
"316 896 LINE",
"305 813 LINE"
);
}
);
width = 539;
}
);
leftKerningGroup = O;
unicode = 0120;
},
{
color = 10;
glyphname = H;
lastChange = "2025-02-19 09:35:05 +0000";
layers = (
{
anchors = (
{
name = bottom;
position = "{242, 0}";
},
{
name = center;
position = "{293, 364}";
},
{
name = top;
position = "{344, 727}";
},
{
name = topleft;
position = "{85, 727}";
}
);
layerId = m01;
paths = (
{
closed = 1;
nodes = (
"116 0 LINE",
"163 336 LINE",
"413 336 LINE",
"366 0 LINE",
"442 0 LINE",
"544 727 LINE",
"468 727 LINE",
"423 406 LINE",
"173 406 LINE",
"218 727 LINE",
"142 727 LINE",
"40 0 LINE"
);
}
);
vertWidth = 1200;
width = 552;
}
);
note = H;
unicode = 0048;
},
{
color = 10;
glyphname = Hbar;
lastChange = "2025-02-19 09:35:05 +0000";
layers = (
{
components = (
{
name = H;
}
);
layerId = m01;
paths = (
{
closed = 1;
nodes = (
"51 546 LINE",
"583 546 LINE",
"591 602 LINE",
"59 602 LINE"
);
}
);
width = 552;
}
);
unicode = 0126;
},
{
color = 10;
glyphname = I;
lastChange = "2025-02-19 09:35:05 +0000";
layers = (
{
anchors = (
{
name = bottom;
position = "{78, 0}";
},
{
name = ogonek;
position = "{116, 0}";
},
{
name = top;
position = "{180, 727}";
},
{
name = topleft;
position = "{81, 727}";
}
);
layerId = m01;
paths = (
{
closed = 1;
nodes = (
"116 0 LINE",
"218 727 LINE",
"142 727 LINE",
"40 0 LINE"
);
}
);
vertWidth = 1200;
width = 226;
}
);
leftMetricsKey = H;
note = I;
rightMetricsKey = H;
unicode = 0049;
},
{
glyphname = Iogonek;
lastChange = "2025-02-19 09:35:11 +0000";
layers = (
{
anchors = (
{
name = bottom;
position = "{78, 0}";
},
{
name = ogonek;
position = "{116, 0}";
},
{
name = top;
position = "{180, 727}";
},
{
name = topleft;
position = "{81, 727}";
}
);
layerId = m01;
paths = (
{
closed = 1;
nodes = (
"116 0 LINE",
"218 727 LINE",
"142 727 LINE",
"40 0 LINE"
);
},
{
closed = 1;
nodes = (
"25 -188 OFFCURVE",
"85 -188 CURVE SMOOTH",
"97 -188 OFFCURVE",
"111 -187 OFFCURVE",
"125 -185 CURVE",
"131 -124 LINE",
"122 -127 OFFCURVE",
"113 -129 OFFCURVE",
"102 -129 CURVE SMOOTH",
"75 -129 OFFCURVE",
"48 -117 OFFCURVE",
"48 -91 CURVE SMOOTH",
"48 -60 OFFCURVE",
"73 -31 OFFCURVE",
"117 -1 CURVE",
"49 1 LINE",
"0 -34 OFFCURVE",
"-16 -62 OFFCURVE",
"-16 -109 CURVE SMOOTH",
"-16 -164 OFFCURVE"
);
}
);
width = 226;
}
);
unicode = 012E;
},
{
color = 10;
glyphname = J;
lastChange = "2025-02-19 09:35:14 +0000";
layers = (
{
anchors = (
{
name = bottom;
position = "{196, 0}";
},
{
name = top;
position = "{298, 727}";
}
);
layerId = m01;
paths = (
{
closed = 1;
nodes = (
"380 727 LINE",
"308 216 LINE SMOOTH",
"293 112 OFFCURVE",
"272 57 OFFCURVE",
"174 57 CURVE SMOOTH",
"117 57 OFFCURVE",
"98 86 OFFCURVE",
"98 143 CURVE SMOOTH",
"98 163 OFFCURVE",
"100 186 OFFCURVE",
"104 212 CURVE SMOOTH",
"106 223 LINE",
"26 223 LINE",
"25 218 LINE",
"21 191 OFFCURVE",
"19 166 OFFCURVE",
"19 143 CURVE SMOOTH",
"19 47 OFFCURVE",
"57 -10 OFFCURVE",
"171 -10 CURVE SMOOTH",
"310 -10 OFFCURVE",
"361 52 OFFCURVE",
"382 204 CURVE SMOOTH",
"456 727 LINE"
);
}
);
vertWidth = 1200;
width = 464;
}
);
leftKerningGroup = J;
note = J;
rightKerningGroup = J;
rightMetricsKey = H;
unicode = 004A;
},
{
color = 10;
glyphname = K;
lastChange = "2025-02-19 09:35:05 +0000";
layers = (
{
anchors = (
{
name = bottom;
position = "{222, 0}";
},
{
name = top;
position = "{324, 727}";
}
);
layerId = m01;
paths = (
{
closed = 1;
nodes = (
"477 0 LINE",
"274 399 LINE",
"565 727 LINE",
"475 727 LINE",
"181 399 LINE",
"380 0 LINE"
);
},
{
closed = 1;
nodes = (
"116 0 LINE",
"218 727 LINE",
"142 727 LINE",
"40 0 LINE"
);
}
);
vertWidth = 1200;
width = 518;
}
);
leftMetricsKey = H;
note = K;
rightKerningGroup = X;
unicode = 004B;
},
{
color = 10;
glyphname = L;
lastChange = "2025-02-19 09:35:05 +0000";
layers = (
{
anchors = (
{
name = bottom;
position = "{209, 0}";
},
{
name = center;
position = "{237, 364}";
},
{
name = top;
position = "{180, 727}";
},
{
name = topright;
position = "{308, 505}";
}
);
layerId = m01;
paths = (
{
closed = 1;
nodes = (
"378 0 LINE",
"387 70 LINE",
"125 70 LINE",
"218 727 LINE",
"142 727 LINE",
"40 0 LINE"
);
}
);
vertWidth = 1200;
width = 443;
}
);
leftMetricsKey = H;
note = L;
rightKerningGroup = L;
unicode = 004C;
},
{
color = 10;
glyphname = Lslash;
lastChange = "2025-02-19 09:35:05 +0000";
layers = (
{
components = (
{
name = L;
}
);
layerId = m01;
paths = (
{
closed = 1;
nodes = (
"15 266 LINE",
"327 416 LINE",
"336 482 LINE",
"24 332 LINE"
);
}
);
width = 443;
}
);
rightKerningGroup = L;
unicode = 0141;
},
{
color = 10;
glyphname = M;
lastChange = "2025-02-19 09:35:05 +0000";
layers = (
{
anchors = (
{
name = bottom;
position = "{353, 0}";
},
{
name = top;
position = "{455, 727}";
}
);
layerId = m01;
paths = (
{
closed = 1;
nodes = (
"114 0 LINE",
"207 660 LINE",
"309 0 LINE",
"397 0 LINE",
"685 660 LINE",
"592 0 LINE",
"666 0 LINE",
"768 727 LINE",
"632 727 LINE",
"370 127 LINE",
"277 727 LINE",
"142 727 LINE",
"40 0 LINE"
);
}
);
vertWidth = 1200;
width = 776;
}
);
leftMetricsKey = H;
note = M;
rightMetricsKey = H;
unicode = 004D;
},
{
color = 10;
glyphname = N;
lastChange = "2025-02-19 09:35:05 +0000";
layers = (
{
anchors = (
{
name = bottom;
position = "{269, 0}";
},
{
name = top;
position = "{393, 727}";
}
);
layerId = m01;
paths = (
{
closed = 1;
nodes = (
"116 0 LINE",
"206 642 LINE",
"401 0 LINE",
"520 0 LINE",
"622 727 LINE",
"546 727 LINE",
"455 85 LINE",
"260 727 LINE",
"142 727 LINE",
"40 0 LINE"
);
}
);
vertWidth = 1200;
width = 630;
}
);
leftMetricsKey = H;
note = N;
rightMetricsKey = H;
unicode = 004E;
},
{
color = 10;
glyphname = Eng;
lastChange = "2025-02-19 09:35:05 +0000";
layers = (
{
components = (
{
name = N;
}
);
layerId = m01;
paths = (
{
closed = 1;
nodes = (
"384 -190 LINE SMOOTH",
"472 -190 OFFCURVE",
"498 -169 OFFCURVE",
"514 -56 CURVE SMOOTH",
"592 505 LINE",
"516 505 LINE",
"436 -67 LINE SMOOTH",
"428 -122 OFFCURVE",
"419 -126 OFFCURVE",
"363 -126 CURVE",
"356 -190 LINE"
);
}
);
width = 632;
}
);
leftMetricsKey = H;
rightMetricsKey = H;
unicode = 014A;
},
{
glyphname = Ntilde;
lastChange = "2025-02-19 09:35:14 +0000";
layers = (
{
anchors = (
{
name = bottom;
position = "{269, 0}";
},
{
name = top;
position = "{420, 924}";
}
);
layerId = m01;
paths = (
{
closed = 1;
nodes = (
"116 0 LINE",
"206 642 LINE",
"401 0 LINE",
"520 0 LINE",
"622 727 LINE",
"546 727 LINE",
"455 85 LINE",
"260 727 LINE",
"142 727 LINE",
"40 0 LINE"
);
},
{
closed = 1;
nodes = (
"300 806 LINE",
"306 831 OFFCURVE",
"330 853 OFFCURVE",
"356 853 CURVE SMOOTH",
"391 853 OFFCURVE",
"413 815 OFFCURVE",
"460 815 CURVE SMOOTH",
"486 815 OFFCURVE",
"509 825 OFFCURVE",
"530 845 CURVE",
"549 865 OFFCURVE",
"563 893 OFFCURVE",
"570 922 CURVE",
"519 926 LINE",
"511 896 OFFCURVE",
"495 879 OFFCURVE",
"466 879 CURVE SMOOTH",
"426 879 OFFCURVE",
"421 916 OFFCURVE",
"365 916 CURVE SMOOTH",
"308 916 OFFCURVE",
"271 879 OFFCURVE",
"254 810 CURVE"
);
}
);
width = 630;
}
);
unicode = 00D1;
},
{
color = 10;
glyphname = O;
lastChange = "2025-02-19 09:35:11 +0000";
layers = (
{
anchors = (
{
name = bottom;
position = "{230, 0}";
},
{
name = center;
position = "{286, 364}";
},
{
name = ogonek;
position = "{453, 10}";
},
{
name = top;
position = "{332, 727}";
},
{
name = topleft;
position = "{85, 727}";
},
{
name = topright;
position = "{588, 727}";
}
);
layerId = m01;
paths = (
{
closed = 1;
nodes = (
"370 -10 OFFCURVE",
"454 72 OFFCURVE",
"474 214 CURVE SMOOTH",
"515 508 LINE SMOOTH",
"518 528 OFFCURVE",
"519 546 OFFCURVE",
"519 564 CURVE SMOOTH",
"519 677 OFFCURVE",
"459 737 OFFCURVE",
"330 737 CURVE SMOOTH",
"186 737 OFFCURVE",
"117 659 OFFCURVE",
"96 512 CURVE SMOOTH",
"55 218 LINE SMOOTH",
"52 199 OFFCURVE",
"51 182 OFFCURVE",
"51 165 CURVE SMOOTH",
"51 56 OFFCURVE",
"109 -10 OFFCURVE",
"231 -10 CURVE SMOOTH"
);
},
{
closed = 1;
nodes = (
"155 57 OFFCURVE",
"126 91 OFFCURVE",
"126 162 CURVE SMOOTH",
"126 177 OFFCURVE",
"128 194 OFFCURVE",
"130 212 CURVE SMOOTH",
"172 510 LINE SMOOTH",
"187 613 OFFCURVE",
"228 670 OFFCURVE",
"327 670 CURVE SMOOTH",
"409 670 OFFCURVE",
"444 636 OFFCURVE",
"444 561 CURVE SMOOTH",
"444 547 OFFCURVE",
"442 531 OFFCURVE",
"440 514 CURVE SMOOTH",
"398 216 LINE SMOOTH",
"383 112 OFFCURVE",
"332 57 OFFCURVE",
"234 57 CURVE SMOOTH"
);
}
);
vertWidth = 1200;
width = 539;
}
);
leftKerningGroup = O;
note = O;
rightKerningGroup = O;
unicode = 004F;
},
{
glyphname = Oacute;
lastChange = "2025-02-19 09:35:11 +0000";
layers = (
{
anchors = (
{
name = bottom;
position = "{230, 0}";
},
{
name = center;
position = "{286, 364}";
},
{
name = ogonek;
position = "{453, 10}";
},
{
name = top;
position = "{363, 949}";
},
{
name = topleft;
position = "{85, 727}";
},
{
name = topright;
position = "{588, 727}";
}
);
layerId = m01;
paths = (
{
closed = 1;
nodes = (
"370 -10 OFFCURVE",
"454 72 OFFCURVE",
"474 214 CURVE SMOOTH",
"515 508 LINE SMOOTH",
"518 528 OFFCURVE",
"519 546 OFFCURVE",
"519 564 CURVE SMOOTH",
"519 677 OFFCURVE",
"459 737 OFFCURVE",
"330 737 CURVE SMOOTH",
"186 737 OFFCURVE",
"117 659 OFFCURVE",
"96 512 CURVE SMOOTH",
"55 218 LINE SMOOTH",
"52 199 OFFCURVE",
"51 182 OFFCURVE",
"51 165 CURVE SMOOTH",
"51 56 OFFCURVE",
"109 -10 OFFCURVE",
"231 -10 CURVE SMOOTH"
);
},
{
closed = 1;
nodes = (
"155 57 OFFCURVE",
"126 91 OFFCURVE",
"126 162 CURVE SMOOTH",
"126 177 OFFCURVE",
"128 194 OFFCURVE",
"130 212 CURVE SMOOTH",
"172 510 LINE SMOOTH",
"187 613 OFFCURVE",
"228 670 OFFCURVE",
"327 670 CURVE SMOOTH",
"409 670 OFFCURVE",
"444 636 OFFCURVE",
"444 561 CURVE SMOOTH",
"444 547 OFFCURVE",
"442 531 OFFCURVE",
"440 514 CURVE SMOOTH",
"398 216 LINE SMOOTH",
"383 112 OFFCURVE",
"332 57 OFFCURVE",
"234 57 CURVE SMOOTH"
);
},
{
closed = 1;
nodes = (
"377 808 LINE",
"517 949 LINE",
"417 949 LINE",
"308 808 LINE"
);
}
);
width = 539;
}
);
leftKerningGroup = O;
rightKerningGroup = O;
unicode = 00D3;
},
{
glyphname = Ocircumflex;
lastChange = "2025-02-19 09:35:11 +0000";
layers = (
{
anchors = (
{
name = bottom;
position = "{230, 0}";
},
{
name = center;
position = "{286, 364}";
},
{
name = ogonek;
position = "{453, 10}";
},
{
name = top;
position = "{363, 949}";
},
{
name = topleft;
position = "{85, 727}";
},
{
name = topright;
position = "{588, 727}";
}
);
layerId = m01;
paths = (
{
closed = 1;
nodes = (
"370 -10 OFFCURVE",
"454 72 OFFCURVE",
"474 214 CURVE SMOOTH",
"515 508 LINE SMOOTH",
"518 528 OFFCURVE",
"519 546 OFFCURVE",
"519 564 CURVE SMOOTH",
"519 677 OFFCURVE",
"459 737 OFFCURVE",
"330 737 CURVE SMOOTH",
"186 737 OFFCURVE",
"117 659 OFFCURVE",
"96 512 CURVE SMOOTH",
"55 218 LINE SMOOTH",
"52 199 OFFCURVE",
"51 182 OFFCURVE",
"51 165 CURVE SMOOTH",
"51 56 OFFCURVE",
"109 -10 OFFCURVE",
"231 -10 CURVE SMOOTH"
);
},
{
closed = 1;
nodes = (
"155 57 OFFCURVE",
"126 91 OFFCURVE",
"126 162 CURVE SMOOTH",
"126 177 OFFCURVE",
"128 194 OFFCURVE",
"130 212 CURVE SMOOTH",
"172 510 LINE SMOOTH",
"187 613 OFFCURVE",
"228 670 OFFCURVE",
"327 670 CURVE SMOOTH",
"409 670 OFFCURVE",
"444 636 OFFCURVE",
"444 561 CURVE SMOOTH",
"444 547 OFFCURVE",
"442 531 OFFCURVE",
"440 514 CURVE SMOOTH",
"398 216 LINE SMOOTH",
"383 112 OFFCURVE",
"332 57 OFFCURVE",
"234 57 CURVE SMOOTH"
);
},
{
closed = 1;
nodes = (
"288 808 LINE",
"357 902 LINE",
"400 808 LINE",
"473 808 LINE",
"403 949 LINE",
"321 949 LINE",
"211 808 LINE"
);
}
);
width = 539;
}
);
leftKerningGroup = O;
rightKerningGroup = O;
unicode = 00D4;
},
{
glyphname = Odieresis;
lastChange = "2025-02-19 09:35:11 +0000";
layers = (
{
anchors = (
{
name = bottom;
position = "{230, 0}";
},
{
name = center;
position = "{286, 364}";
},
{
name = ogonek;
position = "{453, 10}";
},
{
name = top;
position = "{355, 896}";
},
{
name = topleft;
position = "{85, 727}";
},
{
name = topright;
position = "{588, 727}";
}
);
hints = (
{
horizontal = 1;
place = "{798, 48}";
type = Stem;
},
{
place = "{280, 45}";
type = Stem;
},
{
place = "{100, 45}";
type = Stem;
},
{
horizontal = 1;
place = "{798, 48}";
type = Stem;
},
{
place = "{269, 45}";
type = Stem;
},
{
place = "{89, 45}";
type = Stem;
}
);
layerId = m01;
paths = (
{
closed = 1;
nodes = (
"370 -10 OFFCURVE",
"454 72 OFFCURVE",
"474 214 CURVE SMOOTH",
"515 508 LINE SMOOTH",
"518 528 OFFCURVE",
"519 546 OFFCURVE",
"519 564 CURVE SMOOTH",
"519 677 OFFCURVE",
"459 737 OFFCURVE",
"330 737 CURVE SMOOTH",
"186 737 OFFCURVE",
"117 659 OFFCURVE",
"96 512 CURVE SMOOTH",
"55 218 LINE SMOOTH",
"52 199 OFFCURVE",
"51 182 OFFCURVE",
"51 165 CURVE SMOOTH",
"51 56 OFFCURVE",
"109 -10 OFFCURVE",
"231 -10 CURVE SMOOTH"
);
},
{
closed = 1;
nodes = (
"155 57 OFFCURVE",
"126 91 OFFCURVE",
"126 162 CURVE SMOOTH",
"126 177 OFFCURVE",
"128 194 OFFCURVE",
"130 212 CURVE SMOOTH",
"172 510 LINE SMOOTH",
"187 613 OFFCURVE",
"228 670 OFFCURVE",
"327 670 CURVE SMOOTH",
"409 670 OFFCURVE",
"444 636 OFFCURVE",
"444 561 CURVE SMOOTH",
"444 547 OFFCURVE",
"442 531 OFFCURVE",
"440 514 CURVE SMOOTH",
"398 216 LINE SMOOTH",
"383 112 OFFCURVE",
"332 57 OFFCURVE",
"234 57 CURVE SMOOTH"
);
},
{
closed = 1;
nodes = (
"474 813 LINE",
"485 896 LINE",
"405 896 LINE",
"394 813 LINE"
);
},
{
closed = 1;
nodes = (
"294 813 LINE",
"305 896 LINE",
"225 896 LINE",
"214 813 LINE"
);
}
);
width = 539;
}
);
leftKerningGroup = O;
rightKerningGroup = O;
unicode = 00D6;
},
{
glyphname = Ograve;
lastChange = "2025-02-19 09:35:11 +0000";
layers = (
{
anchors = (
{
name = bottom;
position = "{230, 0}";
},
{
name = center;
position = "{286, 364}";
},
{
name = ogonek;
position = "{453, 10}";
},
{
name = top;
position = "{363, 949}";
},
{
name = topleft;
position = "{85, 727}";
},
{
name = topright;
position = "{588, 727}";
}
);
layerId = m01;
paths = (
{
closed = 1;
nodes = (
"370 -10 OFFCURVE",
"454 72 OFFCURVE",
"474 214 CURVE SMOOTH",
"515 508 LINE SMOOTH",
"518 528 OFFCURVE",
"519 546 OFFCURVE",
"519 564 CURVE SMOOTH",
"519 677 OFFCURVE",
"459 737 OFFCURVE",
"330 737 CURVE SMOOTH",
"186 737 OFFCURVE",
"117 659 OFFCURVE",
"96 512 CURVE SMOOTH",
"55 218 LINE SMOOTH",
"52 199 OFFCURVE",
"51 182 OFFCURVE",
"51 165 CURVE SMOOTH",
"51 56 OFFCURVE",
"109 -10 OFFCURVE",
"231 -10 CURVE SMOOTH"
);
},
{
closed = 1;
nodes = (
"155 57 OFFCURVE",
"126 91 OFFCURVE",
"126 162 CURVE SMOOTH",
"126 177 OFFCURVE",
"128 194 OFFCURVE",
"130 212 CURVE SMOOTH",
"172 510 LINE SMOOTH",
"187 613 OFFCURVE",
"228 670 OFFCURVE",
"327 670 CURVE SMOOTH",
"409 670 OFFCURVE",
"444 636 OFFCURVE",
"444 561 CURVE SMOOTH",
"444 547 OFFCURVE",
"442 531 OFFCURVE",
"440 514 CURVE SMOOTH",
"398 216 LINE SMOOTH",
"383 112 OFFCURVE",
"332 57 OFFCURVE",
"234 57 CURVE SMOOTH"
);
},
{
closed = 1;
nodes = (
"376 808 LINE",
"307 949 LINE",
"209 949 LINE",
"311 808 LINE"
);
}
);
width = 539;
}
);
leftKerningGroup = O;
rightKerningGroup = O;
unicode = 00D2;
},
{
glyphname = Ohungarumlaut;
lastChange = "2025-02-19 09:35:11 +0000";
layers = (
{
anchors = (
{
name = bottom;
position = "{230, 0}";
},
{
name = center;
position = "{286, 364}";
},
{
name = ogonek;
position = "{453, 10}";
},
{
name = top;
position = "{397, 949}";
},
{
name = topleft;
position = "{85, 727}";
},
{
name = topright;
position = "{588, 727}";
}
);
hints = (
{
horizontal = 1;
place = "{773, 106}";
type = Stem;
}
);
layerId = m01;
paths = (
{
closed = 1;
nodes = (
"370 -10 OFFCURVE",
"454 72 OFFCURVE",
"474 214 CURVE SMOOTH",
"515 508 LINE SMOOTH",
"518 528 OFFCURVE",
"519 546 OFFCURVE",
"519 564 CURVE SMOOTH",
"519 677 OFFCURVE",
"459 737 OFFCURVE",
"330 737 CURVE SMOOTH",
"186 737 OFFCURVE",
"117 659 OFFCURVE",
"96 512 CURVE SMOOTH",
"55 218 LINE SMOOTH",
"52 199 OFFCURVE",
"51 182 OFFCURVE",
"51 165 CURVE SMOOTH",
"51 56 OFFCURVE",
"109 -10 OFFCURVE",
"231 -10 CURVE SMOOTH"
);
},
{
closed = 1;
nodes = (
"155 57 OFFCURVE",
"126 91 OFFCURVE",
"126 162 CURVE SMOOTH",
"126 177 OFFCURVE",
"128 194 OFFCURVE",
"130 212 CURVE SMOOTH",
"172 510 LINE SMOOTH",
"187 613 OFFCURVE",
"228 670 OFFCURVE",
"327 670 CURVE SMOOTH",
"409 670 OFFCURVE",
"444 636 OFFCURVE",
"444 561 CURVE SMOOTH",
"444 547 OFFCURVE",
"442 531 OFFCURVE",
"440 514 CURVE SMOOTH",
"398 216 LINE SMOOTH",
"383 112 OFFCURVE",
"332 57 OFFCURVE",
"234 57 CURVE SMOOTH"
);
},
{
closed = 1;
nodes = (
"439 808 LINE",
"579 949 LINE",
"479 949 LINE",
"370 808 LINE"
);
},
{
closed = 1;
nodes = (
"292 808 LINE",
"432 949 LINE",
"332 949 LINE",
"223 808 LINE"
);
}
);
width = 539;
}
);
leftKerningGroup = O;
rightKerningGroup = O;
unicode = 0150;
},
{
glyphname = Omacron;
lastChange = "2025-02-19 09:35:11 +0000";
layers = (
{
anchors = (
{
name = bottom;
position = "{230, 0}";
},
{
name = center;
position = "{286, 364}";
},
{
name = ogonek;
position = "{453, 10}";
},
{
name = top;
position = "{352, 869}";
},
{
name = topleft;
position = "{85, 727}";
},
{
name = topright;
position = "{588, 727}";
}
);
hints = (
{
horizontal = 1;
place = "{795, 26}";
type = Stem;
},
{
place = "{127, 172}";
type = Stem;
},
{
horizontal = 1;
place = "{795, 26}";
type = Stem;
},
{
place = "{116, 172}";
type = Stem;
}
);
layerId = m01;
paths = (
{
closed = 1;
nodes = (
"370 -10 OFFCURVE",
"454 72 OFFCURVE",
"474 214 CURVE SMOOTH",
"515 508 LINE SMOOTH",
"518 528 OFFCURVE",
"519 546 OFFCURVE",
"519 564 CURVE SMOOTH",
"519 677 OFFCURVE",
"459 737 OFFCURVE",
"330 737 CURVE SMOOTH",
"186 737 OFFCURVE",
"117 659 OFFCURVE",
"96 512 CURVE SMOOTH",
"55 218 LINE SMOOTH",
"52 199 OFFCURVE",
"51 182 OFFCURVE",
"51 165 CURVE SMOOTH",
"51 56 OFFCURVE",
"109 -10 OFFCURVE",
"231 -10 CURVE SMOOTH"
);
},
{
closed = 1;
nodes = (
"155 57 OFFCURVE",
"126 91 OFFCURVE",
"126 162 CURVE SMOOTH",
"126 177 OFFCURVE",
"128 194 OFFCURVE",
"130 212 CURVE SMOOTH",
"172 510 LINE SMOOTH",
"187 613 OFFCURVE",
"228 670 OFFCURVE",
"327 670 CURVE SMOOTH",
"409 670 OFFCURVE",
"444 636 OFFCURVE",
"444 561 CURVE SMOOTH",
"444 547 OFFCURVE",
"442 531 OFFCURVE",
"440 514 CURVE SMOOTH",
"398 216 LINE SMOOTH",
"383 112 OFFCURVE",
"332 57 OFFCURVE",
"234 57 CURVE SMOOTH"
);
},
{
closed = 1;
nodes = (
"447 808 LINE",
"456 869 LINE",
"248 869 LINE",
"239 808 LINE"
);
}
);
width = 539;
}
);
leftKerningGroup = O;
rightKerningGroup = O;
unicode = 014C;
},
{
color = 10;
glyphname = Oslash;
lastChange = "2025-02-19 09:35:11 +0000";
layers = (
{
anchors = (
{
name = bottom;
position = "{230, 0}";
},
{
name = center;
position = "{286, 364}";
},
{
name = ogonek;
position = "{453, 10}";
},
{
name = top;
position = "{332, 727}";
},
{
name = topleft;
position = "{85, 727}";
},
{
name = topright;
position = "{588, 727}";
}
);
layerId = m01;
paths = (
{
closed = 1;
nodes = (
"61 -50 LINE",
"111 -50 LINE",
"513 777 LINE",
"463 777 LINE"
);
},
{
closed = 1;
nodes = (
"370 -10 OFFCURVE",
"454 72 OFFCURVE",
"474 214 CURVE SMOOTH",
"515 508 LINE SMOOTH",
"518 528 OFFCURVE",
"519 546 OFFCURVE",
"519 564 CURVE SMOOTH",
"519 677 OFFCURVE",
"459 737 OFFCURVE",
"330 737 CURVE SMOOTH",
"186 737 OFFCURVE",
"117 659 OFFCURVE",
"96 512 CURVE SMOOTH",
"55 218 LINE SMOOTH",
"52 199 OFFCURVE",
"51 182 OFFCURVE",
"51 165 CURVE SMOOTH",
"51 56 OFFCURVE",
"109 -10 OFFCURVE",
"231 -10 CURVE SMOOTH"
);
},
{
closed = 1;
nodes = (
"155 57 OFFCURVE",
"126 91 OFFCURVE",
"126 162 CURVE SMOOTH",
"126 177 OFFCURVE",
"128 194 OFFCURVE",
"130 212 CURVE SMOOTH",
"172 510 LINE SMOOTH",
"187 613 OFFCURVE",
"228 670 OFFCURVE",
"327 670 CURVE SMOOTH",
"409 670 OFFCURVE",
"444 636 OFFCURVE",
"444 561 CURVE SMOOTH",
"444 547 OFFCURVE",
"442 531 OFFCURVE",
"440 514 CURVE SMOOTH",
"398 216 LINE SMOOTH",
"383 112 OFFCURVE",
"332 57 OFFCURVE",
"234 57 CURVE SMOOTH"
);
}
);
width = 539;
}
);
leftKerningGroup = O;
leftMetricsKey = O;
rightKerningGroup = O;
rightMetricsKey = O;
unicode = 00D8;
},
{
glyphname = Otilde;
lastChange = "2025-02-19 09:35:14 +0000";
layers = (
{
anchors = (
{
name = bottom;
position = "{230, 0}";
},
{
name = center;
position = "{286, 364}";
},
{
name = ogonek;
position = "{453, 10}";
},
{
name = top;
position = "{359, 924}";
},
{
name = topleft;
position = "{85, 727}";
},
{
name = topright;
position = "{588, 727}";
}
);
layerId = m01;
paths = (
{
closed = 1;
nodes = (
"370 -10 OFFCURVE",
"454 72 OFFCURVE",
"474 214 CURVE SMOOTH",
"515 508 LINE SMOOTH",
"518 528 OFFCURVE",
"519 546 OFFCURVE",
"519 564 CURVE SMOOTH",
"519 677 OFFCURVE",
"459 737 OFFCURVE",
"330 737 CURVE SMOOTH",
"186 737 OFFCURVE",
"117 659 OFFCURVE",
"96 512 CURVE SMOOTH",
"55 218 LINE SMOOTH",
"52 199 OFFCURVE",
"51 182 OFFCURVE",
"51 165 CURVE SMOOTH",
"51 56 OFFCURVE",
"109 -10 OFFCURVE",
"231 -10 CURVE SMOOTH"
);
},
{
closed = 1;
nodes = (
"239 806 LINE",
"245 831 OFFCURVE",
"269 853 OFFCURVE",
"295 853 CURVE SMOOTH",
"330 853 OFFCURVE",
"352 815 OFFCURVE",
"399 815 CURVE SMOOTH",
"425 815 OFFCURVE",
"448 825 OFFCURVE",
"469 845 CURVE",
"488 865 OFFCURVE",
"502 893 OFFCURVE",
"509 922 CURVE",
"458 926 LINE",
"450 896 OFFCURVE",
"434 879 OFFCURVE",
"405 879 CURVE SMOOTH",
"365 879 OFFCURVE",
"360 916 OFFCURVE",
"304 916 CURVE SMOOTH",
"247 916 OFFCURVE",
"210 879 OFFCURVE",
"193 810 CURVE"
);
},
{
closed = 1;
nodes = (
"172 510 LINE SMOOTH",
"187 613 OFFCURVE",
"228 670 OFFCURVE",
"327 670 CURVE SMOOTH",
"409 670 OFFCURVE",
"444 636 OFFCURVE",
"444 561 CURVE SMOOTH",
"444 547 OFFCURVE",
"442 531 OFFCURVE",
"440 514 CURVE SMOOTH",
"398 216 LINE SMOOTH",
"383 112 OFFCURVE",
"332 57 OFFCURVE",
"234 57 CURVE SMOOTH",
"155 57 OFFCURVE",
"126 91 OFFCURVE",
"126 162 CURVE SMOOTH",
"126 177 OFFCURVE",
"128 194 OFFCURVE",
"130 212 CURVE SMOOTH"
);
}
);
width = 539;
}
);
leftKerningGroup = O;
rightKerningGroup = O;
unicode = 00D5;
},
{
color = 10;
glyphname = OE;
lastChange = "2025-02-19 09:35:11 +0000";
layers = (
{
background = {
paths = (
{
closed = 1;
nodes = (
"333 -10 OFFCURVE",
"378 16 OFFCURVE",
"403 64 CURVE",
"403 0 LINE",
"763 0 LINE",
"763 70 LINE",
"479 70 LINE",
"479 336 LINE",
"736 336 LINE",
"736 406 LINE",
"479 406 LINE",
"479 657 LINE",
"760 657 LINE",
"760 727 LINE",
"403 727 LINE",
"403 670 LINE",
"379 714 OFFCURVE",
"335 737 OFFCURVE",
"255 737 CURVE SMOOTH",
"119 737 OFFCURVE",
"60 657 OFFCURVE",
"60 510 CURVE SMOOTH",
"60 216 LINE SMOOTH",
"60 75 OFFCURVE",
"125 -10 OFFCURVE",
"255 -10 CURVE SMOOTH"
);
},
{
closed = 1;
nodes = (
"136 512 LINE SMOOTH",
"136 615 OFFCURVE",
"168 670 OFFCURVE",
"265 670 CURVE SMOOTH",
"365 670 OFFCURVE",
"403 620 OFFCURVE",
"403 512 CURVE SMOOTH",
"403 214 LINE SMOOTH",
"403 110 OFFCURVE",
"361 57 OFFCURVE",
"265 57 CURVE SMOOTH",
"167 57 OFFCURVE",
"136 110 OFFCURVE",
"136 214 CURVE SMOOTH"
);
},
{
closed = 1;
nodes = (
"390 667 LINE",
"419 667 LINE",
"419 680 LINE",
"390 680 LINE"
);
},
{
closed = 1;
nodes = (
"390 54 LINE",
"419 54 LINE",
"419 67 LINE",
"390 67 LINE"
);
}
);
};
layerId = m01;
paths = (
{
closed = 1;
nodes = (
"295 -10 OFFCURVE",
"343 10 OFFCURVE",
"376 52 CURVE",
"367 0 LINE",
"728 0 LINE",
"737 70 LINE",
"453 70 LINE",
"491 336 LINE",
"748 336 LINE",
"758 406 LINE",
"501 406 LINE",
"536 657 LINE",
"817 657 LINE",
"827 727 LINE",
"470 727 LINE",
"462 678 LINE",
"441 715 OFFCURVE",
"399 737 OFFCURVE",
"320 737 CURVE SMOOTH",
"186 737 OFFCURVE",
"117 659 OFFCURVE",
"96 512 CURVE SMOOTH",
"55 218 LINE SMOOTH",
"52 199 OFFCURVE",
"51 181 OFFCURVE",
"51 165 CURVE SMOOTH",
"51 55 OFFCURVE",
"107 -10 OFFCURVE",
"221 -10 CURVE SMOOTH"
);
},
{
closed = 1;
nodes = (
"172 510 LINE SMOOTH",
"187 613 OFFCURVE",
"228 670 OFFCURVE",
"327 670 CURVE SMOOTH",
"409 670 OFFCURVE",
"444 636 OFFCURVE",
"444 561 CURVE SMOOTH",
"444 547 OFFCURVE",
"442 531 OFFCURVE",
"440 514 CURVE SMOOTH",
"398 216 LINE SMOOTH",
"383 112 OFFCURVE",
"332 57 OFFCURVE",
"234 57 CURVE SMOOTH",
"155 57 OFFCURVE",
"126 91 OFFCURVE",
"126 162 CURVE SMOOTH",
"126 177 OFFCURVE",
"128 194 OFFCURVE",
"130 212 CURVE SMOOTH"
);
}
);
width = 808;
}
);
leftKerningGroup = O;
leftMetricsKey = O;
rightMetricsKey = E;
unicode = 0152;
},
{
color = 10;
glyphname = P;
lastChange = "2025-02-19 09:35:11 +0000";
layers = (
{
anchors = (
{
name = bottom;
position = "{207, 0}";
},
{
name = top;
position = "{309, 727}";
}
);
layerId = m01;
paths = (
{
closed = 1;
nodes = (
"116 0 LINE",
"161 323 LINE",
"277 323 LINE SMOOTH",
"406 323 OFFCURVE",
"477 387 OFFCURVE",
"495 519 CURVE SMOOTH",
"498 537 OFFCURVE",
"499 554 OFFCURVE",
"499 570 CURVE SMOOTH",
"499 674 OFFCURVE",
"442 727 OFFCURVE",
"332 727 CURVE SMOOTH",
"142 727 LINE",
"40 0 LINE"
);
},
{
closed = 1;
nodes = (
"208 656 LINE",
"302 656 LINE SMOOTH",
"385 656 OFFCURVE",
"423 627 OFFCURVE",
"423 560 CURVE SMOOTH",
"423 550 OFFCURVE",
"422 538 OFFCURVE",
"420 526 CURVE SMOOTH",
"407 432 OFFCURVE",
"359 394 OFFCURVE",
"262 394 CURVE SMOOTH",
"171 394 LINE"
);
}
);
vertWidth = 1200;
width = 488;
}
);
leftMetricsKey = H;
note = P;
rightKerningGroup = P;
rightMetricsKey = L;
unicode = 0050;
},
{
color = 10;
glyphname = Thorn;
lastChange = "2025-02-19 09:35:11 +0000";
layers = (
{
layerId = m01;
paths = (
{
closed = 1;
nodes = (
"116 0 LINE",
"138 163 LINE",
"255 163 LINE SMOOTH",
"384 163 OFFCURVE",
"454 227 OFFCURVE",
"473 359 CURVE SMOOTH",
"475 377 OFFCURVE",
"477 393 OFFCURVE",
"477 408 CURVE SMOOTH",
"477 514 OFFCURVE",
"420 567 OFFCURVE",
"310 567 CURVE SMOOTH",
"119 567 LINE",
"40 0 LINE"
);
},
{
closed = 1;
nodes = (
"185 496 LINE",
"280 496 LINE SMOOTH",
"363 496 OFFCURVE",
"401 467 OFFCURVE",
"401 400 CURVE SMOOTH",
"401 390 OFFCURVE",
"400 378 OFFCURVE",
"398 366 CURVE SMOOTH",
"385 272 OFFCURVE",
"337 234 OFFCURVE",
"240 234 CURVE SMOOTH",
"148 234 LINE"
);
},
{
closed = 1;
nodes = (
"103 452 LINE",
"179 452 LINE",
"218 727 LINE",
"142 727 LINE"
);
}
);
width = 488;
}
);
leftMetricsKey = H;
rightKerningGroup = P;
rightMetricsKey = L;
unicode = 00DE;
},
{
color = 10;
glyphname = Q;
lastChange = "2025-02-19 09:35:14 +0000";
layers = (
{
anchors = (
{
name = bottom;
position = "{236, 0}";
},
{
name = top;
position = "{338, 727}";
}
);
layerId = m01;
paths = (
{
closed = 1;
nodes = (
"351 0 OFFCURVE",
"456 92 OFFCURVE",
"476 234 CURVE SMOOTH",
"515 508 LINE SMOOTH",
"518 528 OFFCURVE",
"519 546 OFFCURVE",
"519 564 CURVE SMOOTH",
"519 677 OFFCURVE",
"459 737 OFFCURVE",
"330 737 CURVE SMOOTH",
"186 737 OFFCURVE",
"117 659 OFFCURVE",
"96 512 CURVE SMOOTH",
"57 228 LINE SMOOTH",
"54 209 OFFCURVE",
"53 191 OFFCURVE",
"53 175 CURVE SMOOTH",
"53 65 OFFCURVE",
"110 0 OFFCURVE",
"233 0 CURVE SMOOTH"
);
},
{
closed = 1;
nodes = (
"157 67 OFFCURVE",
"128 101 OFFCURVE",
"128 170 CURVE SMOOTH",
"128 185 OFFCURVE",
"129 203 OFFCURVE",
"132 222 CURVE SMOOTH",
"172 510 LINE SMOOTH",
"187 613 OFFCURVE",
"228 670 OFFCURVE",
"327 670 CURVE SMOOTH",
"409 670 OFFCURVE",
"444 636 OFFCURVE",
"444 561 CURVE SMOOTH",
"444 547 OFFCURVE",
"442 531 OFFCURVE",
"440 514 CURVE SMOOTH",
"399 226 LINE SMOOTH",
"385 122 OFFCURVE",
"333 67 OFFCURVE",
"236 67 CURVE SMOOTH"
);
},
{
closed = 1;
nodes = (
"494 0 LINE",
"500 65 LINE",
"466 65 OFFCURVE",
"413 59 OFFCURVE",
"365 47 CURVE",
"231 0 LINE"
);
}
);
vertWidth = 1200;
width = 558;
}
);
leftKerningGroup = O;
leftMetricsKey = O;
note = Q;
rightMetricsKey = L;
unicode = 0051;
},
{
color = 10;
glyphname = R;
lastChange = "2025-02-19 09:35:11 +0000";
layers = (
{
anchors = (
{
name = bottom;
position = "{238, 0}";
},
{
name = top;
position = "{313, 727}";
}
);
background = {
paths = (
{
closed = 1;
nodes = (
"218 333 LINE",
"302 333 OFFCURVE",
"340 319 OFFCURVE",
"353 281 CURVE SMOOTH",
"360 255 OFFCURVE",
"364 225 OFFCURVE",
"369 149 CURVE SMOOTH",
"374 59 OFFCURVE",
"378 27 OFFCURVE",
"389 0 CURVE",
"476 0 LINE",
"458 42 OFFCURVE",
"452 71 OFFCURVE",
"450 129 CURVE SMOOTH",
"444 324 OFFCURVE",
"430 356 OFFCURVE",
"338 376 CURVE"
);
},
{
closed = 1;
nodes = (
"151 0 LINE",
"151 371 LINE",
"266 371 LINE SMOOTH",
"375 371 OFFCURVE",
"458 389 OFFCURVE",
"458 523 CURVE SMOOTH",
"458 659 OFFCURVE",
"393 727 OFFCURVE",
"267 727 CURVE SMOOTH",
"75 727 LINE",
"75 0 LINE"
);
},
{
closed = 1;
nodes = (
"151 656 LINE",
"244 656 LINE SMOOTH",
"340 656 OFFCURVE",
"382 616 OFFCURVE",
"382 522 CURVE SMOOTH",
"382 430 OFFCURVE",
"341 394 OFFCURVE",
"244 394 CURVE SMOOTH",
"151 394 LINE"
);
},
{
closed = 1;
nodes = (
"144 333 LINE",
"337 333 LINE",
"337 382 LINE",
"144 382 LINE"
);
}
);
};
layerId = m01;
paths = (
{
closed = 1;
nodes = (
"116 0 LINE",
"162 333 LINE",
"231 333 LINE SMOOTH",
"315 333 OFFCURVE",
"350 321 OFFCURVE",
"358 285 CURVE",
"359 273 OFFCURVE",
"360 261 OFFCURVE",
"360 246 CURVE SMOOTH",
"360 225 OFFCURVE",
"359 196 OFFCURVE",
"355 153 CURVE SMOOTH",
"351 105 OFFCURVE",
"349 74 OFFCURVE",
"349 51 CURVE SMOOTH",
"349 29 OFFCURVE",
"351 15 OFFCURVE",
"354 2 CURVE",
"440 -2 LINE",
"432 25 OFFCURVE",
"429 47 OFFCURVE",
"429 73 CURVE SMOOTH",
"429 88 OFFCURVE",
"430 105 OFFCURVE",
"432 125 CURVE SMOOTH",
"438 180 OFFCURVE",
"442 223 OFFCURVE",
"442 256 CURVE SMOOTH",
"442 340 OFFCURVE",
"419 361 OFFCURVE",
"357 375 CURVE",
"430 387 OFFCURVE",
"482 420 OFFCURVE",
"495 519 CURVE SMOOTH",
"498 537 OFFCURVE",
"499 554 OFFCURVE",
"499 570 CURVE SMOOTH",
"499 674 OFFCURVE",
"442 727 OFFCURVE",
"332 727 CURVE SMOOTH",
"142 727 LINE",
"40 0 LINE"
);
},
{
closed = 1;
nodes = (
"208 656 LINE",
"302 656 LINE SMOOTH",
"385 656 OFFCURVE",
"423 627 OFFCURVE",
"423 560 CURVE SMOOTH",
"423 550 OFFCURVE",
"422 538 OFFCURVE",
"420 526 CURVE SMOOTH",
"407 432 OFFCURVE",
"359 394 OFFCURVE",
"262 394 CURVE SMOOTH",
"171 394 LINE"
);
}
);
vertWidth = 1200;
width = 536;
}
);
leftMetricsKey = H;
note = R;
rightKerningGroup = R;
rightMetricsKey = O;
unicode = 0052;
},
{
glyphname = Racute;
lastChange = "2025-02-19 09:35:11 +0000";
layers = (
{
anchors = (
{
name = bottom;
position = "{238, 0}";
},
{
name = top;
position = "{344, 949}";
}
);
layerId = m01;
paths = (
{
closed = 1;
nodes = (
"116 0 LINE",
"162 333 LINE",
"231 333 LINE SMOOTH",
"315 333 OFFCURVE",
"350 321 OFFCURVE",
"358 285 CURVE",
"359 273 OFFCURVE",
"360 261 OFFCURVE",
"360 246 CURVE SMOOTH",
"360 225 OFFCURVE",
"359 196 OFFCURVE",
"355 153 CURVE SMOOTH",
"351 105 OFFCURVE",
"349 74 OFFCURVE",
"349 51 CURVE SMOOTH",
"349 29 OFFCURVE",
"351 15 OFFCURVE",
"354 2 CURVE",
"440 -2 LINE",
"432 25 OFFCURVE",
"429 47 OFFCURVE",
"429 73 CURVE SMOOTH",
"429 88 OFFCURVE",
"430 105 OFFCURVE",
"432 125 CURVE SMOOTH",
"438 180 OFFCURVE",
"442 223 OFFCURVE",
"442 256 CURVE SMOOTH",
"442 340 OFFCURVE",
"419 361 OFFCURVE",
"357 375 CURVE",
"430 387 OFFCURVE",
"482 420 OFFCURVE",
"495 519 CURVE SMOOTH",
"498 537 OFFCURVE",
"499 554 OFFCURVE",
"499 570 CURVE SMOOTH",
"499 674 OFFCURVE",
"442 727 OFFCURVE",
"332 727 CURVE SMOOTH",
"142 727 LINE",
"40 0 LINE"
);
},
{
closed = 1;
nodes = (
"208 656 LINE",
"302 656 LINE SMOOTH",
"385 656 OFFCURVE",
"423 627 OFFCURVE",
"423 560 CURVE SMOOTH",
"423 550 OFFCURVE",
"422 538 OFFCURVE",
"420 526 CURVE SMOOTH",
"407 432 OFFCURVE",
"359 394 OFFCURVE",
"262 394 CURVE SMOOTH",
"171 394 LINE"
);
},
{
closed = 1;
nodes = (
"358 808 LINE",
"498 949 LINE",
"398 949 LINE",
"289 808 LINE"
);
}
);
width = 536;
}
);
rightKerningGroup = R;
unicode = 0154;
},
{
glyphname = Rcaron;
lastChange = "2025-02-19 09:35:11 +0000";
layers = (
{
anchors = (
{
name = bottom;
position = "{238, 0}";
},
{
name = top;
position = "{344, 949}";
}
);
hints = (
{
horizontal = 1;
place = "{773, 106}";
type = Stem;
},
{
place = "{65, 257}";
type = Stem;
}
);
layerId = m01;
paths = (
{
closed = 1;
nodes = (
"116 0 LINE",
"162 333 LINE",
"231 333 LINE SMOOTH",
"315 333 OFFCURVE",
"350 321 OFFCURVE",
"358 285 CURVE",
"359 273 OFFCURVE",
"360 261 OFFCURVE",
"360 246 CURVE SMOOTH",
"360 225 OFFCURVE",
"359 196 OFFCURVE",
"355 153 CURVE SMOOTH",
"351 105 OFFCURVE",
"349 74 OFFCURVE",
"349 51 CURVE SMOOTH",
"349 29 OFFCURVE",
"351 15 OFFCURVE",
"354 2 CURVE",
"440 -2 LINE",
"432 25 OFFCURVE",
"429 47 OFFCURVE",
"429 73 CURVE SMOOTH",
"429 88 OFFCURVE",
"430 105 OFFCURVE",
"432 125 CURVE SMOOTH",
"438 180 OFFCURVE",
"442 223 OFFCURVE",
"442 256 CURVE SMOOTH",
"442 340 OFFCURVE",
"419 361 OFFCURVE",
"357 375 CURVE",
"430 387 OFFCURVE",
"482 420 OFFCURVE",
"495 519 CURVE SMOOTH",
"498 537 OFFCURVE",
"499 554 OFFCURVE",
"499 570 CURVE SMOOTH",
"499 674 OFFCURVE",
"442 727 OFFCURVE",
"332 727 CURVE SMOOTH",
"142 727 LINE",
"40 0 LINE"
);
},
{
closed = 1;
nodes = (
"208 656 LINE",
"302 656 LINE SMOOTH",
"385 656 OFFCURVE",
"423 627 OFFCURVE",
"423 560 CURVE SMOOTH",
"423 550 OFFCURVE",
"422 538 OFFCURVE",
"420 526 CURVE SMOOTH",
"407 432 OFFCURVE",
"359 394 OFFCURVE",
"262 394 CURVE SMOOTH",
"171 394 LINE"
);
},
{
closed = 1;
nodes = (
"399 949 LINE",
"330 855 LINE",
"287 949 LINE",
"213 949 LINE",
"284 808 LINE",
"366 808 LINE",
"475 949 LINE"
);
}
);
width = 536;
}
);
rightKerningGroup = R;
unicode = 0158;
},
{
glyphname = Rcommaaccent;
lastChange = "2025-02-19 09:35:11 +0000";
layers = (
{
anchors = (
{
name = bottom;
position = "{187, -231}";
},
{
name = top;
position = "{313, 727}";
}
);
layerId = m01;
paths = (
{
closed = 1;
nodes = (
"116 0 LINE",
"162 333 LINE",
"231 333 LINE SMOOTH",
"315 333 OFFCURVE",
"350 321 OFFCURVE",
"358 285 CURVE",
"359 273 OFFCURVE",
"360 261 OFFCURVE",
"360 246 CURVE SMOOTH",
"360 225 OFFCURVE",
"359 196 OFFCURVE",
"355 153 CURVE SMOOTH",
"351 105 OFFCURVE",
"349 74 OFFCURVE",
"349 51 CURVE SMOOTH",
"349 29 OFFCURVE",
"351 15 OFFCURVE",
"354 2 CURVE",
"440 -2 LINE",
"432 25 OFFCURVE",
"429 47 OFFCURVE",
"429 73 CURVE SMOOTH",
"429 88 OFFCURVE",
"430 105 OFFCURVE",
"432 125 CURVE SMOOTH",
"438 180 OFFCURVE",
"442 223 OFFCURVE",
"442 256 CURVE SMOOTH",
"442 340 OFFCURVE",
"419 361 OFFCURVE",
"357 375 CURVE",
"430 387 OFFCURVE",
"482 420 OFFCURVE",
"495 519 CURVE SMOOTH",
"498 537 OFFCURVE",
"499 554 OFFCURVE",
"499 570 CURVE SMOOTH",
"499 674 OFFCURVE",
"442 727 OFFCURVE",
"332 727 CURVE SMOOTH",
"142 727 LINE",
"40 0 LINE"
);
},
{
closed = 1;
nodes = (
"208 656 LINE",
"302 656 LINE SMOOTH",
"385 656 OFFCURVE",
"423 627 OFFCURVE",
"423 560 CURVE SMOOTH",
"423 550 OFFCURVE",
"422 538 OFFCURVE",
"420 526 CURVE SMOOTH",
"407 432 OFFCURVE",
"359 394 OFFCURVE",
"262 394 CURVE SMOOTH",
"171 394 LINE"
);
},
{
closed = 1;
nodes = (
"182 -231 LINE",
"269 -65 LINE",
"188 -65 LINE",
"128 -231 LINE"
);
}
);
width = 536;
}
);
rightKerningGroup = R;
unicode = 0156;
},
{
color = 10;
glyphname = S;
lastChange = "2025-02-19 09:35:14 +0000";
layers = (
{
anchors = (
{
name = bottom;
position = "{228, 0}";
},
{
name = top;
position = "{330, 727}";
}
);
layerId = m01;
paths = (
{
closed = 1;
nodes = (
"359 -10 OFFCURVE",
"445 58 OFFCURVE",
"462 182 CURVE SMOOTH",
"464 194 OFFCURVE",
"464 205 OFFCURVE",
"464 215 CURVE SMOOTH",
"464 412 OFFCURVE",
"183 395 OFFCURVE",
"183 539 CURVE SMOOTH",
"183 544 OFFCURVE",
"183 549 OFFCURVE",
"184 555 CURVE SMOOTH",
"194 626 OFFCURVE",
"250 670 OFFCURVE",
"326 670 CURVE SMOOTH",
"395 670 OFFCURVE",
"429 638 OFFCURVE",
"429 573 CURVE SMOOTH",
"429 563 OFFCURVE",
"429 553 OFFCURVE",
"427 541 CURVE SMOOTH",
"423 519 LINE",
"505 519 LINE",
"508 538 LINE SMOOTH",
"511 556 OFFCURVE",
"513 572 OFFCURVE",
"513 588 CURVE SMOOTH",
"513 687 OFFCURVE",
"445 737 OFFCURVE",
"329 737 CURVE SMOOTH",
"208 737 OFFCURVE",
"125 671 OFFCURVE",
"109 555 CURVE",
"107 544 OFFCURVE",
"107 534 OFFCURVE",
"107 524 CURVE SMOOTH",
"107 334 OFFCURVE",
"387 346 OFFCURVE",
"387 201 CURVE SMOOTH",
"387 195 OFFCURVE",
"387 189 OFFCURVE",
"386 183 CURVE SMOOTH",
"375 105 OFFCURVE",
"314 57 OFFCURVE",
"228 57 CURVE SMOOTH",
"152 57 OFFCURVE",
"118 88 OFFCURVE",
"118 160 CURVE SMOOTH",
"118 174 OFFCURVE",
"120 190 OFFCURVE",
"122 207 CURVE SMOOTH",
"126 239 LINE",
"45 239 LINE",
"38 200 LINE",
"36 184 OFFCURVE",
"35 169 OFFCURVE",
"35 155 CURVE SMOOTH",
"35 44 OFFCURVE",
"100 -10 OFFCURVE",
"227 -10 CURVE SMOOTH"
);
}
);
vertWidth = 1200;
width = 517;
}
);
leftKerningGroup = S;
note = S;
rightKerningGroup = S;
unicode = 0053;
},
{
glyphname = Sacute;
lastChange = "2025-02-19 09:35:14 +0000";
layers = (
{
anchors = (
{
name = bottom;
position = "{228, 0}";
},
{
name = top;
position = "{361, 949}";
}
);
layerId = m01;
paths = (
{
closed = 1;
nodes = (
"359 -10 OFFCURVE",
"445 58 OFFCURVE",
"462 182 CURVE SMOOTH",
"464 194 OFFCURVE",
"464 205 OFFCURVE",
"464 215 CURVE SMOOTH",
"464 412 OFFCURVE",
"183 395 OFFCURVE",
"183 539 CURVE SMOOTH",
"183 544 OFFCURVE",
"183 549 OFFCURVE",
"184 555 CURVE SMOOTH",
"194 626 OFFCURVE",
"250 670 OFFCURVE",
"326 670 CURVE SMOOTH",
"395 670 OFFCURVE",
"429 638 OFFCURVE",
"429 573 CURVE SMOOTH",
"429 563 OFFCURVE",
"429 553 OFFCURVE",
"427 541 CURVE SMOOTH",
"423 519 LINE",
"505 519 LINE",
"508 538 LINE SMOOTH",
"511 556 OFFCURVE",
"513 572 OFFCURVE",
"513 588 CURVE SMOOTH",
"513 687 OFFCURVE",
"445 737 OFFCURVE",
"329 737 CURVE SMOOTH",
"208 737 OFFCURVE",
"125 671 OFFCURVE",
"109 555 CURVE",
"107 544 OFFCURVE",
"107 534 OFFCURVE",
"107 524 CURVE SMOOTH",
"107 334 OFFCURVE",
"387 346 OFFCURVE",
"387 201 CURVE SMOOTH",
"387 195 OFFCURVE",
"387 189 OFFCURVE",
"386 183 CURVE SMOOTH",
"375 105 OFFCURVE",
"314 57 OFFCURVE",
"228 57 CURVE SMOOTH",
"152 57 OFFCURVE",
"118 88 OFFCURVE",
"118 160 CURVE SMOOTH",
"118 174 OFFCURVE",
"120 190 OFFCURVE",
"122 207 CURVE SMOOTH",
"126 239 LINE",
"45 239 LINE",
"38 200 LINE",
"36 184 OFFCURVE",
"35 169 OFFCURVE",
"35 155 CURVE SMOOTH",
"35 44 OFFCURVE",
"100 -10 OFFCURVE",
"227 -10 CURVE SMOOTH"
);
},
{
closed = 1;
nodes = (
"375 808 LINE",
"515 949 LINE",
"415 949 LINE",
"306 808 LINE"
);
}
);
width = 517;
}
);
leftKerningGroup = S;
rightKerningGroup = S;
unicode = 015A;
},
{
glyphname = Scaron;
lastChange = "2025-02-19 09:35:14 +0000";
layers = (
{
anchors = (
{
name = bottom;
position = "{228, 0}";
},
{
name = top;
position = "{361, 949}";
}
);
hints = (
{
horizontal = 1;
place = "{773, 106}";
type = Stem;
},
{
place = "{82, 257}";
type = Stem;
}
);
layerId = m01;
paths = (
{
closed = 1;
nodes = (
"359 -10 OFFCURVE",
"445 58 OFFCURVE",
"462 182 CURVE SMOOTH",
"464 194 OFFCURVE",
"464 205 OFFCURVE",
"464 215 CURVE SMOOTH",
"464 412 OFFCURVE",
"183 395 OFFCURVE",
"183 539 CURVE SMOOTH",
"183 544 OFFCURVE",
"183 549 OFFCURVE",
"184 555 CURVE SMOOTH",
"194 626 OFFCURVE",
"250 670 OFFCURVE",
"326 670 CURVE SMOOTH",
"395 670 OFFCURVE",
"429 638 OFFCURVE",
"429 573 CURVE SMOOTH",
"429 563 OFFCURVE",
"429 553 OFFCURVE",
"427 541 CURVE SMOOTH",
"423 519 LINE",
"505 519 LINE",
"508 538 LINE SMOOTH",
"511 556 OFFCURVE",
"513 572 OFFCURVE",
"513 588 CURVE SMOOTH",
"513 687 OFFCURVE",
"445 737 OFFCURVE",
"329 737 CURVE SMOOTH",
"208 737 OFFCURVE",
"125 671 OFFCURVE",
"109 555 CURVE",
"107 544 OFFCURVE",
"107 534 OFFCURVE",
"107 524 CURVE SMOOTH",
"107 334 OFFCURVE",
"387 346 OFFCURVE",
"387 201 CURVE SMOOTH",
"387 195 OFFCURVE",
"387 189 OFFCURVE",
"386 183 CURVE SMOOTH",
"375 105 OFFCURVE",
"314 57 OFFCURVE",
"228 57 CURVE SMOOTH",
"152 57 OFFCURVE",
"118 88 OFFCURVE",
"118 160 CURVE SMOOTH",
"118 174 OFFCURVE",
"120 190 OFFCURVE",
"122 207 CURVE SMOOTH",
"126 239 LINE",
"45 239 LINE",
"38 200 LINE",
"36 184 OFFCURVE",
"35 169 OFFCURVE",
"35 155 CURVE SMOOTH",
"35 44 OFFCURVE",
"100 -10 OFFCURVE",
"227 -10 CURVE SMOOTH"
);
},
{
closed = 1;
nodes = (
"301 808 LINE",
"383 808 LINE",
"492 949 LINE",
"416 949 LINE",
"347 855 LINE",
"304 949 LINE",
"230 949 LINE"
);
}
);
width = 517;
}
);
leftKerningGroup = S;
rightKerningGroup = S;
unicode = 0160;
},
{
glyphname = Scedilla;
lastChange = "2025-02-19 09:35:14 +0000";
layers = (
{
anchors = (
{
name = bottom;
position = "{185, -225}";
},
{
name = top;
position = "{330, 727}";
}
);
hints = (
{
place = "{248, 41}";
type = Stem;
}
);
layerId = m01;
paths = (
{
closed = 1;
nodes = (
"199 -80 OFFCURVE",
"210 -76 OFFCURVE",
"222 -76 CURVE SMOOTH",
"244 -76 OFFCURVE",
"263 -89 OFFCURVE",
"263 -114 CURVE SMOOTH",
"263 -146 OFFCURVE",
"234 -182 OFFCURVE",
"191 -182 CURVE SMOOTH",
"167 -182 OFFCURVE",
"143 -173 OFFCURVE",
"133 -157 CURVE",
"99 -183 LINE",
"120 -212 OFFCURVE",
"155 -227 OFFCURVE",
"193 -227 CURVE SMOOTH",
"253 -227 OFFCURVE",
"316 -189 OFFCURVE",
"316 -116 CURVE SMOOTH",
"316 -62 OFFCURVE",
"277 -36 OFFCURVE",
"233 -35 CURVE",
"253 -9 LINE",
"370 0 OFFCURVE",
"446 67 OFFCURVE",
"462 182 CURVE SMOOTH",
"464 194 OFFCURVE",
"464 205 OFFCURVE",
"464 215 CURVE SMOOTH",
"464 412 OFFCURVE",
"183 395 OFFCURVE",
"183 539 CURVE SMOOTH",
"183 544 OFFCURVE",
"183 549 OFFCURVE",
"184 555 CURVE SMOOTH",
"194 626 OFFCURVE",
"250 670 OFFCURVE",
"326 670 CURVE SMOOTH",
"395 670 OFFCURVE",
"429 638 OFFCURVE",
"429 573 CURVE SMOOTH",
"429 563 OFFCURVE",
"429 553 OFFCURVE",
"427 541 CURVE SMOOTH",
"423 519 LINE",
"505 519 LINE",
"508 538 LINE SMOOTH",
"511 556 OFFCURVE",
"513 572 OFFCURVE",
"513 588 CURVE SMOOTH",
"513 687 OFFCURVE",
"445 737 OFFCURVE",
"329 737 CURVE SMOOTH",
"208 737 OFFCURVE",
"125 671 OFFCURVE",
"109 555 CURVE",
"107 544 OFFCURVE",
"107 534 OFFCURVE",
"107 524 CURVE SMOOTH",
"107 334 OFFCURVE",
"387 346 OFFCURVE",
"387 201 CURVE SMOOTH",
"387 195 OFFCURVE",
"387 189 OFFCURVE",
"386 183 CURVE SMOOTH",
"375 105 OFFCURVE",
"314 57 OFFCURVE",
"228 57 CURVE SMOOTH",
"152 57 OFFCURVE",
"118 88 OFFCURVE",
"118 160 CURVE SMOOTH",
"118 174 OFFCURVE",
"120 190 OFFCURVE",
"122 207 CURVE SMOOTH",
"126 239 LINE",
"45 239 LINE",
"38 200 LINE",
"36 184 OFFCURVE",
"35 168 OFFCURVE",
"35 154 CURVE SMOOTH",
"35 54 OFFCURVE",
"89 0 OFFCURVE",
"194 -9 CURVE",
"156 -65 LINE",
"189 -86 LINE"
);
}
);
width = 517;
}
);
leftKerningGroup = S;
rightKerningGroup = S;
unicode = 015E;
},
{
glyphname = Scommaaccent;
lastChange = "2025-02-19 09:35:14 +0000";
layers = (
{
anchors = (
{
name = bottom;
position = "{177, -231}";
},
{
name = top;
position = "{330, 727}";
}
);
layerId = m01;
paths = (
{
closed = 1;
nodes = (
"359 -10 OFFCURVE",
"445 58 OFFCURVE",
"462 182 CURVE SMOOTH",
"464 194 OFFCURVE",
"464 205 OFFCURVE",
"464 215 CURVE SMOOTH",
"464 412 OFFCURVE",
"183 395 OFFCURVE",
"183 539 CURVE SMOOTH",
"183 544 OFFCURVE",
"183 549 OFFCURVE",
"184 555 CURVE SMOOTH",
"194 626 OFFCURVE",
"250 670 OFFCURVE",
"326 670 CURVE SMOOTH",
"395 670 OFFCURVE",
"429 638 OFFCURVE",
"429 573 CURVE SMOOTH",
"429 563 OFFCURVE",
"429 553 OFFCURVE",
"427 541 CURVE SMOOTH",
"423 519 LINE",
"505 519 LINE",
"508 538 LINE SMOOTH",
"511 556 OFFCURVE",
"513 572 OFFCURVE",
"513 588 CURVE SMOOTH",
"513 687 OFFCURVE",
"445 737 OFFCURVE",
"329 737 CURVE SMOOTH",
"208 737 OFFCURVE",
"125 671 OFFCURVE",
"109 555 CURVE",
"107 544 OFFCURVE",
"107 534 OFFCURVE",
"107 524 CURVE SMOOTH",
"107 334 OFFCURVE",
"387 346 OFFCURVE",
"387 201 CURVE SMOOTH",
"387 195 OFFCURVE",
"387 189 OFFCURVE",
"386 183 CURVE SMOOTH",
"375 105 OFFCURVE",
"314 57 OFFCURVE",
"228 57 CURVE SMOOTH",
"152 57 OFFCURVE",
"118 88 OFFCURVE",
"118 160 CURVE SMOOTH",
"118 174 OFFCURVE",
"120 190 OFFCURVE",
"122 207 CURVE SMOOTH",
"126 239 LINE",
"45 239 LINE",
"38 200 LINE",
"36 184 OFFCURVE",
"35 169 OFFCURVE",
"35 155 CURVE SMOOTH",
"35 44 OFFCURVE",
"100 -10 OFFCURVE",
"227 -10 CURVE SMOOTH"
);
},
{
closed = 1;
nodes = (
"172 -231 LINE",
"259 -65 LINE",
"178 -65 LINE",
"118 -231 LINE"
);
}
);
width = 517;
}
);
leftKerningGroup = S;
rightKerningGroup = S;
unicode = 0218;
},
{
color = 10;
glyphname = T;
lastChange = "2025-02-19 09:35:05 +0000";
layers = (
{
anchors = (
{
name = bottom;
position = "{222, 0}";
},
{
name = center;
position = "{268, 364}";
},
{
name = top;
position = "{324, 727}";
}
);
hints = (
{
horizontal = 1;
place = "{-35, 21}";
target = up;
type = BottomGhost;
}
);
layerId = m01;
paths = (
{
closed = 1;
nodes = (
"260 0 LINE",
"352 657 LINE",
"541 657 LINE",
"551 727 LINE",
"97 727 LINE",
"87 657 LINE",
"276 657 LINE",
"184 0 LINE"
);
}
);
vertWidth = 1200;
width = 514;
}
);
leftKerningGroup = T;
leftMetricsKey = J;
note = T;
rightKerningGroup = T;
rightMetricsKey = L;
unicode = 0054;
},
{
color = 10;
glyphname = Tbar;
lastChange = "2025-02-19 09:35:05 +0000";
layers = (
{
components = (
{
name = T;
}
);
layerId = m01;
paths = (
{
closed = 1;
nodes = (
"136 366 LINE",
"427 366 LINE",
"435 422 LINE",
"144 422 LINE"
);
}
);
width = 514;
}
);
leftKerningGroup = T;
leftMetricsKey = T;
rightKerningGroup = T;
rightMetricsKey = T;
unicode = 0166;
},
{
glyphname = Tcedilla;
lastChange = "2025-02-19 09:35:11 +0000";
layers = (
{
anchors = (
{
name = bottom;
position = "{179, -225}";
},
{
name = center;
position = "{268, 364}";
},
{
name = top;
position = "{324, 727}";
}
);
hints = (
{
horizontal = 1;
place = "{-35, 21}";
target = up;
type = BottomGhost;
},
{
place = "{242, 41}";
type = Stem;
}
);
layerId = m01;
paths = (
{
closed = 1;
nodes = (
"260 0 LINE",
"352 657 LINE",
"541 657 LINE",
"551 727 LINE",
"97 727 LINE",
"87 657 LINE",
"276 657 LINE",
"184 0 LINE"
);
},
{
closed = 1;
nodes = (
"150 -65 LINE",
"210 -65 LINE",
"264 20 LINE",
"204 20 LINE"
);
},
{
closed = 1;
nodes = (
"193 -80 OFFCURVE",
"204 -76 OFFCURVE",
"216 -76 CURVE SMOOTH",
"238 -76 OFFCURVE",
"257 -89 OFFCURVE",
"257 -114 CURVE SMOOTH",
"257 -146 OFFCURVE",
"228 -182 OFFCURVE",
"185 -182 CURVE SMOOTH",
"161 -182 OFFCURVE",
"137 -173 OFFCURVE",
"127 -157 CURVE",
"93 -183 LINE",
"114 -212 OFFCURVE",
"149 -227 OFFCURVE",
"187 -227 CURVE SMOOTH",
"247 -227 OFFCURVE",
"310 -189 OFFCURVE",
"310 -117 CURVE SMOOTH",
"310 -61 OFFCURVE",
"270 -35 OFFCURVE",
"224 -35 CURVE SMOOTH",
"200 -35 OFFCURVE",
"174 -43 OFFCURVE",
"149 -64 CURVE",
"183 -86 LINE"
);
}
);
width = 514;
}
);
leftKerningGroup = T;
rightKerningGroup = T;
unicode = 0162;
},
{
color = 10;
glyphname = U;
lastChange = "2025-02-19 09:35:11 +0000";
layers = (
{
anchors = (
{
name = bottom;
position = "{230, 0}";
},
{
name = ogonek;
position = "{306, 0}";
},
{
name = top;
position = "{332, 727}";
},
{
name = topright;
position = "{586, 727}";
}
);
layerId = m01;
paths = (
{
closed = 1;
nodes = (
"398 216 LINE SMOOTH",
"383 112 OFFCURVE",
"332 57 OFFCURVE",
"234 57 CURVE SMOOTH",
"155 57 OFFCURVE",
"126 91 OFFCURVE",
"126 162 CURVE SMOOTH",
"126 177 OFFCURVE",
"128 194 OFFCURVE",
"130 212 CURVE SMOOTH",
"203 727 LINE",
"127 727 LINE",
"55 218 LINE SMOOTH",
"52 199 OFFCURVE",
"51 182 OFFCURVE",
"51 165 CURVE SMOOTH",
"51 56 OFFCURVE",
"109 -10 OFFCURVE",
"231 -10 CURVE SMOOTH",
"370 -10 OFFCURVE",
"454 72 OFFCURVE",
"474 214 CURVE SMOOTH",
"546 727 LINE",
"470 727 LINE"
);
}
);
vertWidth = 1200;
width = 539;
}
);
leftKerningGroup = U;
leftMetricsKey = O;
note = U;
rightKerningGroup = J;
rightMetricsKey = O;
unicode = 0055;
},
{
glyphname = Uacute;
lastChange = "2025-02-19 09:35:11 +0000";
layers = (
{
anchors = (
{
name = bottom;
position = "{230, 0}";
},
{
name = ogonek;
position = "{306, 0}";
},
{
name = top;
position = "{363, 949}";
},
{
name = topright;
position = "{586, 727}";
}
);
layerId = m01;
paths = (
{
closed = 1;
nodes = (
"398 216 LINE SMOOTH",
"383 112 OFFCURVE",
"332 57 OFFCURVE",
"234 57 CURVE SMOOTH",
"155 57 OFFCURVE",
"126 91 OFFCURVE",
"126 162 CURVE SMOOTH",
"126 177 OFFCURVE",
"128 194 OFFCURVE",
"130 212 CURVE SMOOTH",
"203 727 LINE",
"127 727 LINE",
"55 218 LINE SMOOTH",
"52 199 OFFCURVE",
"51 182 OFFCURVE",
"51 165 CURVE SMOOTH",
"51 56 OFFCURVE",
"109 -10 OFFCURVE",
"231 -10 CURVE SMOOTH",
"370 -10 OFFCURVE",
"454 72 OFFCURVE",
"474 214 CURVE SMOOTH",
"546 727 LINE",
"470 727 LINE"
);
},
{
closed = 1;
nodes = (
"377 808 LINE",
"517 949 LINE",
"417 949 LINE",
"308 808 LINE"
);
}
);
width = 539;
}
);
leftKerningGroup = U;
rightKerningGroup = J;
unicode = 00DA;
},
{
glyphname = Ucircumflex;
lastChange = "2025-02-19 09:35:11 +0000";
layers = (
{
anchors = (
{
name = bottom;
position = "{230, 0}";
},
{
name = ogonek;
position = "{306, 0}";
},
{
name = top;
position = "{363, 949}";
},
{
name = topright;
position = "{586, 727}";
}
);
layerId = m01;
paths = (
{
closed = 1;
nodes = (
"398 216 LINE SMOOTH",
"383 112 OFFCURVE",
"332 57 OFFCURVE",
"234 57 CURVE SMOOTH",
"155 57 OFFCURVE",
"126 91 OFFCURVE",
"126 162 CURVE SMOOTH",
"126 177 OFFCURVE",
"128 194 OFFCURVE",
"130 212 CURVE SMOOTH",
"203 727 LINE",
"127 727 LINE",
"55 218 LINE SMOOTH",
"52 199 OFFCURVE",
"51 182 OFFCURVE",
"51 165 CURVE SMOOTH",
"51 56 OFFCURVE",
"109 -10 OFFCURVE",
"231 -10 CURVE SMOOTH",
"370 -10 OFFCURVE",
"454 72 OFFCURVE",
"474 214 CURVE SMOOTH",
"546 727 LINE",
"470 727 LINE"
);
},
{
closed = 1;
nodes = (
"288 808 LINE",
"357 902 LINE",
"400 808 LINE",
"473 808 LINE",
"403 949 LINE",
"321 949 LINE",
"211 808 LINE"
);
}
);
width = 539;
}
);
leftKerningGroup = U;
rightKerningGroup = J;
unicode = 00DB;
},
{
glyphname = Udieresis;
lastChange = "2025-02-19 09:35:11 +0000";
layers = (
{
anchors = (
{
name = bottom;
position = "{230, 0}";
},
{
name = ogonek;
position = "{306, 0}";
},
{
name = top;
position = "{355, 896}";
},
{
name = topright;
position = "{586, 727}";
}
);
hints = (
{
horizontal = 1;
place = "{798, 48}";
type = Stem;
},
{
place = "{280, 45}";
type = Stem;
},
{
place = "{100, 45}";
type = Stem;
},
{
horizontal = 1;
place = "{798, 48}";
type = Stem;
},
{
place = "{269, 45}";
type = Stem;
},
{
place = "{89, 45}";
type = Stem;
}
);
layerId = m01;
paths = (
{
closed = 1;
nodes = (
"398 216 LINE SMOOTH",
"383 112 OFFCURVE",
"332 57 OFFCURVE",
"234 57 CURVE SMOOTH",
"155 57 OFFCURVE",
"126 91 OFFCURVE",
"126 162 CURVE SMOOTH",
"126 177 OFFCURVE",
"128 194 OFFCURVE",
"130 212 CURVE SMOOTH",
"203 727 LINE",
"127 727 LINE",
"55 218 LINE SMOOTH",
"52 199 OFFCURVE",
"51 182 OFFCURVE",
"51 165 CURVE SMOOTH",
"51 56 OFFCURVE",
"109 -10 OFFCURVE",
"231 -10 CURVE SMOOTH",
"370 -10 OFFCURVE",
"454 72 OFFCURVE",
"474 214 CURVE SMOOTH",
"546 727 LINE",
"470 727 LINE"
);
},
{
closed = 1;
nodes = (
"474 813 LINE",
"485 896 LINE",
"405 896 LINE",
"394 813 LINE"
);
},
{
closed = 1;
nodes = (
"294 813 LINE",
"305 896 LINE",
"225 896 LINE",
"214 813 LINE"
);
}
);
width = 539;
}
);
leftKerningGroup = U;
rightKerningGroup = J;
unicode = 00DC;
},
{
glyphname = Ugrave;
lastChange = "2025-02-19 09:35:11 +0000";
layers = (
{
anchors = (
{
name = bottom;
position = "{230, 0}";
},
{
name = ogonek;
position = "{306, 0}";
},
{
name = top;
position = "{363, 949}";
},
{
name = topright;
position = "{586, 727}";
}
);
layerId = m01;
paths = (
{
closed = 1;
nodes = (
"398 216 LINE SMOOTH",
"383 112 OFFCURVE",
"332 57 OFFCURVE",
"234 57 CURVE SMOOTH",
"155 57 OFFCURVE",
"126 91 OFFCURVE",
"126 162 CURVE SMOOTH",
"126 177 OFFCURVE",
"128 194 OFFCURVE",
"130 212 CURVE SMOOTH",
"203 727 LINE",
"127 727 LINE",
"55 218 LINE SMOOTH",
"52 199 OFFCURVE",
"51 182 OFFCURVE",
"51 165 CURVE SMOOTH",
"51 56 OFFCURVE",
"109 -10 OFFCURVE",
"231 -10 CURVE SMOOTH",
"370 -10 OFFCURVE",
"454 72 OFFCURVE",
"474 214 CURVE SMOOTH",
"546 727 LINE",
"470 727 LINE"
);
},
{
closed = 1;
nodes = (
"376 808 LINE",
"307 949 LINE",
"209 949 LINE",
"311 808 LINE"
);
}
);
width = 539;
}
);
leftKerningGroup = U;
rightKerningGroup = J;
unicode = 00D9;
},
{
glyphname = Uhungarumlaut;
lastChange = "2025-02-19 09:35:11 +0000";
layers = (
{
anchors = (
{
name = bottom;
position = "{230, 0}";
},
{
name = ogonek;
position = "{306, 0}";
},
{
name = top;
position = "{397, 949}";
},
{
name = topright;
position = "{586, 727}";
}
);
hints = (
{
horizontal = 1;
place = "{773, 106}";
type = Stem;
}
);
layerId = m01;
paths = (
{
closed = 1;
nodes = (
"398 216 LINE SMOOTH",
"383 112 OFFCURVE",
"332 57 OFFCURVE",
"234 57 CURVE SMOOTH",
"155 57 OFFCURVE",
"126 91 OFFCURVE",
"126 162 CURVE SMOOTH",
"126 177 OFFCURVE",
"128 194 OFFCURVE",
"130 212 CURVE SMOOTH",
"203 727 LINE",
"127 727 LINE",
"55 218 LINE SMOOTH",
"52 199 OFFCURVE",
"51 182 OFFCURVE",
"51 165 CURVE SMOOTH",
"51 56 OFFCURVE",
"109 -10 OFFCURVE",
"231 -10 CURVE SMOOTH",
"370 -10 OFFCURVE",
"454 72 OFFCURVE",
"474 214 CURVE SMOOTH",
"546 727 LINE",
"470 727 LINE"
);
},
{
closed = 1;
nodes = (
"439 808 LINE",
"579 949 LINE",
"479 949 LINE",
"370 808 LINE"
);
},
{
closed = 1;
nodes = (
"292 808 LINE",
"432 949 LINE",
"332 949 LINE",
"223 808 LINE"
);
}
);
width = 539;
}
);
leftKerningGroup = U;
rightKerningGroup = J;
unicode = 0170;
},
{
glyphname = Umacron;
lastChange = "2025-02-19 09:35:11 +0000";
layers = (
{
anchors = (
{
name = bottom;
position = "{230, 0}";
},
{
name = ogonek;
position = "{306, 0}";
},
{
name = top;
position = "{352, 869}";
},
{
name = topright;
position = "{586, 727}";
}
);
hints = (
{
horizontal = 1;
place = "{795, 26}";
type = Stem;
},
{
place = "{127, 172}";
type = Stem;
},
{
horizontal = 1;
place = "{795, 26}";
type = Stem;
},
{
place = "{116, 172}";
type = Stem;
}
);
layerId = m01;
paths = (
{
closed = 1;
nodes = (
"398 216 LINE SMOOTH",
"383 112 OFFCURVE",
"332 57 OFFCURVE",
"234 57 CURVE SMOOTH",
"155 57 OFFCURVE",
"126 91 OFFCURVE",
"126 162 CURVE SMOOTH",
"126 177 OFFCURVE",
"128 194 OFFCURVE",
"130 212 CURVE SMOOTH",
"203 727 LINE",
"127 727 LINE",
"55 218 LINE SMOOTH",
"52 199 OFFCURVE",
"51 182 OFFCURVE",
"51 165 CURVE SMOOTH",
"51 56 OFFCURVE",
"109 -10 OFFCURVE",
"231 -10 CURVE SMOOTH",
"370 -10 OFFCURVE",
"454 72 OFFCURVE",
"474 214 CURVE SMOOTH",
"546 727 LINE",
"470 727 LINE"
);
},
{
closed = 1;
nodes = (
"447 808 LINE",
"456 869 LINE",
"248 869 LINE",
"239 808 LINE"
);
}
);
width = 539;
}
);
leftKerningGroup = U;
rightKerningGroup = J;
unicode = 016A;
},
{
glyphname = Uogonek;
lastChange = "2025-02-19 09:35:11 +0000";
layers = (
{
anchors = (
{
name = bottom;
position = "{230, 0}";
},
{
name = ogonek;
position = "{306, 0}";
},
{
name = top;
position = "{332, 727}";
},
{
name = topright;
position = "{586, 727}";
}
);
layerId = m01;
paths = (
{
closed = 1;
nodes = (
"398 216 LINE SMOOTH",
"383 112 OFFCURVE",
"332 57 OFFCURVE",
"234 57 CURVE SMOOTH",
"155 57 OFFCURVE",
"126 91 OFFCURVE",
"126 162 CURVE SMOOTH",
"126 177 OFFCURVE",
"128 194 OFFCURVE",
"130 212 CURVE SMOOTH",
"203 727 LINE",
"127 727 LINE",
"55 218 LINE SMOOTH",
"52 199 OFFCURVE",
"51 182 OFFCURVE",
"51 165 CURVE SMOOTH",
"51 56 OFFCURVE",
"109 -10 OFFCURVE",
"231 -10 CURVE SMOOTH",
"370 -10 OFFCURVE",
"454 72 OFFCURVE",
"474 214 CURVE SMOOTH",
"546 727 LINE",
"470 727 LINE"
);
},
{
closed = 1;
nodes = (
"215 -188 OFFCURVE",
"275 -188 CURVE SMOOTH",
"287 -188 OFFCURVE",
"301 -187 OFFCURVE",
"315 -185 CURVE",
"321 -124 LINE",
"312 -127 OFFCURVE",
"303 -129 OFFCURVE",
"292 -129 CURVE SMOOTH",
"265 -129 OFFCURVE",
"238 -117 OFFCURVE",
"238 -91 CURVE SMOOTH",
"238 -60 OFFCURVE",
"263 -31 OFFCURVE",
"307 -1 CURVE",
"239 1 LINE",
"190 -34 OFFCURVE",
"174 -62 OFFCURVE",
"174 -109 CURVE SMOOTH",
"174 -164 OFFCURVE"
);
}
);
width = 539;
}
);
leftKerningGroup = U;
rightKerningGroup = J;
unicode = 0172;
},
{
glyphname = Uring;
lastChange = "2025-02-19 09:35:14 +0000";
layers = (
{
anchors = (
{
name = bottom;
position = "{230, 0}";
},
{
name = ogonek;
position = "{306, 0}";
},
{
name = top;
position = "{366, 970}";
},
{
name = topright;
position = "{586, 727}";
}
);
hints = (
{
horizontal = 1;
place = "{906, 14}";
type = Stem;
},
{
horizontal = 1;
place = "{755, 14}";
type = Stem;
},
{
place = "{280, 13}";
type = Stem;
},
{
place = "{131, 13}";
type = Stem;
}
);
layerId = m01;
paths = (
{
closed = 1;
nodes = (
"398 216 LINE SMOOTH",
"383 112 OFFCURVE",
"332 57 OFFCURVE",
"234 57 CURVE SMOOTH",
"155 57 OFFCURVE",
"126 91 OFFCURVE",
"126 162 CURVE SMOOTH",
"126 177 OFFCURVE",
"128 194 OFFCURVE",
"130 212 CURVE SMOOTH",
"203 727 LINE",
"127 727 LINE",
"55 218 LINE SMOOTH",
"52 199 OFFCURVE",
"51 182 OFFCURVE",
"51 165 CURVE SMOOTH",
"51 56 OFFCURVE",
"109 -10 OFFCURVE",
"231 -10 CURVE SMOOTH",
"370 -10 OFFCURVE",
"454 72 OFFCURVE",
"474 214 CURVE SMOOTH",
"546 727 LINE",
"470 727 LINE"
);
},
{
closed = 1;
nodes = (
"253 808 OFFCURVE",
"290 770 OFFCURVE",
"340 770 CURVE SMOOTH",
"398 772 OFFCURVE",
"442 816 OFFCURVE",
"449 867 CURVE SMOOTH",
"455 925 OFFCURVE",
"414 970 OFFCURVE",
"364 970 CURVE SMOOTH",
"298 970 OFFCURVE",
"253 916 OFFCURVE",
"253 859 CURVE SMOOTH"
);
},
{
closed = 1;
nodes = (
"305 898 OFFCURVE",
"331 921 OFFCURVE",
"362 921 CURVE SMOOTH",
"386 921 OFFCURVE",
"406 902 OFFCURVE",
"403 875 CURVE",
"398 844 OFFCURVE",
"371 819 OFFCURVE",
"341 819 CURVE SMOOTH",
"313 819 OFFCURVE",
"297 840 OFFCURVE",
"300 867 CURVE"
);
}
);
width = 539;
}
);
leftKerningGroup = U;
rightKerningGroup = J;
unicode = 016E;
},
{
color = 10;
glyphname = V;
lastChange = "2025-02-19 09:35:05 +0000";
layers = (
{
anchors = (
{
name = bottom;
position = "{234, 0}";
},
{
name = top;
position = "{336, 727}";
}
);
layerId = m01;
paths = (
{
closed = 1;
nodes = (
"177 0 LINE",
"255 0 LINE",
"176 727 LINE",
"97 727 LINE"
);
},
{
closed = 1;
nodes = (
"495 727 LINE",
"212 0 LINE",
"292 0 LINE",
"576 727 LINE"
);
}
);
vertWidth = 1200;
width = 539;
}
);
leftKerningGroup = V;
note = V;
rightKerningGroup = V;
unicode = 0056;
},
{
color = 10;
glyphname = W;
lastChange = "2025-02-19 09:35:05 +0000";
layers = (
{
anchors = (
{
name = bottom;
position = "{390, 0}";
},
{
name = top;
position = "{492, 727}";
}
);
layerId = m01;
paths = (
{
closed = 1;
nodes = (
"145 0 LINE",
"221 0 LINE",
"176 727 LINE",
"97 727 LINE"
);
},
{
closed = 1;
nodes = (
"805 727 LINE",
"556 0 LINE",
"634 0 LINE",
"886 727 LINE"
);
},
{
closed = 1;
nodes = (
"445 727 LINE",
"180 0 LINE",
"248 0 LINE",
"512 727 LINE"
);
},
{
closed = 1;
nodes = (
"531 0 LINE",
"597 0 LINE",
"536 727 LINE",
"471 727 LINE"
);
}
);
vertWidth = 1200;
width = 849;
}
);
leftKerningGroup = V;
leftMetricsKey = V;
note = W;
rightKerningGroup = V;
rightMetricsKey = V;
unicode = 0057;
},
{
color = 10;
glyphname = X;
lastChange = "2025-02-19 09:35:05 +0000";
layers = (
{
anchors = (
{
name = bottom;
position = "{224, 0}";
},
{
name = top;
position = "{326, 727}";
}
);
layerId = m01;
paths = (
{
closed = 1;
nodes = (
"370 0 LINE",
"452 0 LINE",
"179 727 LINE",
"97 727 LINE"
);
},
{
closed = 1;
nodes = (
"471 727 LINE",
"-6 0 LINE",
"78 0 LINE",
"555 727 LINE"
);
}
);
vertWidth = 1200;
width = 518;
}
);
leftKerningGroup = X;
leftMetricsKey = V;
note = X;
rightKerningGroup = X;
rightMetricsKey = V;
unicode = 0058;
},
{
color = 10;
glyphname = Y;
lastChange = "2025-02-19 09:35:05 +0000";
layers = (
{
anchors = (
{
name = bottom;
position = "{194, 0}";
},
{
name = top;
position = "{296, 727}";
},
{
name = topleft;
position = "{87, 727}";
}
);
background = {
paths = (
{
closed = 1;
nodes = (
"267 0 LINE",
"267 301 LINE",
"443 727 LINE",
"361 727 LINE",
"232 393 LINE",
"226 393 LINE",
"96 727 LINE",
"15 727 LINE",
"191 301 LINE",
"191 0 LINE"
);
}
);
};
layerId = m01;
paths = (
{
closed = 1;
nodes = (
"232 0 LINE",
"274 301 LINE",
"510 727 LINE",
"427 727 LINE",
"247 385 LINE",
"162 727 LINE",
"82 727 LINE",
"198 301 LINE",
"156 0 LINE"
);
}
);
vertWidth = 1200;
width = 458;
}
);
leftKerningGroup = V;
leftMetricsKey = "=V/2";
note = Y;
rightKerningGroup = V;
rightMetricsKey = "=V/2";
unicode = 0059;
},
{
color = 10;
glyphname = Z;
lastChange = "2025-02-19 09:35:05 +0000";
layers = (
{
anchors = (
{
name = bottom;
position = "{223, 0}";
},
{
name = center;
position = "{272, 364}";
},
{
name = top;
position = "{330, 727}";
}
);
background = {
paths = (
{
closed = 1;
nodes = (
"470 0 LINE",
"470 70 LINE",
"138 70 LINE",
"138 77 LINE",
"470 655 LINE",
"470 727 LINE",
"56 727 LINE",
"56 657 LINE",
"377 657 LINE",
"377 650 LINE",
"45 79 LINE",
"45 0 LINE"
);
}
);
};
layerId = m01;
paths = (
{
closed = 1;
nodes = (
"435 0 LINE",
"444 70 LINE",
"109 70 LINE",
"527 655 LINE",
"537 727 LINE",
"123 727 LINE",
"113 657 LINE",
"437 657 LINE",
"20 79 LINE",
"10 0 LINE"
);
}
);
vertWidth = 1200;
width = 515;
}
);
leftKerningGroup = Z;
leftMetricsKey = S;
note = Z;
rightKerningGroup = Z;
rightMetricsKey = S;
unicode = 005A;
},
{
color = 10;
glyphname = a;
lastChange = "2025-02-19 09:35:11 +0000";
layers = (
{
anchors = (
{
name = bottom;
position = "{192, 0}";
},
{
name = ogonek;
position = "{361, 0}";
},
{
name = top;
position = "{265, 505}";
}
);
layerId = m01;
paths = (
{
closed = 1;
nodes = (
"347 453 LINE",
"324 494 OFFCURVE",
"282 515 OFFCURVE",
"227 515 CURVE SMOOTH",
"128 515 OFFCURVE",
"72 442 OFFCURVE",
"53 312 CURVE SMOOTH",
"37 194 LINE SMOOTH",
"34 174 OFFCURVE",
"33 155 OFFCURVE",
"33 137 CURVE SMOOTH",
"33 43 OFFCURVE",
"74 -10 OFFCURVE",
"159 -10 CURVE SMOOTH",
"213 -10 OFFCURVE",
"258 7 OFFCURVE",
"292 48 CURVE",
"295 0 LINE",
"361 0 LINE",
"431 505 LINE",
"365 505 LINE"
);
},
{
closed = 1;
nodes = (
"127 298 LINE SMOOTH",
"140 388 OFFCURVE",
"174 460 OFFCURVE",
"255 460 CURVE SMOOTH",
"310 460 OFFCURVE",
"331 417 OFFCURVE",
"331 355 CURVE SMOOTH",
"331 338 OFFCURVE",
"330 321 OFFCURVE",
"327 302 CURVE SMOOTH",
"313 203 LINE SMOOTH",
"300 113 OFFCURVE",
"262 45 OFFCURVE",
"191 45 CURVE SMOOTH",
"129 45 OFFCURVE",
"109 84 OFFCURVE",
"109 145 CURVE SMOOTH",
"109 161 OFFCURVE",
"110 180 OFFCURVE",
"113 199 CURVE SMOOTH"
);
}
);
vertWidth = 1200;
width = 456;
}
);
leftKerningGroup = o;
leftMetricsKey = d;
note = a;
rightKerningGroup = n;
rightMetricsKey = n;
unicode = 0061;
},
{
glyphname = aacute;
lastChange = "2025-02-19 09:35:11 +0000";
layers = (
{
anchors = (
{
name = bottom;
position = "{192, 0}";
},
{
name = ogonek;
position = "{361, 0}";
},
{
name = top;
position = "{297, 727}";
}
);
layerId = m01;
paths = (
{
closed = 1;
nodes = (
"347 453 LINE",
"324 494 OFFCURVE",
"282 515 OFFCURVE",
"227 515 CURVE SMOOTH",
"128 515 OFFCURVE",
"72 442 OFFCURVE",
"53 312 CURVE SMOOTH",
"37 194 LINE SMOOTH",
"34 174 OFFCURVE",
"33 155 OFFCURVE",
"33 137 CURVE SMOOTH",
"33 43 OFFCURVE",
"74 -10 OFFCURVE",
"159 -10 CURVE SMOOTH",
"213 -10 OFFCURVE",
"258 7 OFFCURVE",
"292 48 CURVE",
"295 0 LINE",
"361 0 LINE",
"431 505 LINE",
"365 505 LINE"
);
},
{
closed = 1;
nodes = (
"127 298 LINE SMOOTH",
"140 388 OFFCURVE",
"174 460 OFFCURVE",
"255 460 CURVE SMOOTH",
"310 460 OFFCURVE",
"331 417 OFFCURVE",
"331 355 CURVE SMOOTH",
"331 338 OFFCURVE",
"330 321 OFFCURVE",
"327 302 CURVE SMOOTH",
"313 203 LINE SMOOTH",
"300 113 OFFCURVE",
"262 45 OFFCURVE",
"191 45 CURVE SMOOTH",
"129 45 OFFCURVE",
"109 84 OFFCURVE",
"109 145 CURVE SMOOTH",
"109 161 OFFCURVE",
"110 180 OFFCURVE",
"113 199 CURVE SMOOTH"
);
},
{
closed = 1;
nodes = (
"310 586 LINE",
"451 727 LINE",
"351 727 LINE",
"242 586 LINE"
);
}
);
width = 456;
}
);
leftKerningGroup = o;
rightKerningGroup = n;
unicode = 00E1;
},
{
glyphname = abreve;
lastChange = "2025-02-19 09:35:11 +0000";
layers = (
{
anchors = (
{
name = bottom;
position = "{192, 0}";
},
{
name = ogonek;
position = "{361, 0}";
},
{
name = top;
position = "{293, 704}";
}
);
hints = (
{
horizontal = 1;
place = "{563, 28}";
type = Stem;
},
{
place = "{262, 28}";
type = Stem;
},
{
place = "{65, 28}";
type = Stem;
}
);
layerId = m01;
paths = (
{
closed = 1;
nodes = (
"347 453 LINE",
"324 494 OFFCURVE",
"282 515 OFFCURVE",
"227 515 CURVE SMOOTH",
"128 515 OFFCURVE",
"72 442 OFFCURVE",
"53 312 CURVE SMOOTH",
"37 194 LINE SMOOTH",
"34 174 OFFCURVE",
"33 155 OFFCURVE",
"33 137 CURVE SMOOTH",
"33 43 OFFCURVE",
"74 -10 OFFCURVE",
"159 -10 CURVE SMOOTH",
"213 -10 OFFCURVE",
"258 7 OFFCURVE",
"292 48 CURVE",
"295 0 LINE",
"361 0 LINE",
"431 505 LINE",
"365 505 LINE"
);
},
{
closed = 1;
nodes = (
"127 298 LINE SMOOTH",
"140 388 OFFCURVE",
"174 460 OFFCURVE",
"255 460 CURVE SMOOTH",
"310 460 OFFCURVE",
"331 417 OFFCURVE",
"331 355 CURVE SMOOTH",
"331 338 OFFCURVE",
"330 321 OFFCURVE",
"327 302 CURVE SMOOTH",
"313 203 LINE SMOOTH",
"300 113 OFFCURVE",
"262 45 OFFCURVE",
"191 45 CURVE SMOOTH",
"129 45 OFFCURVE",
"109 84 OFFCURVE",
"109 145 CURVE SMOOTH",
"109 161 OFFCURVE",
"110 180 OFFCURVE",
"113 199 CURVE SMOOTH"
);
},
{
closed = 1;
nodes = (
"328 651 OFFCURVE",
"314 638 OFFCURVE",
"280 638 CURVE SMOOTH",
"254 638 OFFCURVE",
"245 650 OFFCURVE",
"248 702 CURVE",
"179 706 LINE",
"178 697 OFFCURVE",
"178 689 OFFCURVE",
"178 681 CURVE SMOOTH",
"178 607 OFFCURVE",
"206 586 OFFCURVE",
"280 586 CURVE SMOOTH",
"359 586 OFFCURVE",
"388 606 OFFCURVE",
"407 702 CURVE",
"340 706 LINE"
);
}
);
width = 456;
}
);
leftKerningGroup = o;
rightKerningGroup = n;
unicode = 0103;
},
{
glyphname = acircumflex;
lastChange = "2025-02-19 09:35:11 +0000";
layers = (
{
anchors = (
{
name = bottom;
position = "{192, 0}";
},
{
name = ogonek;
position = "{361, 0}";
},
{
name = top;
position = "{297, 727}";
}
);
layerId = m01;
paths = (
{
closed = 1;
nodes = (
"347 453 LINE",
"324 494 OFFCURVE",
"282 515 OFFCURVE",
"227 515 CURVE SMOOTH",
"128 515 OFFCURVE",
"72 442 OFFCURVE",
"53 312 CURVE SMOOTH",
"37 194 LINE SMOOTH",
"34 174 OFFCURVE",
"33 155 OFFCURVE",
"33 137 CURVE SMOOTH",
"33 43 OFFCURVE",
"74 -10 OFFCURVE",
"159 -10 CURVE SMOOTH",
"213 -10 OFFCURVE",
"258 7 OFFCURVE",
"292 48 CURVE",
"295 0 LINE",
"361 0 LINE",
"431 505 LINE",
"365 505 LINE"
);
},
{
closed = 1;
nodes = (
"127 298 LINE SMOOTH",
"140 388 OFFCURVE",
"174 460 OFFCURVE",
"255 460 CURVE SMOOTH",
"310 460 OFFCURVE",
"331 417 OFFCURVE",
"331 355 CURVE SMOOTH",
"331 338 OFFCURVE",
"330 321 OFFCURVE",
"327 302 CURVE SMOOTH",
"313 203 LINE SMOOTH",
"300 113 OFFCURVE",
"262 45 OFFCURVE",
"191 45 CURVE SMOOTH",
"129 45 OFFCURVE",
"109 84 OFFCURVE",
"109 145 CURVE SMOOTH",
"109 161 OFFCURVE",
"110 180 OFFCURVE",
"113 199 CURVE SMOOTH"
);
},
{
closed = 1;
nodes = (
"221 586 LINE",
"291 680 LINE",
"333 586 LINE",
"407 586 LINE",
"337 727 LINE",
"255 727 LINE",
"145 586 LINE"
);
}
);
width = 456;
}
);
leftKerningGroup = o;
rightKerningGroup = n;
unicode = 00E2;
},
{
glyphname = adieresis;
lastChange = "2025-02-19 09:35:11 +0000";
layers = (
{
anchors = (
{
name = bottom;
position = "{192, 0}";
},
{
name = ogonek;
position = "{361, 0}";
},
{
name = top;
position = "{289, 674}";
}
);
hints = (
{
horizontal = 1;
place = "{576, 48}";
type = Stem;
},
{
place = "{245, 45}";
type = Stem;
},
{
place = "{65, 45}";
type = Stem;
},
{
horizontal = 1;
place = "{576, 48}";
type = Stem;
},
{
place = "{234, 45}";
type = Stem;
},
{
place = "{54, 45}";
type = Stem;
}
);
layerId = m01;
paths = (
{
closed = 1;
nodes = (
"347 453 LINE",
"324 494 OFFCURVE",
"282 515 OFFCURVE",
"227 515 CURVE SMOOTH",
"128 515 OFFCURVE",
"72 442 OFFCURVE",
"53 312 CURVE SMOOTH",
"37 194 LINE SMOOTH",
"34 174 OFFCURVE",
"33 155 OFFCURVE",
"33 137 CURVE SMOOTH",
"33 43 OFFCURVE",
"74 -10 OFFCURVE",
"159 -10 CURVE SMOOTH",
"213 -10 OFFCURVE",
"258 7 OFFCURVE",
"292 48 CURVE",
"295 0 LINE",
"361 0 LINE",
"431 505 LINE",
"365 505 LINE"
);
},
{
closed = 1;
nodes = (
"127 298 LINE SMOOTH",
"140 388 OFFCURVE",
"174 460 OFFCURVE",
"255 460 CURVE SMOOTH",
"310 460 OFFCURVE",
"331 417 OFFCURVE",
"331 355 CURVE SMOOTH",
"331 338 OFFCURVE",
"330 321 OFFCURVE",
"327 302 CURVE SMOOTH",
"313 203 LINE SMOOTH",
"300 113 OFFCURVE",
"262 45 OFFCURVE",
"191 45 CURVE SMOOTH",
"129 45 OFFCURVE",
"109 84 OFFCURVE",
"109 145 CURVE SMOOTH",
"109 161 OFFCURVE",
"110 180 OFFCURVE",
"113 199 CURVE SMOOTH"
);
},
{
closed = 1;
nodes = (
"408 591 LINE",
"419 674 LINE",
"339 674 LINE",
"328 591 LINE"
);
},
{
closed = 1;
nodes = (
"228 591 LINE",
"239 674 LINE",
"159 674 LINE",
"148 591 LINE"
);
}
);
width = 456;
}
);
leftKerningGroup = o;
rightKerningGroup = n;
unicode = 00E4;
},
{
glyphname = agrave;
lastChange = "2025-02-19 09:35:11 +0000";
layers = (
{
anchors = (
{
name = bottom;
position = "{192, 0}";
},
{
name = ogonek;
position = "{361, 0}";
},
{
name = top;
position = "{297, 727}";
}
);
layerId = m01;
paths = (
{
closed = 1;
nodes = (
"347 453 LINE",
"324 494 OFFCURVE",
"282 515 OFFCURVE",
"227 515 CURVE SMOOTH",
"128 515 OFFCURVE",
"72 442 OFFCURVE",
"53 312 CURVE SMOOTH",
"37 194 LINE SMOOTH",
"34 174 OFFCURVE",
"33 155 OFFCURVE",
"33 137 CURVE SMOOTH",
"33 43 OFFCURVE",
"74 -10 OFFCURVE",
"159 -10 CURVE SMOOTH",
"213 -10 OFFCURVE",
"258 7 OFFCURVE",
"292 48 CURVE",
"295 0 LINE",
"361 0 LINE",
"431 505 LINE",
"365 505 LINE"
);
},
{
closed = 1;
nodes = (
"127 298 LINE SMOOTH",
"140 388 OFFCURVE",
"174 460 OFFCURVE",
"255 460 CURVE SMOOTH",
"310 460 OFFCURVE",
"331 417 OFFCURVE",
"331 355 CURVE SMOOTH",
"331 338 OFFCURVE",
"330 321 OFFCURVE",
"327 302 CURVE SMOOTH",
"313 203 LINE SMOOTH",
"300 113 OFFCURVE",
"262 45 OFFCURVE",
"191 45 CURVE SMOOTH",
"129 45 OFFCURVE",
"109 84 OFFCURVE",
"109 145 CURVE SMOOTH",
"109 161 OFFCURVE",
"110 180 OFFCURVE",
"113 199 CURVE SMOOTH"
);
},
{
closed = 1;
nodes = (
"310 586 LINE",
"241 727 LINE",
"143 727 LINE",
"244 586 LINE"
);
}
);
width = 456;
}
);
leftKerningGroup = o;
rightKerningGroup = n;
unicode = 00E0;
},
{
glyphname = amacron;
lastChange = "2025-02-19 09:35:11 +0000";
layers = (
{
anchors = (
{
name = bottom;
position = "{192, 0}";
},
{
name = ogonek;
position = "{361, 0}";
},
{
name = top;
position = "{285, 647}";
}
);
hints = (
{
horizontal = 1;
place = "{573, 26}";
type = Stem;
},
{
place = "{92, 172}";
type = Stem;
},
{
horizontal = 1;
place = "{573, 26}";
type = Stem;
},
{
place = "{81, 172}";
type = Stem;
}
);
layerId = m01;
paths = (
{
closed = 1;
nodes = (
"347 453 LINE",
"324 494 OFFCURVE",
"282 515 OFFCURVE",
"227 515 CURVE SMOOTH",
"128 515 OFFCURVE",
"72 442 OFFCURVE",
"53 312 CURVE SMOOTH",
"37 194 LINE SMOOTH",
"34 174 OFFCURVE",
"33 155 OFFCURVE",
"33 137 CURVE SMOOTH",
"33 43 OFFCURVE",
"74 -10 OFFCURVE",
"159 -10 CURVE SMOOTH",
"213 -10 OFFCURVE",
"258 7 OFFCURVE",
"292 48 CURVE",
"295 0 LINE",
"361 0 LINE",
"431 505 LINE",
"365 505 LINE"
);
},
{
closed = 1;
nodes = (
"127 298 LINE SMOOTH",
"140 388 OFFCURVE",
"174 460 OFFCURVE",
"255 460 CURVE SMOOTH",
"310 460 OFFCURVE",
"331 417 OFFCURVE",
"331 355 CURVE SMOOTH",
"331 338 OFFCURVE",
"330 321 OFFCURVE",
"327 302 CURVE SMOOTH",
"313 203 LINE SMOOTH",
"300 113 OFFCURVE",
"262 45 OFFCURVE",
"191 45 CURVE SMOOTH",
"129 45 OFFCURVE",
"109 84 OFFCURVE",
"109 145 CURVE SMOOTH",
"109 161 OFFCURVE",
"110 180 OFFCURVE",
"113 199 CURVE SMOOTH"
);
},
{
closed = 1;
nodes = (
"381 586 LINE",
"389 647 LINE",
"181 647 LINE",
"173 586 LINE"
);
}
);
width = 456;
}
);
leftKerningGroup = o;
rightKerningGroup = n;
unicode = 0101;
},
{
glyphname = aogonek;
lastChange = "2025-02-19 09:35:11 +0000";
layers = (
{
anchors = (
{
name = bottom;
position = "{192, 0}";
},
{
name = ogonek;
position = "{361, 0}";
},
{
name = top;
position = "{265, 505}";
}
);
layerId = m01;
paths = (
{
closed = 1;
nodes = (
"347 453 LINE",
"324 494 OFFCURVE",
"282 515 OFFCURVE",
"227 515 CURVE SMOOTH",
"128 515 OFFCURVE",
"72 442 OFFCURVE",
"53 312 CURVE SMOOTH",
"37 194 LINE SMOOTH",
"34 174 OFFCURVE",
"33 155 OFFCURVE",
"33 137 CURVE SMOOTH",
"33 43 OFFCURVE",
"74 -10 OFFCURVE",
"159 -10 CURVE SMOOTH",
"213 -10 OFFCURVE",
"258 7 OFFCURVE",
"292 48 CURVE",
"295 0 LINE",
"361 0 LINE",
"431 505 LINE",
"365 505 LINE"
);
},
{
closed = 1;
nodes = (
"127 298 LINE SMOOTH",
"140 388 OFFCURVE",
"174 460 OFFCURVE",
"255 460 CURVE SMOOTH",
"310 460 OFFCURVE",
"331 417 OFFCURVE",
"331 355 CURVE SMOOTH",
"331 338 OFFCURVE",
"330 321 OFFCURVE",
"327 302 CURVE SMOOTH",
"313 203 LINE SMOOTH",
"300 113 OFFCURVE",
"262 45 OFFCURVE",
"191 45 CURVE SMOOTH",
"129 45 OFFCURVE",
"109 84 OFFCURVE",
"109 145 CURVE SMOOTH",
"109 161 OFFCURVE",
"110 180 OFFCURVE",
"113 199 CURVE SMOOTH"
);
},
{
closed = 1;
nodes = (
"270 -188 OFFCURVE",
"330 -188 CURVE SMOOTH",
"342 -188 OFFCURVE",
"356 -187 OFFCURVE",
"370 -185 CURVE",
"376 -124 LINE",
"367 -127 OFFCURVE",
"358 -129 OFFCURVE",
"347 -129 CURVE SMOOTH",
"320 -129 OFFCURVE",
"293 -117 OFFCURVE",
"293 -91 CURVE SMOOTH",
"293 -60 OFFCURVE",
"318 -31 OFFCURVE",
"362 -1 CURVE",
"294 1 LINE",
"245 -34 OFFCURVE",
"229 -62 OFFCURVE",
"229 -109 CURVE SMOOTH",
"229 -164 OFFCURVE"
);
}
);
width = 456;
}
);
leftKerningGroup = o;
rightKerningGroup = n;
unicode = 0105;
},
{
glyphname = aring;
lastChange = "2025-02-19 09:35:11 +0000";
layers = (
{
anchors = (
{
name = bottom;
position = "{192, 0}";
},
{
name = ogonek;
position = "{361, 0}";
},
{
name = top;
position = "{300, 748}";
}
);
hints = (
{
horizontal = 1;
place = "{684, 14}";
type = Stem;
},
{
horizontal = 1;
place = "{533, 14}";
type = Stem;
},
{
place = "{245, 13}";
type = Stem;
},
{
place = "{96, 13}";
type = Stem;
}
);
layerId = m01;
paths = (
{
closed = 1;
nodes = (
"347 453 LINE",
"324 494 OFFCURVE",
"282 515 OFFCURVE",
"227 515 CURVE SMOOTH",
"128 515 OFFCURVE",
"72 442 OFFCURVE",
"53 312 CURVE SMOOTH",
"37 194 LINE SMOOTH",
"34 174 OFFCURVE",
"33 155 OFFCURVE",
"33 137 CURVE SMOOTH",
"33 43 OFFCURVE",
"74 -10 OFFCURVE",
"159 -10 CURVE SMOOTH",
"213 -10 OFFCURVE",
"258 7 OFFCURVE",
"292 48 CURVE",
"295 0 LINE",
"361 0 LINE",
"431 505 LINE",
"365 505 LINE"
);
},
{
closed = 1;
nodes = (
"127 298 LINE SMOOTH",
"140 388 OFFCURVE",
"174 460 OFFCURVE",
"255 460 CURVE SMOOTH",
"310 460 OFFCURVE",
"331 417 OFFCURVE",
"331 355 CURVE SMOOTH",
"331 338 OFFCURVE",
"330 321 OFFCURVE",
"327 302 CURVE SMOOTH",
"313 203 LINE SMOOTH",
"300 113 OFFCURVE",
"262 45 OFFCURVE",
"191 45 CURVE SMOOTH",
"129 45 OFFCURVE",
"109 84 OFFCURVE",
"109 145 CURVE SMOOTH",
"109 161 OFFCURVE",
"110 180 OFFCURVE",
"113 199 CURVE SMOOTH"
);
},
{
closed = 1;
nodes = (
"335 550 OFFCURVE",
"384 601 OFFCURVE",
"384 656 CURVE SMOOTH",
"384 709 OFFCURVE",
"345 748 OFFCURVE",
"298 748 CURVE SMOOTH",
"232 748 OFFCURVE",
"186 695 OFFCURVE",
"186 638 CURVE SMOOTH",
"186 586 OFFCURVE",
"224 548 OFFCURVE",
"274 548 CURVE SMOOTH"
);
},
{
closed = 1;
nodes = (
"250 597 OFFCURVE",
"233 614 OFFCURVE",
"233 637 CURVE SMOOTH",
"233 672 OFFCURVE",
"262 699 OFFCURVE",
"296 699 CURVE SMOOTH",
"318 699 OFFCURVE",
"337 683 OFFCURVE",
"337 660 CURVE SMOOTH",
"337 626 OFFCURVE",
"307 597 OFFCURVE",
"274 597 CURVE SMOOTH"
);
}
);
width = 456;
}
);
leftKerningGroup = o;
rightKerningGroup = n;
unicode = 00E5;
},
{
glyphname = atilde;
lastChange = "2025-02-19 09:35:14 +0000";
layers = (
{
anchors = (
{
name = bottom;
position = "{192, 0}";
},
{
name = ogonek;
position = "{361, 0}";
},
{
name = top;
position = "{293, 702}";
}
);
layerId = m01;
paths = (
{
closed = 1;
nodes = (
"347 453 LINE",
"324 494 OFFCURVE",
"282 515 OFFCURVE",
"227 515 CURVE SMOOTH",
"128 515 OFFCURVE",
"72 442 OFFCURVE",
"53 312 CURVE SMOOTH",
"37 194 LINE SMOOTH",
"34 174 OFFCURVE",
"33 155 OFFCURVE",
"33 137 CURVE SMOOTH",
"33 43 OFFCURVE",
"74 -10 OFFCURVE",
"159 -10 CURVE SMOOTH",
"213 -10 OFFCURVE",
"258 7 OFFCURVE",
"292 48 CURVE",
"295 0 LINE",
"361 0 LINE",
"431 505 LINE",
"365 505 LINE"
);
},
{
closed = 1;
nodes = (
"173 584 LINE",
"179 609 OFFCURVE",
"203 631 OFFCURVE",
"229 631 CURVE SMOOTH",
"264 631 OFFCURVE",
"285 593 OFFCURVE",
"333 593 CURVE SMOOTH",
"358 593 OFFCURVE",
"381 603 OFFCURVE",
"403 623 CURVE",
"422 643 OFFCURVE",
"436 671 OFFCURVE",
"443 700 CURVE",
"391 704 LINE",
"384 674 OFFCURVE",
"367 657 OFFCURVE",
"339 657 CURVE SMOOTH",
"298 657 OFFCURVE",
"294 694 OFFCURVE",
"238 694 CURVE SMOOTH",
"181 694 OFFCURVE",
"144 657 OFFCURVE",
"127 588 CURVE"
);
},
{
closed = 1;
nodes = (
"127 298 LINE SMOOTH",
"140 388 OFFCURVE",
"174 460 OFFCURVE",
"255 460 CURVE SMOOTH",
"310 460 OFFCURVE",
"331 417 OFFCURVE",
"331 355 CURVE SMOOTH",
"331 338 OFFCURVE",
"330 321 OFFCURVE",
"327 302 CURVE SMOOTH",
"313 203 LINE SMOOTH",
"300 113 OFFCURVE",
"262 45 OFFCURVE",
"191 45 CURVE SMOOTH",
"129 45 OFFCURVE",
"109 84 OFFCURVE",
"109 145 CURVE SMOOTH",
"109 161 OFFCURVE",
"110 180 OFFCURVE",
"113 199 CURVE SMOOTH"
);
}
);
width = 456;
}
);
leftKerningGroup = o;
rightKerningGroup = n;
unicode = 00E3;
},
{
color = 10;
glyphname = ae;
lastChange = "2025-02-19 09:35:14 +0000";
layers = (
{
background = {
paths = (
{
closed = 1;
nodes = (
"271 -10 OFFCURVE",
"326 21 OFFCURVE",
"357 77 CURVE",
"377 67 LINE",
"401 80 LINE",
"401 325 LINE",
"401 430 OFFCURVE",
"369 515 OFFCURVE",
"235 515 CURVE SMOOTH",
"131 515 OFFCURVE",
"68 464 OFFCURVE",
"66 361 CURVE",
"142 361 LINE",
"144 436 OFFCURVE",
"176 460 OFFCURVE",
"233 460 CURVE SMOOTH",
"292 460 OFFCURVE",
"325 433 OFFCURVE",
"325 361 CURVE SMOOTH",
"325 294 LINE",
"253 294 LINE",
"126 294 OFFCURVE",
"55 241 OFFCURVE",
"55 141 CURVE SMOOTH",
"55 50 OFFCURVE",
"110 -10 OFFCURVE",
"191 -10 CURVE SMOOTH"
);
},
{
closed = 1;
nodes = (
"164 52 OFFCURVE",
"131 84 OFFCURVE",
"131 142 CURVE SMOOTH",
"131 212 OFFCURVE",
"176 239 OFFCURVE",
"257 239 CURVE",
"325 239 LINE",
"325 102 OFFCURVE",
"296 52 OFFCURVE",
"208 52 CURVE SMOOTH"
);
},
{
closed = 1;
nodes = (
"686 310 LINE SMOOTH",
"686 440 OFFCURVE",
"623 515 OFFCURVE",
"503 515 CURVE SMOOTH",
"383 515 OFFCURVE",
"325 410 OFFCURVE",
"325 310 CURVE SMOOTH",
"325 192 LINE SMOOTH",
"325 62 OFFCURVE",
"383 -10 OFFCURVE",
"503 -10 CURVE SMOOTH",
"611 -10 OFFCURVE",
"673 49 OFFCURVE",
"684 155 CURVE",
"608 155 LINE",
"599 86 OFFCURVE",
"563 45 OFFCURVE",
"503 45 CURVE SMOOTH",
"433 45 OFFCURVE",
"401 101 OFFCURVE",
"401 191 CURVE SMOOTH",
"401 310 LINE SMOOTH",
"401 400 OFFCURVE",
"433 460 OFFCURVE",
"503 460 CURVE SMOOTH",
"573 460 OFFCURVE",
"610 400 OFFCURVE",
"610 310 CURVE SMOOTH",
"610 239 LINE",
"686 239 LINE"
);
},
{
closed = 1;
nodes = (
"380 239 LINE",
"686 239 LINE",
"686 294 LINE",
"380 294 LINE"
);
}
);
};
layerId = m01;
paths = (
{
closed = 1;
nodes = (
"231 -10 OFFCURVE",
"288 16 OFFCURVE",
"327 68 CURVE",
"347 19 OFFCURVE",
"395 -10 OFFCURVE",
"469 -10 CURVE SMOOTH",
"576 -10 OFFCURVE",
"644 47 OFFCURVE",
"670 153 CURVE",
"594 157 LINE",
"576 88 OFFCURVE",
"532 45 OFFCURVE",
"471 45 CURVE SMOOTH",
"414 45 OFFCURVE",
"389 82 OFFCURVE",
"389 145 CURVE SMOOTH",
"389 158 OFFCURVE",
"390 173 OFFCURVE",
"392 189 CURVE SMOOTH",
"399 239 LINE",
"684 239 LINE",
"694 308 LINE SMOOTH",
"696 324 OFFCURVE",
"697 340 OFFCURVE",
"697 354 CURVE SMOOTH",
"697 456 OFFCURVE",
"643 515 OFFCURVE",
"537 515 CURVE SMOOTH",
"480 515 OFFCURVE",
"434 492 OFFCURVE",
"398 454 CURVE",
"380 489 OFFCURVE",
"341 515 OFFCURVE",
"269 515 CURVE SMOOTH",
"166 515 OFFCURVE",
"98 466 OFFCURVE",
"82 363 CURVE",
"157 359 LINE",
"170 434 OFFCURVE",
"207 460 OFFCURVE",
"265 460 CURVE SMOOTH",
"315 460 OFFCURVE",
"343 441 OFFCURVE",
"343 389 CURVE SMOOTH",
"343 381 OFFCURVE",
"342 373 OFFCURVE",
"341 363 CURVE",
"331 294 LINE",
"257 294 LINE SMOOTH",
"118 294 OFFCURVE",
"38 233 OFFCURVE",
"38 116 CURVE SMOOTH",
"38 39 OFFCURVE",
"84 -10 OFFCURVE",
"157 -10 CURVE SMOOTH"
);
},
{
closed = 1;
nodes = (
"125 210 OFFCURVE",
"176 239 OFFCURVE",
"257 239 CURVE SMOOTH",
"323 241 LINE",
"304 104 OFFCURVE",
"266 52 OFFCURVE",
"177 52 CURVE SMOOTH",
"139 52 OFFCURVE",
"114 75 OFFCURVE",
"114 119 CURVE SMOOTH",
"114 125 OFFCURVE",
"114 131 OFFCURVE",
"115 138 CURVE SMOOTH"
);
},
{
closed = 1;
nodes = (
"409 308 LINE SMOOTH",
"421 398 OFFCURVE",
"464 460 OFFCURVE",
"535 460 CURVE SMOOTH",
"593 460 OFFCURVE",
"621 419 OFFCURVE",
"621 353 CURVE SMOOTH",
"621 340 OFFCURVE",
"620 327 OFFCURVE",
"618 312 CURVE SMOOTH",
"616 294 LINE",
"407 294 LINE"
);
}
);
width = 731;
}
);
leftKerningGroup = o;
leftMetricsKey = a;
rightKerningGroup = o;
rightMetricsKey = e;
unicode = 00E6;
},
{
color = 10;
glyphname = b;
lastChange = "2025-02-19 09:35:11 +0000";
layers = (
{
anchors = (
{
name = bottom;
position = "{197, 0}";
},
{
name = top;
position = "{267, 505}";
}
);
hints = (
{
horizontal = 1;
place = "{692, -20}";
target = down;
type = TopGhost;
}
);
layerId = m01;
paths = (
{
closed = 1;
nodes = (
"30 0 LINE",
"96 0 LINE",
"114 52 LINE",
"136 11 OFFCURVE",
"178 -10 OFFCURVE",
"234 -10 CURVE SMOOTH",
"333 -10 OFFCURVE",
"389 60 OFFCURVE",
"407 190 CURVE SMOOTH",
"424 308 LINE SMOOTH",
"427 328 OFFCURVE",
"428 347 OFFCURVE",
"428 365 CURVE SMOOTH",
"428 460 OFFCURVE",
"387 515 OFFCURVE",
"302 515 CURVE SMOOTH",
"249 515 OFFCURVE",
"204 498 OFFCURVE",
"169 457 CURVE",
"208 727 LINE",
"132 727 LINE"
);
},
{
closed = 1;
nodes = (
"147 298 LINE SMOOTH",
"160 388 OFFCURVE",
"199 460 OFFCURVE",
"270 460 CURVE SMOOTH",
"331 460 OFFCURVE",
"352 419 OFFCURVE",
"352 359 CURVE SMOOTH",
"352 341 OFFCURVE",
"350 322 OFFCURVE",
"347 302 CURVE SMOOTH",
"333 203 LINE SMOOTH",
"320 113 OFFCURVE",
"287 45 OFFCURVE",
"206 45 CURVE SMOOTH",
"151 45 OFFCURVE",
"129 86 OFFCURVE",
"129 149 CURVE SMOOTH",
"129 165 OFFCURVE",
"131 181 OFFCURVE",
"133 199 CURVE SMOOTH"
);
}
);
vertWidth = 1200;
width = 461;
}
);
leftMetricsKey = n;
note = b;
rightKerningGroup = o;
rightMetricsKey = o;
unicode = 0062;
},
{
color = 10;
glyphname = c;
lastChange = "2025-02-19 09:35:11 +0000";
layers = (
{
anchors = (
{
name = bottom;
position = "{188, 0}";
},
{
name = top;
position = "{258, 505}";
}
);
layerId = m01;
paths = (
{
closed = 1;
nodes = (
"288 88 OFFCURVE",
"249 45 OFFCURVE",
"188 45 CURVE SMOOTH",
"132 45 OFFCURVE",
"108 81 OFFCURVE",
"108 142 CURVE SMOOTH",
"108 156 OFFCURVE",
"110 172 OFFCURVE",
"112 189 CURVE SMOOTH",
"129 308 LINE SMOOTH",
"141 398 OFFCURVE",
"184 460 OFFCURVE",
"255 460 CURVE SMOOTH",
"313 460 OFFCURVE",
"324 420 OFFCURVE",
"322 352 CURVE",
"397 348 LINE",
"402 453 OFFCURVE",
"365 515 OFFCURVE",
"257 515 CURVE SMOOTH",
"138 515 OFFCURVE",
"72 442 OFFCURVE",
"53 312 CURVE SMOOTH",
"37 194 LINE SMOOTH",
"34 176 OFFCURVE",
"33 159 OFFCURVE",
"33 143 CURVE SMOOTH",
"33 45 OFFCURVE",
"82 -10 OFFCURVE",
"186 -10 CURVE SMOOTH",
"293 -10 OFFCURVE",
"355 46 OFFCURVE",
"380 152 CURVE",
"304 156 LINE"
);
}
);
vertWidth = 1200;
width = 439;
}
);
leftKerningGroup = o;
leftMetricsKey = o;
note = c;
rightKerningGroup = o;
rightMetricsKey = o;
unicode = 0063;
},
{
glyphname = cacute;
lastChange = "2025-02-19 09:35:11 +0000";
layers = (
{
anchors = (
{
name = bottom;
position = "{188, 0}";
},
{
name = top;
position = "{290, 727}";
}
);
layerId = m01;
paths = (
{
closed = 1;
nodes = (
"288 88 OFFCURVE",
"249 45 OFFCURVE",
"188 45 CURVE SMOOTH",
"132 45 OFFCURVE",
"108 81 OFFCURVE",
"108 142 CURVE SMOOTH",
"108 156 OFFCURVE",
"110 172 OFFCURVE",
"112 189 CURVE SMOOTH",
"129 308 LINE SMOOTH",
"141 398 OFFCURVE",
"184 460 OFFCURVE",
"255 460 CURVE SMOOTH",
"313 460 OFFCURVE",
"324 420 OFFCURVE",
"322 352 CURVE",
"397 348 LINE",
"402 453 OFFCURVE",
"365 515 OFFCURVE",
"257 515 CURVE SMOOTH",
"138 515 OFFCURVE",
"72 442 OFFCURVE",
"53 312 CURVE SMOOTH",
"37 194 LINE SMOOTH",
"34 176 OFFCURVE",
"33 159 OFFCURVE",
"33 143 CURVE SMOOTH",
"33 45 OFFCURVE",
"82 -10 OFFCURVE",
"186 -10 CURVE SMOOTH",
"293 -10 OFFCURVE",
"355 46 OFFCURVE",
"380 152 CURVE",
"304 156 LINE"
);
},
{
closed = 1;
nodes = (
"303 586 LINE",
"444 727 LINE",
"344 727 LINE",
"235 586 LINE"
);
}
);
width = 439;
}
);
leftKerningGroup = o;
rightKerningGroup = o;
unicode = 0107;
},
{
glyphname = ccaron;
lastChange = "2025-02-19 09:35:11 +0000";
layers = (
{
anchors = (
{
name = bottom;
position = "{188, 0}";
},
{
name = top;
position = "{290, 727}";
}
);
hints = (
{
horizontal = 1;
place = "{551, 106}";
type = Stem;
},
{
place = "{42, 257}";
type = Stem;
}
);
layerId = m01;
paths = (
{
closed = 1;
nodes = (
"288 88 OFFCURVE",
"249 45 OFFCURVE",
"188 45 CURVE SMOOTH",
"132 45 OFFCURVE",
"108 81 OFFCURVE",
"108 142 CURVE SMOOTH",
"108 156 OFFCURVE",
"110 172 OFFCURVE",
"112 189 CURVE SMOOTH",
"129 308 LINE SMOOTH",
"141 398 OFFCURVE",
"184 460 OFFCURVE",
"255 460 CURVE SMOOTH",
"313 460 OFFCURVE",
"324 420 OFFCURVE",
"322 352 CURVE",
"397 348 LINE",
"402 453 OFFCURVE",
"365 515 OFFCURVE",
"257 515 CURVE SMOOTH",
"138 515 OFFCURVE",
"72 442 OFFCURVE",
"53 312 CURVE SMOOTH",
"37 194 LINE SMOOTH",
"34 176 OFFCURVE",
"33 159 OFFCURVE",
"33 143 CURVE SMOOTH",
"33 45 OFFCURVE",
"82 -10 OFFCURVE",
"186 -10 CURVE SMOOTH",
"293 -10 OFFCURVE",
"355 46 OFFCURVE",
"380 152 CURVE",
"304 156 LINE"
);
},
{
closed = 1;
nodes = (
"345 727 LINE",
"275 633 LINE",
"233 727 LINE",
"159 727 LINE",
"229 586 LINE",
"311 586 LINE",
"421 727 LINE"
);
}
);
width = 439;
}
);
leftKerningGroup = o;
rightKerningGroup = o;
unicode = 010D;
},
{
glyphname = ccedilla;
lastChange = "2025-02-19 09:35:11 +0000";
layers = (
{
anchors = (
{
name = bottom;
position = "{145, -225}";
},
{
name = top;
position = "{258, 505}";
}
);
hints = (
{
place = "{208, 41}";
type = Stem;
}
);
layerId = m01;
paths = (
{
closed = 1;
nodes = (
"288 88 OFFCURVE",
"249 45 OFFCURVE",
"188 45 CURVE SMOOTH",
"132 45 OFFCURVE",
"108 81 OFFCURVE",
"108 142 CURVE SMOOTH",
"108 156 OFFCURVE",
"110 172 OFFCURVE",
"112 189 CURVE SMOOTH",
"129 308 LINE SMOOTH",
"141 398 OFFCURVE",
"184 460 OFFCURVE",
"255 460 CURVE SMOOTH",
"313 460 OFFCURVE",
"324 420 OFFCURVE",
"322 352 CURVE",
"397 348 LINE",
"402 453 OFFCURVE",
"365 515 OFFCURVE",
"257 515 CURVE SMOOTH",
"138 515 OFFCURVE",
"72 442 OFFCURVE",
"53 312 CURVE SMOOTH",
"37 194 LINE SMOOTH",
"34 176 OFFCURVE",
"33 159 OFFCURVE",
"33 143 CURVE SMOOTH",
"33 45 OFFCURVE",
"82 -10 OFFCURVE",
"186 -10 CURVE SMOOTH",
"293 -10 OFFCURVE",
"355 46 OFFCURVE",
"380 152 CURVE",
"304 156 LINE"
);
},
{
closed = 1;
nodes = (
"116 -65 LINE",
"176 -65 LINE",
"230 20 LINE",
"170 20 LINE"
);
},
{
closed = 1;
nodes = (
"159 -80 OFFCURVE",
"170 -76 OFFCURVE",
"182 -76 CURVE SMOOTH",
"204 -76 OFFCURVE",
"223 -89 OFFCURVE",
"223 -114 CURVE SMOOTH",
"223 -146 OFFCURVE",
"194 -182 OFFCURVE",
"151 -182 CURVE SMOOTH",
"127 -182 OFFCURVE",
"103 -173 OFFCURVE",
"93 -157 CURVE",
"59 -183 LINE",
"80 -212 OFFCURVE",
"115 -227 OFFCURVE",
"153 -227 CURVE SMOOTH",
"213 -227 OFFCURVE",
"276 -189 OFFCURVE",
"276 -117 CURVE SMOOTH",
"276 -61 OFFCURVE",
"236 -35 OFFCURVE",
"190 -35 CURVE SMOOTH",
"166 -35 OFFCURVE",
"140 -43 OFFCURVE",
"115 -64 CURVE",
"149 -86 LINE"
);
}
);
width = 439;
}
);
leftKerningGroup = o;
rightKerningGroup = o;
unicode = 00E7;
},
{
glyphname = cdotaccent;
lastChange = "2025-02-19 09:35:11 +0000";
layers = (
{
anchors = (
{
name = bottom;
position = "{188, 0}";
},
{
name = top;
position = "{282, 674}";
}
);
layerId = m01;
paths = (
{
closed = 1;
nodes = (
"288 88 OFFCURVE",
"249 45 OFFCURVE",
"188 45 CURVE SMOOTH",
"132 45 OFFCURVE",
"108 81 OFFCURVE",
"108 142 CURVE SMOOTH",
"108 156 OFFCURVE",
"110 172 OFFCURVE",
"112 189 CURVE SMOOTH",
"129 308 LINE SMOOTH",
"141 398 OFFCURVE",
"184 460 OFFCURVE",
"255 460 CURVE SMOOTH",
"313 460 OFFCURVE",
"324 420 OFFCURVE",
"322 352 CURVE",
"397 348 LINE",
"402 453 OFFCURVE",
"365 515 OFFCURVE",
"257 515 CURVE SMOOTH",
"138 515 OFFCURVE",
"72 442 OFFCURVE",
"53 312 CURVE SMOOTH",
"37 194 LINE SMOOTH",
"34 176 OFFCURVE",
"33 159 OFFCURVE",
"33 143 CURVE SMOOTH",
"33 45 OFFCURVE",
"82 -10 OFFCURVE",
"186 -10 CURVE SMOOTH",
"293 -10 OFFCURVE",
"355 46 OFFCURVE",
"380 152 CURVE",
"304 156 LINE"
);
},
{
closed = 1;
nodes = (
"311 591 LINE",
"322 674 LINE",
"242 674 LINE",
"231 591 LINE"
);
}
);
width = 439;
}
);
leftKerningGroup = o;
rightKerningGroup = o;
unicode = 010B;
},
{
color = 10;
glyphname = d;
lastChange = "2025-02-19 09:35:11 +0000";
layers = (
{
anchors = (
{
name = bottom;
position = "{197, 0}";
},
{
name = center;
position = "{232, 253}";
},
{
name = top;
position = "{267, 505}";
},
{
name = topright;
position = "{479, 505}";
}
);
layerId = m01;
paths = (
{
closed = 1;
nodes = (
"347 453 LINE",
"324 494 OFFCURVE",
"282 515 OFFCURVE",
"227 515 CURVE SMOOTH",
"128 515 OFFCURVE",
"72 442 OFFCURVE",
"53 312 CURVE SMOOTH",
"37 194 LINE SMOOTH",
"34 174 OFFCURVE",
"33 155 OFFCURVE",
"33 137 CURVE SMOOTH",
"33 43 OFFCURVE",
"74 -10 OFFCURVE",
"159 -10 CURVE SMOOTH",
"213 -10 OFFCURVE",
"258 7 OFFCURVE",
"292 48 CURVE",
"295 0 LINE",
"361 0 LINE",
"463 727 LINE",
"387 727 LINE"
);
},
{
closed = 1;
nodes = (
"127 298 LINE SMOOTH",
"140 388 OFFCURVE",
"174 460 OFFCURVE",
"255 460 CURVE SMOOTH",
"310 460 OFFCURVE",
"331 417 OFFCURVE",
"331 355 CURVE SMOOTH",
"331 338 OFFCURVE",
"330 321 OFFCURVE",
"327 302 CURVE SMOOTH",
"313 203 LINE SMOOTH",
"300 113 OFFCURVE",
"262 45 OFFCURVE",
"191 45 CURVE SMOOTH",
"129 45 OFFCURVE",
"109 84 OFFCURVE",
"109 145 CURVE SMOOTH",
"109 161 OFFCURVE",
"110 180 OFFCURVE",
"113 199 CURVE SMOOTH"
);
}
);
vertWidth = 1200;
width = 461;
}
);
leftKerningGroup = o;
leftMetricsKey = o;
note = d;
unicode = 0064;
},
{
color = 10;
glyphname = eth;
lastChange = "2025-02-19 09:35:11 +0000";
layers = (
{
background = {
paths = (
{
closed = 1;
nodes = (
"335 298 LINE",
"396 309 LINE",
"396 590 OFFCURVE",
"358 732 OFFCURVE",
"122 767 CURVE",
"97 727 LINE",
"226 713 OFFCURVE",
"318 626 OFFCURVE",
"320 446 CURVE"
);
},
{
closed = 1;
nodes = (
"121 576 LINE",
"412 726 LINE",
"412 792 LINE",
"121 642 LINE"
);
},
{
closed = 1;
nodes = (
"304 455 LINE",
"304 410 LINE",
"343 410 LINE",
"343 455 LINE"
);
},
{
closed = 1;
nodes = (
"341 310 LINE SMOOTH",
"341 450 OFFCURVE",
"283 515 OFFCURVE",
"193 515 CURVE SMOOTH",
"103 515 OFFCURVE",
"45 440 OFFCURVE",
"45 310 CURVE SMOOTH",
"45 215 LINE",
"121 215 LINE",
"121 300 LINE SMOOTH",
"121 390 OFFCURVE",
"153 460 OFFCURVE",
"223 460 CURVE SMOOTH",
"293 460 OFFCURVE",
"320 390 OFFCURVE",
"320 300 CURVE SMOOTH",
"320 258 LINE",
"341 258 LINE"
);
},
{
closed = 1;
nodes = (
"320 191 LINE SMOOTH",
"320 101 OFFCURVE",
"288 45 OFFCURVE",
"218 45 CURVE SMOOTH",
"148 45 OFFCURVE",
"121 101 OFFCURVE",
"121 191 CURVE SMOOTH",
"121 233 LINE",
"45 235 LINE",
"45 192 LINE SMOOTH",
"45 62 OFFCURVE",
"98 -10 OFFCURVE",
"218 -10 CURVE SMOOTH",
"338 -10 OFFCURVE",
"396 62 OFFCURVE",
"396 192 CURVE SMOOTH",
"396 309 LINE",
"320 309 LINE"
);
}
);
};
layerId = m01;
paths = (
{
closed = 1;
nodes = (
"167 576 LINE",
"315 649 LINE",
"338 614 OFFCURVE",
"351 568 OFFCURVE",
"351 509 CURVE SMOOTH",
"351 492 OFFCURVE",
"350 474 OFFCURVE",
"348 455 CURVE",
"324 494 OFFCURVE",
"282 515 OFFCURVE",
"227 515 CURVE SMOOTH",
"138 515 OFFCURVE",
"72 442 OFFCURVE",
"53 312 CURVE SMOOTH",
"37 194 LINE SMOOTH",
"34 175 OFFCURVE",
"33 158 OFFCURVE",
"33 142 CURVE SMOOTH",
"33 44 OFFCURVE",
"80 -10 OFFCURVE",
"184 -10 CURVE SMOOTH",
"303 -10 OFFCURVE",
"369 60 OFFCURVE",
"387 190 CURVE SMOOTH",
"404 307 LINE SMOOTH",
"414 377 OFFCURVE",
"420 439 OFFCURVE",
"420 492 CURVE SMOOTH",
"420 570 OFFCURVE",
"407 630 OFFCURVE",
"374 675 CURVE",
"479 726 LINE",
"488 792 LINE",
"332 717 LINE",
"298 741 OFFCURVE",
"252 758 OFFCURVE",
"193 767 CURVE",
"165 727 LINE",
"208 722 OFFCURVE",
"244 711 OFFCURVE",
"274 689 CURVE",
"175 642 LINE"
);
},
{
closed = 1;
nodes = (
"127 298 LINE SMOOTH",
"140 388 OFFCURVE",
"184 460 OFFCURVE",
"255 460 CURVE SMOOTH",
"310 460 OFFCURVE",
"331 417 OFFCURVE",
"331 355 CURVE SMOOTH",
"331 338 OFFCURVE",
"330 321 OFFCURVE",
"327 302 CURVE SMOOTH",
"312 193 LINE SMOOTH",
"299 103 OFFCURVE",
"257 45 OFFCURVE",
"186 45 CURVE SMOOTH",
"131 45 OFFCURVE",
"108 80 OFFCURVE",
"108 140 CURVE SMOOTH",
"108 155 OFFCURVE",
"109 171 OFFCURVE",
"112 189 CURVE SMOOTH"
);
}
);
width = 457;
}
);
leftKerningGroup = o;
leftMetricsKey = o;
rightMetricsKey = o;
unicode = 00F0;
},
{
glyphname = dcaron;
lastChange = "2025-02-19 09:35:11 +0000";
layers = (
{
anchors = (
{
name = bottom;
position = "{197, 0}";
},
{
name = center;
position = "{232, 253}";
},
{
name = top;
position = "{267, 505}";
},
{
name = topright;
position = "{479, 505}";
}
);
layerId = m01;
paths = (
{
closed = 1;
nodes = (
"347 453 LINE",
"324 494 OFFCURVE",
"282 515 OFFCURVE",
"227 515 CURVE SMOOTH",
"128 515 OFFCURVE",
"72 442 OFFCURVE",
"53 312 CURVE SMOOTH",
"37 194 LINE SMOOTH",
"34 174 OFFCURVE",
"33 155 OFFCURVE",
"33 137 CURVE SMOOTH",
"33 43 OFFCURVE",
"74 -10 OFFCURVE",
"159 -10 CURVE SMOOTH",
"213 -10 OFFCURVE",
"258 7 OFFCURVE",
"292 48 CURVE",
"295 0 LINE",
"361 0 LINE",
"463 727 LINE",
"387 727 LINE"
);
},
{
closed = 1;
nodes = (
"127 298 LINE SMOOTH",
"140 388 OFFCURVE",
"174 460 OFFCURVE",
"255 460 CURVE SMOOTH",
"310 460 OFFCURVE",
"331 417 OFFCURVE",
"331 355 CURVE SMOOTH",
"331 338 OFFCURVE",
"330 321 OFFCURVE",
"327 302 CURVE SMOOTH",
"313 203 LINE SMOOTH",
"300 113 OFFCURVE",
"262 45 OFFCURVE",
"191 45 CURVE SMOOTH",
"129 45 OFFCURVE",
"109 84 OFFCURVE",
"109 145 CURVE SMOOTH",
"109 161 OFFCURVE",
"110 180 OFFCURVE",
"113 199 CURVE SMOOTH"
);
},
{
closed = 1;
nodes = (
"561 561 LINE",
"648 727 LINE",
"567 727 LINE",
"507 561 LINE"
);
}
);
width = 571;
}
);
leftKerningGroup = o;
leftMetricsKey = d;
unicode = 010F;
},
{
color = 10;
glyphname = dcroat;
lastChange = "2025-02-19 09:35:11 +0000";
layers = (
{
anchors = (
{
name = bottom;
position = "{197, 0}";
},
{
name = center;
position = "{232, 253}";
},
{
name = top;
position = "{267, 505}";
},
{
name = topright;
position = "{479, 505}";
}
);
layerId = m01;
paths = (
{
closed = 1;
nodes = (
"218 586 LINE",
"508 586 LINE",
"516 642 LINE",
"226 642 LINE"
);
},
{
closed = 1;
nodes = (
"347 453 LINE",
"324 494 OFFCURVE",
"282 515 OFFCURVE",
"227 515 CURVE SMOOTH",
"128 515 OFFCURVE",
"72 442 OFFCURVE",
"53 312 CURVE SMOOTH",
"37 194 LINE SMOOTH",
"34 174 OFFCURVE",
"33 155 OFFCURVE",
"33 137 CURVE SMOOTH",
"33 43 OFFCURVE",
"74 -10 OFFCURVE",
"159 -10 CURVE SMOOTH",
"213 -10 OFFCURVE",
"258 7 OFFCURVE",
"292 48 CURVE",
"295 0 LINE",
"361 0 LINE",
"463 727 LINE",
"387 727 LINE"
);
},
{
closed = 1;
nodes = (
"127 298 LINE SMOOTH",
"140 388 OFFCURVE",
"174 460 OFFCURVE",
"255 460 CURVE SMOOTH",
"310 460 OFFCURVE",
"331 417 OFFCURVE",
"331 355 CURVE SMOOTH",
"331 338 OFFCURVE",
"330 321 OFFCURVE",
"327 302 CURVE SMOOTH",
"313 203 LINE SMOOTH",
"300 113 OFFCURVE",
"262 45 OFFCURVE",
"191 45 CURVE SMOOTH",
"129 45 OFFCURVE",
"109 84 OFFCURVE",
"109 145 CURVE SMOOTH",
"109 161 OFFCURVE",
"110 180 OFFCURVE",
"113 199 CURVE SMOOTH"
);
}
);
width = 461;
}
);
leftKerningGroup = o;
leftMetricsKey = d;
unicode = 0111;
},
{
color = 10;
glyphname = e;
lastChange = "2025-02-19 09:35:11 +0000";
layers = (
{
anchors = (
{
name = bottom;
position = "{188, 0}";
},
{
name = ogonek;
position = "{257, 0}";
},
{
name = top;
position = "{258, 505}";
}
);
layerId = m01;
paths = (
{
closed = 1;
nodes = (
"414 308 LINE SMOOTH",
"416 324 OFFCURVE",
"417 340 OFFCURVE",
"417 354 CURVE SMOOTH",
"417 456 OFFCURVE",
"363 515 OFFCURVE",
"257 515 CURVE SMOOTH",
"138 515 OFFCURVE",
"72 442 OFFCURVE",
"53 312 CURVE SMOOTH",
"37 194 LINE SMOOTH",
"35 177 OFFCURVE",
"33 160 OFFCURVE",
"33 145 CURVE SMOOTH",
"33 46 OFFCURVE",
"84 -10 OFFCURVE",
"189 -10 CURVE SMOOTH",
"296 -10 OFFCURVE",
"364 47 OFFCURVE",
"390 153 CURVE",
"314 157 LINE",
"296 88 OFFCURVE",
"252 45 OFFCURVE",
"191 45 CURVE SMOOTH",
"134 45 OFFCURVE",
"109 82 OFFCURVE",
"109 145 CURVE SMOOTH",
"109 158 OFFCURVE",
"110 173 OFFCURVE",
"112 189 CURVE SMOOTH",
"129 308 LINE SMOOTH",
"141 398 OFFCURVE",
"184 460 OFFCURVE",
"255 460 CURVE SMOOTH",
"313 460 OFFCURVE",
"341 419 OFFCURVE",
"341 353 CURVE SMOOTH",
"341 340 OFFCURVE",
"340 327 OFFCURVE",
"338 312 CURVE SMOOTH",
"327 229 LINE",
"403 229 LINE"
);
},
{
closed = 1;
nodes = (
"97 229 LINE",
"403 229 LINE",
"410 284 LINE",
"104 284 LINE"
);
}
);
vertWidth = 1200;
width = 451;
}
);
leftKerningGroup = o;
leftMetricsKey = o;
note = e;
rightKerningGroup = o;
rightMetricsKey = o;
unicode = 0065;
},
{
glyphname = eacute;
lastChange = "2025-02-19 09:35:11 +0000";
layers = (
{
anchors = (
{
name = bottom;
position = "{188, 0}";
},
{
name = ogonek;
position = "{257, 0}";
},
{
name = top;
position = "{290, 727}";
}
);
layerId = m01;
paths = (
{
closed = 1;
nodes = (
"414 308 LINE SMOOTH",
"416 324 OFFCURVE",
"417 340 OFFCURVE",
"417 354 CURVE SMOOTH",
"417 456 OFFCURVE",
"363 515 OFFCURVE",
"257 515 CURVE SMOOTH",
"138 515 OFFCURVE",
"72 442 OFFCURVE",
"53 312 CURVE SMOOTH",
"37 194 LINE SMOOTH",
"35 177 OFFCURVE",
"33 160 OFFCURVE",
"33 145 CURVE SMOOTH",
"33 46 OFFCURVE",
"84 -10 OFFCURVE",
"189 -10 CURVE SMOOTH",
"296 -10 OFFCURVE",
"364 47 OFFCURVE",
"390 153 CURVE",
"314 157 LINE",
"296 88 OFFCURVE",
"252 45 OFFCURVE",
"191 45 CURVE SMOOTH",
"134 45 OFFCURVE",
"109 82 OFFCURVE",
"109 145 CURVE SMOOTH",
"109 158 OFFCURVE",
"110 173 OFFCURVE",
"112 189 CURVE SMOOTH",
"129 308 LINE SMOOTH",
"141 398 OFFCURVE",
"184 460 OFFCURVE",
"255 460 CURVE SMOOTH",
"313 460 OFFCURVE",
"341 419 OFFCURVE",
"341 353 CURVE SMOOTH",
"341 340 OFFCURVE",
"340 327 OFFCURVE",
"338 312 CURVE SMOOTH",
"327 229 LINE",
"403 229 LINE"
);
},
{
closed = 1;
nodes = (
"97 229 LINE",
"403 229 LINE",
"410 284 LINE",
"104 284 LINE"
);
},
{
closed = 1;
nodes = (
"303 586 LINE",
"444 727 LINE",
"344 727 LINE",
"235 586 LINE"
);
}
);
width = 451;
}
);
leftKerningGroup = o;
rightKerningGroup = o;
unicode = 00E9;
},
{
glyphname = ecaron;
lastChange = "2025-02-19 09:35:11 +0000";
layers = (
{
anchors = (
{
name = bottom;
position = "{188, 0}";
},
{
name = ogonek;
position = "{257, 0}";
},
{
name = top;
position = "{290, 727}";
}
);
hints = (
{
horizontal = 1;
place = "{551, 106}";
type = Stem;
},
{
place = "{42, 257}";
type = Stem;
}
);
layerId = m01;
paths = (
{
closed = 1;
nodes = (
"414 308 LINE SMOOTH",
"416 324 OFFCURVE",
"417 340 OFFCURVE",
"417 354 CURVE SMOOTH",
"417 456 OFFCURVE",
"363 515 OFFCURVE",
"257 515 CURVE SMOOTH",
"138 515 OFFCURVE",
"72 442 OFFCURVE",
"53 312 CURVE SMOOTH",
"37 194 LINE SMOOTH",
"35 177 OFFCURVE",
"33 160 OFFCURVE",
"33 145 CURVE SMOOTH",
"33 46 OFFCURVE",
"84 -10 OFFCURVE",
"189 -10 CURVE SMOOTH",
"296 -10 OFFCURVE",
"364 47 OFFCURVE",
"390 153 CURVE",
"314 157 LINE",
"296 88 OFFCURVE",
"252 45 OFFCURVE",
"191 45 CURVE SMOOTH",
"134 45 OFFCURVE",
"109 82 OFFCURVE",
"109 145 CURVE SMOOTH",
"109 158 OFFCURVE",
"110 173 OFFCURVE",
"112 189 CURVE SMOOTH",
"129 308 LINE SMOOTH",
"141 398 OFFCURVE",
"184 460 OFFCURVE",
"255 460 CURVE SMOOTH",
"313 460 OFFCURVE",
"341 419 OFFCURVE",
"341 353 CURVE SMOOTH",
"341 340 OFFCURVE",
"340 327 OFFCURVE",
"338 312 CURVE SMOOTH",
"327 229 LINE",
"403 229 LINE"
);
},
{
closed = 1;
nodes = (
"97 229 LINE",
"403 229 LINE",
"410 284 LINE",
"104 284 LINE"
);
},
{
closed = 1;
nodes = (
"345 727 LINE",
"275 633 LINE",
"233 727 LINE",
"159 727 LINE",
"229 586 LINE",
"311 586 LINE",
"421 727 LINE"
);
}
);
width = 451;
}
);
leftKerningGroup = o;
rightKerningGroup = o;
unicode = 011B;
},
{
glyphname = ecircumflex;
lastChange = "2025-02-19 09:35:11 +0000";
layers = (
{
anchors = (
{
name = bottom;
position = "{188, 0}";
},
{
name = ogonek;
position = "{257, 0}";
},
{
name = top;
position = "{290, 727}";
}
);
layerId = m01;
paths = (
{
closed = 1;
nodes = (
"414 308 LINE SMOOTH",
"416 324 OFFCURVE",
"417 340 OFFCURVE",
"417 354 CURVE SMOOTH",
"417 456 OFFCURVE",
"363 515 OFFCURVE",
"257 515 CURVE SMOOTH",
"138 515 OFFCURVE",
"72 442 OFFCURVE",
"53 312 CURVE SMOOTH",
"37 194 LINE SMOOTH",
"35 177 OFFCURVE",
"33 160 OFFCURVE",
"33 145 CURVE SMOOTH",
"33 46 OFFCURVE",
"84 -10 OFFCURVE",
"189 -10 CURVE SMOOTH",
"296 -10 OFFCURVE",
"364 47 OFFCURVE",
"390 153 CURVE",
"314 157 LINE",
"296 88 OFFCURVE",
"252 45 OFFCURVE",
"191 45 CURVE SMOOTH",
"134 45 OFFCURVE",
"109 82 OFFCURVE",
"109 145 CURVE SMOOTH",
"109 158 OFFCURVE",
"110 173 OFFCURVE",
"112 189 CURVE SMOOTH",
"129 308 LINE SMOOTH",
"141 398 OFFCURVE",
"184 460 OFFCURVE",
"255 460 CURVE SMOOTH",
"313 460 OFFCURVE",
"341 419 OFFCURVE",
"341 353 CURVE SMOOTH",
"341 340 OFFCURVE",
"340 327 OFFCURVE",
"338 312 CURVE SMOOTH",
"327 229 LINE",
"403 229 LINE"
);
},
{
closed = 1;
nodes = (
"97 229 LINE",
"403 229 LINE",
"410 284 LINE",
"104 284 LINE"
);
},
{
closed = 1;
nodes = (
"214 586 LINE",
"284 680 LINE",
"326 586 LINE",
"400 586 LINE",
"330 727 LINE",
"248 727 LINE",
"138 586 LINE"
);
}
);
width = 451;
}
);
leftKerningGroup = o;
rightKerningGroup = o;
unicode = 00EA;
},
{
glyphname = edieresis;
lastChange = "2025-02-19 09:35:11 +0000";
layers = (
{
anchors = (
{
name = bottom;
position = "{188, 0}";
},
{
name = ogonek;
position = "{257, 0}";
},
{
name = top;
position = "{282, 674}";
}
);
hints = (
{
horizontal = 1;
place = "{576, 48}";
type = Stem;
},
{
place = "{238, 45}";
type = Stem;
},
{
place = "{58, 45}";
type = Stem;
},
{
horizontal = 1;
place = "{576, 48}";
type = Stem;
},
{
place = "{227, 45}";
type = Stem;
},
{
place = "{47, 45}";
type = Stem;
}
);
layerId = m01;
paths = (
{
closed = 1;
nodes = (
"414 308 LINE SMOOTH",
"416 324 OFFCURVE",
"417 340 OFFCURVE",
"417 354 CURVE SMOOTH",
"417 456 OFFCURVE",
"363 515 OFFCURVE",
"257 515 CURVE SMOOTH",
"138 515 OFFCURVE",
"72 442 OFFCURVE",
"53 312 CURVE SMOOTH",
"37 194 LINE SMOOTH",
"35 177 OFFCURVE",
"33 160 OFFCURVE",
"33 145 CURVE SMOOTH",
"33 46 OFFCURVE",
"84 -10 OFFCURVE",
"189 -10 CURVE SMOOTH",
"296 -10 OFFCURVE",
"364 47 OFFCURVE",
"390 153 CURVE",
"314 157 LINE",
"296 88 OFFCURVE",
"252 45 OFFCURVE",
"191 45 CURVE SMOOTH",
"134 45 OFFCURVE",
"109 82 OFFCURVE",
"109 145 CURVE SMOOTH",
"109 158 OFFCURVE",
"110 173 OFFCURVE",
"112 189 CURVE SMOOTH",
"129 308 LINE SMOOTH",
"141 398 OFFCURVE",
"184 460 OFFCURVE",
"255 460 CURVE SMOOTH",
"313 460 OFFCURVE",
"341 419 OFFCURVE",
"341 353 CURVE SMOOTH",
"341 340 OFFCURVE",
"340 327 OFFCURVE",
"338 312 CURVE SMOOTH",
"327 229 LINE",
"403 229 LINE"
);
},
{
closed = 1;
nodes = (
"97 229 LINE",
"403 229 LINE",
"410 284 LINE",
"104 284 LINE"
);
},
{
closed = 1;
nodes = (
"401 591 LINE",
"412 674 LINE",
"332 674 LINE",
"321 591 LINE"
);
},
{
closed = 1;
nodes = (
"221 591 LINE",
"232 674 LINE",
"152 674 LINE",
"141 591 LINE"
);
}
);
width = 451;
}
);
leftKerningGroup = o;
rightKerningGroup = o;
unicode = 00EB;
},
{
glyphname = edotaccent;
lastChange = "2025-02-19 09:35:11 +0000";
layers = (
{
anchors = (
{
name = bottom;
position = "{188, 0}";
},
{
name = ogonek;
position = "{257, 0}";
},
{
name = top;
position = "{282, 674}";
}
);
layerId = m01;
paths = (
{
closed = 1;
nodes = (
"414 308 LINE SMOOTH",
"416 324 OFFCURVE",
"417 340 OFFCURVE",
"417 354 CURVE SMOOTH",
"417 456 OFFCURVE",
"363 515 OFFCURVE",
"257 515 CURVE SMOOTH",
"138 515 OFFCURVE",
"72 442 OFFCURVE",
"53 312 CURVE SMOOTH",
"37 194 LINE SMOOTH",
"35 177 OFFCURVE",
"33 160 OFFCURVE",
"33 145 CURVE SMOOTH",
"33 46 OFFCURVE",
"84 -10 OFFCURVE",
"189 -10 CURVE SMOOTH",
"296 -10 OFFCURVE",
"364 47 OFFCURVE",
"390 153 CURVE",
"314 157 LINE",
"296 88 OFFCURVE",
"252 45 OFFCURVE",
"191 45 CURVE SMOOTH",
"134 45 OFFCURVE",
"109 82 OFFCURVE",
"109 145 CURVE SMOOTH",
"109 158 OFFCURVE",
"110 173 OFFCURVE",
"112 189 CURVE SMOOTH",
"129 308 LINE SMOOTH",
"141 398 OFFCURVE",
"184 460 OFFCURVE",
"255 460 CURVE SMOOTH",
"313 460 OFFCURVE",
"341 419 OFFCURVE",
"341 353 CURVE SMOOTH",
"341 340 OFFCURVE",
"340 327 OFFCURVE",
"338 312 CURVE SMOOTH",
"327 229 LINE",
"403 229 LINE"
);
},
{
closed = 1;
nodes = (
"97 229 LINE",
"403 229 LINE",
"410 284 LINE",
"104 284 LINE"
);
},
{
closed = 1;
nodes = (
"311 591 LINE",
"322 674 LINE",
"242 674 LINE",
"231 591 LINE"
);
}
);
width = 451;
}
);
leftKerningGroup = o;
rightKerningGroup = o;
unicode = 0117;
},
{
glyphname = egrave;
lastChange = "2025-02-19 09:35:11 +0000";
layers = (
{
anchors = (
{
name = bottom;
position = "{188, 0}";
},
{
name = ogonek;
position = "{257, 0}";
},
{
name = top;
position = "{290, 727}";
}
);
layerId = m01;
paths = (
{
closed = 1;
nodes = (
"414 308 LINE SMOOTH",
"416 324 OFFCURVE",
"417 340 OFFCURVE",
"417 354 CURVE SMOOTH",
"417 456 OFFCURVE",
"363 515 OFFCURVE",
"257 515 CURVE SMOOTH",
"138 515 OFFCURVE",
"72 442 OFFCURVE",
"53 312 CURVE SMOOTH",
"37 194 LINE SMOOTH",
"35 177 OFFCURVE",
"33 160 OFFCURVE",
"33 145 CURVE SMOOTH",
"33 46 OFFCURVE",
"84 -10 OFFCURVE",
"189 -10 CURVE SMOOTH",
"296 -10 OFFCURVE",
"364 47 OFFCURVE",
"390 153 CURVE",
"314 157 LINE",
"296 88 OFFCURVE",
"252 45 OFFCURVE",
"191 45 CURVE SMOOTH",
"134 45 OFFCURVE",
"109 82 OFFCURVE",
"109 145 CURVE SMOOTH",
"109 158 OFFCURVE",
"110 173 OFFCURVE",
"112 189 CURVE SMOOTH",
"129 308 LINE SMOOTH",
"141 398 OFFCURVE",
"184 460 OFFCURVE",
"255 460 CURVE SMOOTH",
"313 460 OFFCURVE",
"341 419 OFFCURVE",
"341 353 CURVE SMOOTH",
"341 340 OFFCURVE",
"340 327 OFFCURVE",
"338 312 CURVE SMOOTH",
"327 229 LINE",
"403 229 LINE"
);
},
{
closed = 1;
nodes = (
"97 229 LINE",
"403 229 LINE",
"410 284 LINE",
"104 284 LINE"
);
},
{
closed = 1;
nodes = (
"303 586 LINE",
"234 727 LINE",
"136 727 LINE",
"237 586 LINE"
);
}
);
width = 451;
}
);
leftKerningGroup = o;
rightKerningGroup = o;
unicode = 00E8;
},
{
glyphname = emacron;
lastChange = "2025-02-19 09:35:11 +0000";
layers = (
{
anchors = (
{
name = bottom;
position = "{188, 0}";
},
{
name = ogonek;
position = "{257, 0}";
},
{
name = top;
position = "{278, 647}";
}
);
hints = (
{
horizontal = 1;
place = "{573, 26}";
type = Stem;
},
{
place = "{85, 172}";
type = Stem;
},
{
horizontal = 1;
place = "{573, 26}";
type = Stem;
},
{
place = "{74, 172}";
type = Stem;
}
);
layerId = m01;
paths = (
{
closed = 1;
nodes = (
"414 308 LINE SMOOTH",
"416 324 OFFCURVE",
"417 340 OFFCURVE",
"417 354 CURVE SMOOTH",
"417 456 OFFCURVE",
"363 515 OFFCURVE",
"257 515 CURVE SMOOTH",
"138 515 OFFCURVE",
"72 442 OFFCURVE",
"53 312 CURVE SMOOTH",
"37 194 LINE SMOOTH",
"35 177 OFFCURVE",
"33 160 OFFCURVE",
"33 145 CURVE SMOOTH",
"33 46 OFFCURVE",
"84 -10 OFFCURVE",
"189 -10 CURVE SMOOTH",
"296 -10 OFFCURVE",
"364 47 OFFCURVE",
"390 153 CURVE",
"314 157 LINE",
"296 88 OFFCURVE",
"252 45 OFFCURVE",
"191 45 CURVE SMOOTH",
"134 45 OFFCURVE",
"109 82 OFFCURVE",
"109 145 CURVE SMOOTH",
"109 158 OFFCURVE",
"110 173 OFFCURVE",
"112 189 CURVE SMOOTH",
"129 308 LINE SMOOTH",
"141 398 OFFCURVE",
"184 460 OFFCURVE",
"255 460 CURVE SMOOTH",
"313 460 OFFCURVE",
"341 419 OFFCURVE",
"341 353 CURVE SMOOTH",
"341 340 OFFCURVE",
"340 327 OFFCURVE",
"338 312 CURVE SMOOTH",
"327 229 LINE",
"403 229 LINE"
);
},
{
closed = 1;
nodes = (
"97 229 LINE",
"403 229 LINE",
"410 284 LINE",
"104 284 LINE"
);
},
{
closed = 1;
nodes = (
"374 586 LINE",
"382 647 LINE",
"174 647 LINE",
"166 586 LINE"
);
}
);
width = 451;
}
);
leftKerningGroup = o;
rightKerningGroup = o;
unicode = 0113;
},
{
glyphname = eogonek;
lastChange = "2025-02-19 09:35:11 +0000";
layers = (
{
anchors = (
{
name = bottom;
position = "{188, 0}";
},
{
name = ogonek;
position = "{257, 0}";
},
{
name = top;
position = "{258, 505}";
}
);
layerId = m01;
paths = (
{
closed = 1;
nodes = (
"414 308 LINE SMOOTH",
"416 324 OFFCURVE",
"417 340 OFFCURVE",
"417 354 CURVE SMOOTH",
"417 456 OFFCURVE",
"363 515 OFFCURVE",
"257 515 CURVE SMOOTH",
"138 515 OFFCURVE",
"72 442 OFFCURVE",
"53 312 CURVE SMOOTH",
"37 194 LINE SMOOTH",
"35 177 OFFCURVE",
"33 160 OFFCURVE",
"33 145 CURVE SMOOTH",
"33 46 OFFCURVE",
"84 -10 OFFCURVE",
"189 -10 CURVE SMOOTH",
"296 -10 OFFCURVE",
"364 47 OFFCURVE",
"390 153 CURVE",
"314 157 LINE",
"296 88 OFFCURVE",
"252 45 OFFCURVE",
"191 45 CURVE SMOOTH",
"134 45 OFFCURVE",
"109 82 OFFCURVE",
"109 145 CURVE SMOOTH",
"109 158 OFFCURVE",
"110 173 OFFCURVE",
"112 189 CURVE SMOOTH",
"129 308 LINE SMOOTH",
"141 398 OFFCURVE",
"184 460 OFFCURVE",
"255 460 CURVE SMOOTH",
"313 460 OFFCURVE",
"341 419 OFFCURVE",
"341 353 CURVE SMOOTH",
"341 340 OFFCURVE",
"340 327 OFFCURVE",
"338 312 CURVE SMOOTH",
"327 229 LINE",
"403 229 LINE"
);
},
{
closed = 1;
nodes = (
"97 229 LINE",
"403 229 LINE",
"410 284 LINE",
"104 284 LINE"
);
},
{
closed = 1;
nodes = (
"166 -188 OFFCURVE",
"226 -188 CURVE SMOOTH",
"238 -188 OFFCURVE",
"252 -187 OFFCURVE",
"266 -185 CURVE",
"272 -124 LINE",
"263 -127 OFFCURVE",
"254 -129 OFFCURVE",
"243 -129 CURVE SMOOTH",
"216 -129 OFFCURVE",
"189 -117 OFFCURVE",
"189 -91 CURVE SMOOTH",
"189 -60 OFFCURVE",
"214 -31 OFFCURVE",
"258 -1 CURVE",
"190 1 LINE",
"141 -34 OFFCURVE",
"125 -62 OFFCURVE",
"125 -109 CURVE SMOOTH",
"125 -164 OFFCURVE"
);
}
);
width = 451;
}
);
leftKerningGroup = o;
rightKerningGroup = o;
unicode = 0119;
},
{
color = 10;
glyphname = f;
lastChange = "2025-02-19 09:35:05 +0000";
layers = (
{
anchors = (
{
name = bottom;
position = "{124, 0}";
},
{
name = top;
position = "{194, 505}";
}
);
layerId = m01;
paths = (
{
closed = 1;
nodes = (
"152 0 LINE",
"215 450 LINE",
"311 450 LINE",
"318 505 LINE",
"222 505 LINE",
"235 592 LINE SMOOTH",
"244 659 OFFCURVE",
"293 668 OFFCURVE",
"349 668 CURVE",
"356 727 LINE",
"317 727 LINE SMOOTH",
"229 727 OFFCURVE",
"175 707 OFFCURVE",
"159 596 CURVE SMOOTH",
"146 505 LINE",
"65 505 LINE",
"58 450 LINE",
"139 450 LINE",
"76 0 LINE"
);
}
);
vertWidth = 1200;
width = 319;
}
);
note = f;
rightKerningGroup = f;
unicode = 0066;
},
{
color = 10;
glyphname = g;
lastChange = "2025-02-19 09:35:11 +0000";
layers = (
{
anchors = (
{
name = bottom;
position = "{194, 0}";
},
{
name = top;
position = "{264, 505}";
}
);
layerId = m01;
paths = (
{
closed = 1;
nodes = (
"17 -77 OFFCURVE",
"16 -85 OFFCURVE",
"16 -93 CURVE SMOOTH",
"16 -164 OFFCURVE",
"64 -200 OFFCURVE",
"169 -200 CURVE SMOOTH",
"302 -200 OFFCURVE",
"340 -147 OFFCURVE",
"359 -12 CURVE",
"285 3 LINE",
"278 -44 LINE SMOOTH",
"268 -116 OFFCURVE",
"230 -145 OFFCURVE",
"169 -145 CURVE SMOOTH",
"120 -145 OFFCURVE",
"93 -128 OFFCURVE",
"93 -72 CURVE",
"18 -68 LINE"
);
},
{
closed = 1;
nodes = (
"283 -10 LINE",
"359 -10 LINE",
"431 505 LINE",
"355 505 LINE"
);
},
{
closed = 1;
nodes = (
"213 -10 OFFCURVE",
"258 7 OFFCURVE",
"292 48 CURVE",
"315 50 LINE",
"371 455 LINE",
"347 453 LINE",
"324 494 OFFCURVE",
"282 515 OFFCURVE",
"227 515 CURVE SMOOTH",
"128 515 OFFCURVE",
"72 442 OFFCURVE",
"53 312 CURVE SMOOTH",
"37 194 LINE SMOOTH",
"34 174 OFFCURVE",
"33 155 OFFCURVE",
"33 137 CURVE SMOOTH",
"33 43 OFFCURVE",
"74 -10 OFFCURVE",
"159 -10 CURVE SMOOTH"
);
},
{
closed = 1;
nodes = (
"300 113 OFFCURVE",
"262 45 OFFCURVE",
"191 45 CURVE SMOOTH",
"129 45 OFFCURVE",
"109 84 OFFCURVE",
"109 145 CURVE SMOOTH",
"109 161 OFFCURVE",
"110 180 OFFCURVE",
"113 199 CURVE SMOOTH",
"127 298 LINE SMOOTH",
"140 388 OFFCURVE",
"174 460 OFFCURVE",
"255 460 CURVE SMOOTH",
"310 460 OFFCURVE",
"331 417 OFFCURVE",
"331 355 CURVE SMOOTH",
"331 338 OFFCURVE",
"330 321 OFFCURVE",
"327 302 CURVE SMOOTH",
"313 203 LINE SMOOTH"
);
}
);
vertWidth = 1200;
width = 461;
}
);
leftKerningGroup = o;
leftMetricsKey = o;
note = g;
rightMetricsKey = d;
unicode = 0067;
},
{
glyphname = gbreve;
lastChange = "2025-02-19 09:35:11 +0000";
layers = (
{
anchors = (
{
name = bottom;
position = "{194, 0}";
},
{
name = top;
position = "{292, 704}";
}
);
hints = (
{
horizontal = 1;
place = "{563, 28}";
type = Stem;
},
{
place = "{261, 28}";
type = Stem;
},
{
place = "{64, 28}";
type = Stem;
}
);
layerId = m01;
paths = (
{
closed = 1;
nodes = (
"17 -77 OFFCURVE",
"16 -85 OFFCURVE",
"16 -93 CURVE SMOOTH",
"16 -164 OFFCURVE",
"64 -200 OFFCURVE",
"169 -200 CURVE SMOOTH",
"302 -200 OFFCURVE",
"340 -147 OFFCURVE",
"359 -12 CURVE",
"285 3 LINE",
"278 -44 LINE SMOOTH",
"268 -116 OFFCURVE",
"230 -145 OFFCURVE",
"169 -145 CURVE SMOOTH",
"120 -145 OFFCURVE",
"93 -128 OFFCURVE",
"93 -72 CURVE",
"18 -68 LINE"
);
},
{
closed = 1;
nodes = (
"283 -10 LINE",
"359 -10 LINE",
"431 505 LINE",
"355 505 LINE"
);
},
{
closed = 1;
nodes = (
"213 -10 OFFCURVE",
"258 7 OFFCURVE",
"292 48 CURVE",
"315 50 LINE",
"371 455 LINE",
"347 453 LINE",
"324 494 OFFCURVE",
"282 515 OFFCURVE",
"227 515 CURVE SMOOTH",
"128 515 OFFCURVE",
"72 442 OFFCURVE",
"53 312 CURVE SMOOTH",
"37 194 LINE SMOOTH",
"34 174 OFFCURVE",
"33 155 OFFCURVE",
"33 137 CURVE SMOOTH",
"33 43 OFFCURVE",
"74 -10 OFFCURVE",
"159 -10 CURVE SMOOTH"
);
},
{
closed = 1;
nodes = (
"300 113 OFFCURVE",
"262 45 OFFCURVE",
"191 45 CURVE SMOOTH",
"129 45 OFFCURVE",
"109 84 OFFCURVE",
"109 145 CURVE SMOOTH",
"109 161 OFFCURVE",
"110 180 OFFCURVE",
"113 199 CURVE SMOOTH",
"127 298 LINE SMOOTH",
"140 388 OFFCURVE",
"174 460 OFFCURVE",
"255 460 CURVE SMOOTH",
"310 460 OFFCURVE",
"331 417 OFFCURVE",
"331 355 CURVE SMOOTH",
"331 338 OFFCURVE",
"330 321 OFFCURVE",
"327 302 CURVE SMOOTH",
"313 203 LINE SMOOTH"
);
},
{
closed = 1;
nodes = (
"327 651 OFFCURVE",
"313 638 OFFCURVE",
"279 638 CURVE SMOOTH",
"253 638 OFFCURVE",
"244 650 OFFCURVE",
"247 702 CURVE",
"178 706 LINE",
"177 697 OFFCURVE",
"177 689 OFFCURVE",
"177 681 CURVE SMOOTH",
"177 607 OFFCURVE",
"205 586 OFFCURVE",
"279 586 CURVE SMOOTH",
"358 586 OFFCURVE",
"387 606 OFFCURVE",
"406 702 CURVE",
"339 706 LINE"
);
}
);
width = 461;
}
);
leftKerningGroup = o;
unicode = 011F;
},
{
glyphname = gcommaaccent;
lastChange = "2025-02-19 09:35:11 +0000";
layers = (
{
anchors = (
{
name = bottom;
position = "{194, 0}";
},
{
name = top;
position = "{315, 727}";
}
);
layerId = m01;
paths = (
{
closed = 1;
nodes = (
"17 -77 OFFCURVE",
"16 -85 OFFCURVE",
"16 -93 CURVE SMOOTH",
"16 -164 OFFCURVE",
"64 -200 OFFCURVE",
"169 -200 CURVE SMOOTH",
"302 -200 OFFCURVE",
"340 -147 OFFCURVE",
"359 -12 CURVE",
"285 3 LINE",
"278 -44 LINE SMOOTH",
"268 -116 OFFCURVE",
"230 -145 OFFCURVE",
"169 -145 CURVE SMOOTH",
"120 -145 OFFCURVE",
"93 -128 OFFCURVE",
"93 -72 CURVE",
"18 -68 LINE"
);
},
{
closed = 1;
nodes = (
"283 -10 LINE",
"359 -10 LINE",
"431 505 LINE",
"355 505 LINE"
);
},
{
closed = 1;
nodes = (
"213 -10 OFFCURVE",
"258 7 OFFCURVE",
"292 48 CURVE",
"315 50 LINE",
"371 455 LINE",
"347 453 LINE",
"324 494 OFFCURVE",
"282 515 OFFCURVE",
"227 515 CURVE SMOOTH",
"128 515 OFFCURVE",
"72 442 OFFCURVE",
"53 312 CURVE SMOOTH",
"37 194 LINE SMOOTH",
"34 174 OFFCURVE",
"33 155 OFFCURVE",
"33 137 CURVE SMOOTH",
"33 43 OFFCURVE",
"74 -10 OFFCURVE",
"159 -10 CURVE SMOOTH"
);
},
{
closed = 1;
nodes = (
"300 113 OFFCURVE",
"262 45 OFFCURVE",
"191 45 CURVE SMOOTH",
"129 45 OFFCURVE",
"109 84 OFFCURVE",
"109 145 CURVE SMOOTH",
"109 161 OFFCURVE",
"110 180 OFFCURVE",
"113 199 CURVE SMOOTH",
"127 298 LINE SMOOTH",
"140 388 OFFCURVE",
"174 460 OFFCURVE",
"255 460 CURVE SMOOTH",
"310 460 OFFCURVE",
"331 417 OFFCURVE",
"331 355 CURVE SMOOTH",
"331 338 OFFCURVE",
"330 321 OFFCURVE",
"327 302 CURVE SMOOTH",
"313 203 LINE SMOOTH"
);
},
{
closed = 1;
nodes = (
"319 727 LINE",
"232 561 LINE",
"313 561 LINE",
"373 727 LINE"
);
}
);
width = 461;
}
);
leftKerningGroup = o;
unicode = 0123;
},
{
glyphname = gdotaccent;
lastChange = "2025-02-19 09:35:11 +0000";
layers = (
{
anchors = (
{
name = bottom;
position = "{194, 0}";
},
{
name = top;
position = "{288, 674}";
}
);
layerId = m01;
paths = (
{
closed = 1;
nodes = (
"17 -77 OFFCURVE",
"16 -85 OFFCURVE",
"16 -93 CURVE SMOOTH",
"16 -164 OFFCURVE",
"64 -200 OFFCURVE",
"169 -200 CURVE SMOOTH",
"302 -200 OFFCURVE",
"340 -147 OFFCURVE",
"359 -12 CURVE",
"285 3 LINE",
"278 -44 LINE SMOOTH",
"268 -116 OFFCURVE",
"230 -145 OFFCURVE",
"169 -145 CURVE SMOOTH",
"120 -145 OFFCURVE",
"93 -128 OFFCURVE",
"93 -72 CURVE",
"18 -68 LINE"
);
},
{
closed = 1;
nodes = (
"283 -10 LINE",
"359 -10 LINE",
"431 505 LINE",
"355 505 LINE"
);
},
{
closed = 1;
nodes = (
"213 -10 OFFCURVE",
"258 7 OFFCURVE",
"292 48 CURVE",
"315 50 LINE",
"371 455 LINE",
"347 453 LINE",
"324 494 OFFCURVE",
"282 515 OFFCURVE",
"227 515 CURVE SMOOTH",
"128 515 OFFCURVE",
"72 442 OFFCURVE",
"53 312 CURVE SMOOTH",
"37 194 LINE SMOOTH",
"34 174 OFFCURVE",
"33 155 OFFCURVE",
"33 137 CURVE SMOOTH",
"33 43 OFFCURVE",
"74 -10 OFFCURVE",
"159 -10 CURVE SMOOTH"
);
},
{
closed = 1;
nodes = (
"300 113 OFFCURVE",
"262 45 OFFCURVE",
"191 45 CURVE SMOOTH",
"129 45 OFFCURVE",
"109 84 OFFCURVE",
"109 145 CURVE SMOOTH",
"109 161 OFFCURVE",
"110 180 OFFCURVE",
"113 199 CURVE SMOOTH",
"127 298 LINE SMOOTH",
"140 388 OFFCURVE",
"174 460 OFFCURVE",
"255 460 CURVE SMOOTH",
"310 460 OFFCURVE",
"331 417 OFFCURVE",
"331 355 CURVE SMOOTH",
"331 338 OFFCURVE",
"330 321 OFFCURVE",
"327 302 CURVE SMOOTH",
"313 203 LINE SMOOTH"
);
},
{
closed = 1;
nodes = (
"317 591 LINE",
"328 674 LINE",
"248 674 LINE",
"237 591 LINE"
);
}
);
width = 461;
}
);
leftKerningGroup = o;
unicode = 0121;
},
{
color = 10;
glyphname = h;
lastChange = "2025-02-19 09:35:11 +0000";
layers = (
{
anchors = (
{
name = bottom;
position = "{202, 0}";
},
{
name = center;
position = "{237, 253}";
},
{
name = top;
position = "{272, 505}";
}
);
background = {
paths = (
{
closed = 1;
nodes = (
"141 0 LINE",
"141 312 LINE SMOOTH",
"141 419 OFFCURVE",
"165 456 OFFCURVE",
"234 456 CURVE SMOOTH",
"294 456 OFFCURVE",
"310 426 OFFCURVE",
"310 312 CURVE SMOOTH",
"310 0 LINE",
"386 0 LINE",
"386 310 LINE SMOOTH",
"386 460 OFFCURVE",
"354 511 OFFCURVE",
"258 511 CURVE SMOOTH",
"210 511 OFFCURVE",
"173 497 OFFCURVE",
"141 468 CURVE",
"141 727 LINE",
"65 727 LINE",
"65 0 LINE"
);
}
);
};
layerId = m01;
paths = (
{
closed = 1;
nodes = (
"30 0 LINE",
"106 0 LINE",
"208 727 LINE",
"132 727 LINE"
);
},
{
closed = 1;
nodes = (
"119 262 LINE",
"142 262 LINE",
"147 298 LINE SMOOTH",
"160 388 OFFCURVE",
"199 460 OFFCURVE",
"270 460 CURVE SMOOTH",
"332 460 OFFCURVE",
"349 427 OFFCURVE",
"349 376 CURVE SMOOTH",
"349 354 OFFCURVE",
"346 329 OFFCURVE",
"342 302 CURVE SMOOTH",
"300 0 LINE",
"376 0 LINE",
"419 308 LINE SMOOTH",
"423 335 OFFCURVE",
"425 359 OFFCURVE",
"425 380 CURVE SMOOTH",
"425 477 OFFCURVE",
"386 515 OFFCURVE",
"307 515 CURVE SMOOTH",
"257 515 OFFCURVE",
"206 502 OFFCURVE",
"169 457 CURVE",
"146 455 LINE"
);
}
);
vertWidth = 1200;
width = 471;
}
);
leftMetricsKey = n;
note = h;
rightKerningGroup = n;
rightMetricsKey = n;
unicode = 0068;
},
{
color = 10;
glyphname = hbar;
lastChange = "2025-02-19 09:35:11 +0000";
layers = (
{
anchors = (
{
name = bottom;
position = "{202, 0}";
},
{
name = center;
position = "{237, 253}";
},
{
name = top;
position = "{272, 505}";
}
);
layerId = m01;
paths = (
{
closed = 1;
nodes = (
"47 586 LINE",
"339 586 LINE",
"347 642 LINE",
"55 642 LINE"
);
},
{
closed = 1;
nodes = (
"30 0 LINE",
"106 0 LINE",
"208 727 LINE",
"132 727 LINE"
);
},
{
closed = 1;
nodes = (
"119 262 LINE",
"142 262 LINE",
"147 298 LINE SMOOTH",
"160 388 OFFCURVE",
"199 460 OFFCURVE",
"270 460 CURVE SMOOTH",
"332 460 OFFCURVE",
"349 427 OFFCURVE",
"349 376 CURVE SMOOTH",
"349 354 OFFCURVE",
"346 329 OFFCURVE",
"342 302 CURVE SMOOTH",
"300 0 LINE",
"376 0 LINE",
"419 308 LINE SMOOTH",
"423 335 OFFCURVE",
"425 359 OFFCURVE",
"425 380 CURVE SMOOTH",
"425 477 OFFCURVE",
"386 515 OFFCURVE",
"307 515 CURVE SMOOTH",
"257 515 OFFCURVE",
"206 502 OFFCURVE",
"169 457 CURVE",
"146 455 LINE"
);
}
);
width = 471;
}
);
rightKerningGroup = n;
unicode = 0127;
},
{
color = 10;
glyphname = i;
lastChange = "2025-02-19 09:35:05 +0000";
layers = (
{
anchors = (
{
name = bottom;
position = "{73, 0}";
}
);
layerId = m01;
paths = (
{
closed = 1;
nodes = (
"111 0 LINE",
"181 505 LINE",
"105 505 LINE",
"35 0 LINE"
);
},
{
closed = 1;
nodes = (
"206 645 LINE",
"218 727 LINE",
"132 727 LINE",
"120 645 LINE"
);
}
);
vertWidth = 1200;
width = 216;
}
);
leftMetricsKey = n;
note = i;
rightMetricsKey = d;
unicode = 0069;
},
{
glyphname = idotless;
lastChange = "2025-02-19 09:35:05 +0000";
layers = (
{
anchors = (
{
name = bottom;
position = "{73, 0}";
},
{
name = ogonek;
position = "{111, 0}";
},
{
name = top;
position = "{143, 505}";
}
);
layerId = m01;
paths = (
{
closed = 1;
nodes = (
"111 0 LINE",
"181 505 LINE",
"105 505 LINE",
"35 0 LINE"
);
}
);
width = 216;
}
);
leftMetricsKey = "=i+5";
rightMetricsKey = "=i+5";
unicode = 0131;
},
{
glyphname = iogonek;
lastChange = "2025-02-19 09:35:11 +0000";
layers = (
{
anchors = (
{
name = bottom;
position = "{73, 0}";
},
{
name = ogonek;
position = "{111, 0}";
},
{
name = top;
position = "{167, 674}";
}
);
layerId = m01;
paths = (
{
closed = 1;
nodes = (
"111 0 LINE",
"181 505 LINE",
"105 505 LINE",
"35 0 LINE"
);
},
{
closed = 1;
nodes = (
"196 591 LINE",
"207 674 LINE",
"127 674 LINE",
"116 591 LINE"
);
},
{
closed = 1;
nodes = (
"20 -188 OFFCURVE",
"80 -188 CURVE SMOOTH",
"92 -188 OFFCURVE",
"106 -187 OFFCURVE",
"120 -185 CURVE",
"126 -124 LINE",
"117 -127 OFFCURVE",
"108 -129 OFFCURVE",
"97 -129 CURVE SMOOTH",
"70 -129 OFFCURVE",
"43 -117 OFFCURVE",
"43 -91 CURVE SMOOTH",
"43 -60 OFFCURVE",
"68 -31 OFFCURVE",
"112 -1 CURVE",
"44 1 LINE",
"-5 -34 OFFCURVE",
"-21 -62 OFFCURVE",
"-21 -109 CURVE SMOOTH",
"-21 -164 OFFCURVE"
);
}
);
width = 216;
}
);
unicode = 012F;
},
{
color = 10;
glyphname = j;
lastChange = "2025-02-19 09:35:05 +0000";
layers = (
{
layerId = m01;
paths = (
{
closed = 1;
nodes = (
"-32 -190 LINE SMOOTH",
"56 -190 OFFCURVE",
"82 -169 OFFCURVE",
"98 -56 CURVE SMOOTH",
"176 505 LINE",
"100 505 LINE",
"20 -67 LINE SMOOTH",
"12 -122 OFFCURVE",
"1 -126 OFFCURVE",
"-55 -126 CURVE",
"-62 -190 LINE"
);
},
{
closed = 1;
nodes = (
"201 645 LINE",
"213 727 LINE",
"127 727 LINE",
"115 645 LINE"
);
}
);
vertWidth = 1200;
width = 211;
}
);
note = j;
rightMetricsKey = d;
unicode = 006A;
},
{
color = 10;
glyphname = k;
lastChange = "2025-02-19 09:35:05 +0000";
layers = (
{
anchors = (
{
name = bottom;
position = "{204, 0}";
},
{
name = top;
position = "{251, 505}";
}
);
layerId = m01;
paths = (
{
closed = 1;
nodes = (
"106 0 LINE",
"146 284 LINE",
"292 0 LINE",
"386 0 LINE",
"236 285 LINE",
"429 505 LINE",
"336 505 LINE",
"147 298 LINE",
"208 727 LINE",
"132 727 LINE",
"30 0 LINE"
);
}
);
vertWidth = 1200;
width = 432;
}
);
leftMetricsKey = n;
note = k;
rightKerningGroup = x;
unicode = 006B;
},
{
color = 10;
glyphname = l;
lastChange = "2025-02-19 09:35:05 +0000";
layers = (
{
anchors = (
{
name = bottom;
position = "{68, 0}";
},
{
name = center;
position = "{103, 253}";
},
{
name = top;
position = "{170, 727}";
},
{
name = topright;
position = "{227, 505}";
}
);
layerId = m01;
paths = (
{
closed = 1;
nodes = (
"106 0 LINE",
"208 727 LINE",
"132 727 LINE",
"30 0 LINE"
);
}
);
vertWidth = 1200;
width = 206;
}
);
leftMetricsKey = n;
note = l;
rightMetricsKey = d;
unicode = 006C;
},
{
color = 10;
glyphname = lslash;
lastChange = "2025-02-19 09:35:05 +0000";
layers = (
{
components = (
{
name = l;
}
);
layerId = m01;
paths = (
{
closed = 1;
nodes = (
"9 317 LINE",
"0 251 LINE",
"224 380 LINE",
"233 446 LINE"
);
}
);
width = 206;
}
);
unicode = 0142;
},
{
color = 10;
glyphname = m;
lastChange = "2025-02-19 09:35:11 +0000";
layers = (
{
background = {
components = (
{
name = _part.shoulder;
transform = "{1, 0, 0, 1, 28, 0}";
}
);
paths = (
{
closed = 1;
nodes = (
"388 262 LINE",
"411 262 LINE",
"411 300 LINE SMOOTH",
"411 390 OFFCURVE",
"438 460 OFFCURVE",
"508 460 CURVE SMOOTH",
"598 460 OFFCURVE",
"605 390 OFFCURVE",
"605 300 CURVE SMOOTH",
"605 0 LINE",
"681 0 LINE",
"681 310 LINE SMOOTH",
"681 460 OFFCURVE",
"638 515 OFFCURVE",
"543 515 CURVE SMOOTH",
"483 515 OFFCURVE",
"423 495 OFFCURVE",
"388 419 CURVE",
"368 402 LINE"
);
}
);
};
layerId = m01;
paths = (
{
closed = 1;
nodes = (
"30 0 LINE",
"106 0 LINE",
"147 298 LINE SMOOTH",
"160 388 OFFCURVE",
"199 460 OFFCURVE",
"270 460 CURVE SMOOTH",
"332 460 OFFCURVE",
"349 427 OFFCURVE",
"349 376 CURVE SMOOTH",
"349 354 OFFCURVE",
"346 329 OFFCURVE",
"342 302 CURVE SMOOTH",
"300 0 LINE",
"376 0 LINE",
"417 298 LINE SMOOTH",
"430 388 OFFCURVE",
"469 460 OFFCURVE",
"540 460 CURVE SMOOTH",
"602 460 OFFCURVE",
"619 427 OFFCURVE",
"619 376 CURVE SMOOTH",
"619 354 OFFCURVE",
"616 329 OFFCURVE",
"612 302 CURVE SMOOTH",
"570 0 LINE",
"646 0 LINE",
"689 308 LINE SMOOTH",
"693 335 OFFCURVE",
"695 359 OFFCURVE",
"695 380 CURVE SMOOTH",
"695 477 OFFCURVE",
"656 515 OFFCURVE",
"577 515 CURVE SMOOTH",
"522 515 OFFCURVE",
"465 500 OFFCURVE",
"419 433 CURVE",
"408 489 OFFCURVE",
"370 515 OFFCURVE",
"307 515 CURVE SMOOTH",
"257 515 OFFCURVE",
"206 502 OFFCURVE",
"169 457 CURVE",
"166 505 LINE",
"100 505 LINE"
);
}
);
vertWidth = 1200;
width = 741;
}
);
leftKerningGroup = r;
leftMetricsKey = n;
note = m;
rightKerningGroup = n;
rightMetricsKey = n;
unicode = 006D;
},
{
color = 10;
glyphname = n;
lastChange = "2025-02-19 09:35:11 +0000";
layers = (
{
anchors = (
{
name = bottom;
position = "{206, 0}";
},
{
name = top;
position = "{276, 505}";
}
);
layerId = m01;
paths = (
{
closed = 1;
nodes = (
"30 0 LINE",
"106 0 LINE",
"147 298 LINE SMOOTH",
"160 388 OFFCURVE",
"199 460 OFFCURVE",
"270 460 CURVE SMOOTH",
"332 460 OFFCURVE",
"349 427 OFFCURVE",
"349 376 CURVE SMOOTH",
"349 354 OFFCURVE",
"346 329 OFFCURVE",
"342 302 CURVE SMOOTH",
"300 0 LINE",
"376 0 LINE",
"419 308 LINE SMOOTH",
"423 335 OFFCURVE",
"425 359 OFFCURVE",
"425 380 CURVE SMOOTH",
"425 477 OFFCURVE",
"386 515 OFFCURVE",
"307 515 CURVE SMOOTH",
"257 515 OFFCURVE",
"206 502 OFFCURVE",
"169 457 CURVE",
"166 505 LINE",
"100 505 LINE"
);
}
);
vertWidth = 1200;
width = 471;
}
);
leftKerningGroup = r;
note = n;
rightKerningGroup = n;
unicode = 006E;
},
{
glyphname = nacute;
lastChange = "2025-02-19 09:35:11 +0000";
layers = (
{
anchors = (
{
name = bottom;
position = "{206, 0}";
},
{
name = top;
position = "{308, 727}";
}
);
layerId = m01;
paths = (
{
closed = 1;
nodes = (
"30 0 LINE",
"106 0 LINE",
"147 298 LINE SMOOTH",
"160 388 OFFCURVE",
"199 460 OFFCURVE",
"270 460 CURVE SMOOTH",
"332 460 OFFCURVE",
"349 427 OFFCURVE",
"349 376 CURVE SMOOTH",
"349 354 OFFCURVE",
"346 329 OFFCURVE",
"342 302 CURVE SMOOTH",
"300 0 LINE",
"376 0 LINE",
"419 308 LINE SMOOTH",
"423 335 OFFCURVE",
"425 359 OFFCURVE",
"425 380 CURVE SMOOTH",
"425 477 OFFCURVE",
"386 515 OFFCURVE",
"307 515 CURVE SMOOTH",
"257 515 OFFCURVE",
"206 502 OFFCURVE",
"169 457 CURVE",
"166 505 LINE",
"100 505 LINE"
);
},
{
closed = 1;
nodes = (
"321 586 LINE",
"462 727 LINE",
"362 727 LINE",
"253 586 LINE"
);
}
);
width = 471;
}
);
leftKerningGroup = r;
rightKerningGroup = n;
unicode = 0144;
},
{
glyphname = ncaron;
lastChange = "2025-02-19 09:35:11 +0000";
layers = (
{
anchors = (
{
name = bottom;
position = "{206, 0}";
},
{
name = top;
position = "{308, 727}";
}
);
hints = (
{
horizontal = 1;
place = "{551, 106}";
type = Stem;
},
{
place = "{60, 257}";
type = Stem;
}
);
layerId = m01;
paths = (
{
closed = 1;
nodes = (
"30 0 LINE",
"106 0 LINE",
"147 298 LINE SMOOTH",
"160 388 OFFCURVE",
"199 460 OFFCURVE",
"270 460 CURVE SMOOTH",
"332 460 OFFCURVE",
"349 427 OFFCURVE",
"349 376 CURVE SMOOTH",
"349 354 OFFCURVE",
"346 329 OFFCURVE",
"342 302 CURVE SMOOTH",
"300 0 LINE",
"376 0 LINE",
"419 308 LINE SMOOTH",
"423 335 OFFCURVE",
"425 359 OFFCURVE",
"425 380 CURVE SMOOTH",
"425 477 OFFCURVE",
"386 515 OFFCURVE",
"307 515 CURVE SMOOTH",
"257 515 OFFCURVE",
"206 502 OFFCURVE",
"169 457 CURVE",
"166 505 LINE",
"100 505 LINE"
);
},
{
closed = 1;
nodes = (
"363 727 LINE",
"293 633 LINE",
"251 727 LINE",
"177 727 LINE",
"247 586 LINE",
"329 586 LINE",
"439 727 LINE"
);
}
);
width = 471;
}
);
leftKerningGroup = r;
rightKerningGroup = n;
unicode = 0148;
},
{
glyphname = ncommaaccent;
lastChange = "2025-02-19 09:35:11 +0000";
layers = (
{
anchors = (
{
name = bottom;
position = "{155, -231}";
},
{
name = top;
position = "{276, 505}";
}
);
layerId = m01;
paths = (
{
closed = 1;
nodes = (
"30 0 LINE",
"106 0 LINE",
"147 298 LINE SMOOTH",
"160 388 OFFCURVE",
"199 460 OFFCURVE",
"270 460 CURVE SMOOTH",
"332 460 OFFCURVE",
"349 427 OFFCURVE",
"349 376 CURVE SMOOTH",
"349 354 OFFCURVE",
"346 329 OFFCURVE",
"342 302 CURVE SMOOTH",
"300 0 LINE",
"376 0 LINE",
"419 308 LINE SMOOTH",
"423 335 OFFCURVE",
"425 359 OFFCURVE",
"425 380 CURVE SMOOTH",
"425 477 OFFCURVE",
"386 515 OFFCURVE",
"307 515 CURVE SMOOTH",
"257 515 OFFCURVE",
"206 502 OFFCURVE",
"169 457 CURVE",
"166 505 LINE",
"100 505 LINE"
);
},
{
closed = 1;
nodes = (
"150 -231 LINE",
"237 -65 LINE",
"156 -65 LINE",
"96 -231 LINE"
);
}
);
width = 471;
}
);
leftKerningGroup = r;
rightKerningGroup = n;
unicode = 0146;
},
{
color = 10;
glyphname = eng;
lastChange = "2025-02-19 09:35:11 +0000";
layers = (
{
anchors = (
{
name = bottom;
position = "{206, 0}";
},
{
name = top;
position = "{276, 505}";
}
);
layerId = m01;
paths = (
{
closed = 1;
nodes = (
"238 -190 LINE SMOOTH",
"326 -190 OFFCURVE",
"352 -169 OFFCURVE",
"368 -56 CURVE SMOOTH",
"390 105 LINE",
"314 105 LINE",
"290 -67 LINE SMOOTH",
"282 -122 OFFCURVE",
"273 -126 OFFCURVE",
"217 -126 CURVE",
"210 -190 LINE"
);
},
{
closed = 1;
nodes = (
"30 0 LINE",
"106 0 LINE",
"147 298 LINE SMOOTH",
"160 388 OFFCURVE",
"199 460 OFFCURVE",
"270 460 CURVE SMOOTH",
"332 460 OFFCURVE",
"349 427 OFFCURVE",
"349 376 CURVE SMOOTH",
"349 354 OFFCURVE",
"346 329 OFFCURVE",
"342 302 CURVE SMOOTH",
"300 0 LINE",
"376 0 LINE",
"419 308 LINE SMOOTH",
"423 335 OFFCURVE",
"425 359 OFFCURVE",
"425 380 CURVE SMOOTH",
"425 477 OFFCURVE",
"386 515 OFFCURVE",
"307 515 CURVE SMOOTH",
"257 515 OFFCURVE",
"206 502 OFFCURVE",
"169 457 CURVE",
"166 505 LINE",
"100 505 LINE"
);
}
);
width = 481;
}
);
leftKerningGroup = r;
rightKerningGroup = n;
unicode = 014B;
},
{
glyphname = ntilde;
lastChange = "2025-02-19 09:35:14 +0000";
layers = (
{
anchors = (
{
name = bottom;
position = "{206, 0}";
},
{
name = top;
position = "{304, 702}";
}
);
layerId = m01;
paths = (
{
closed = 1;
nodes = (
"30 0 LINE",
"106 0 LINE",
"147 298 LINE SMOOTH",
"160 388 OFFCURVE",
"199 460 OFFCURVE",
"270 460 CURVE SMOOTH",
"332 460 OFFCURVE",
"349 427 OFFCURVE",
"349 376 CURVE SMOOTH",
"349 354 OFFCURVE",
"346 329 OFFCURVE",
"342 302 CURVE SMOOTH",
"300 0 LINE",
"376 0 LINE",
"419 308 LINE SMOOTH",
"423 335 OFFCURVE",
"425 359 OFFCURVE",
"425 380 CURVE SMOOTH",
"425 477 OFFCURVE",
"386 515 OFFCURVE",
"307 515 CURVE SMOOTH",
"257 515 OFFCURVE",
"206 502 OFFCURVE",
"169 457 CURVE",
"166 505 LINE",
"100 505 LINE"
);
},
{
closed = 1;
nodes = (
"184 584 LINE",
"190 609 OFFCURVE",
"214 631 OFFCURVE",
"240 631 CURVE SMOOTH",
"275 631 OFFCURVE",
"296 593 OFFCURVE",
"344 593 CURVE SMOOTH",
"369 593 OFFCURVE",
"392 603 OFFCURVE",
"414 623 CURVE",
"433 643 OFFCURVE",
"447 671 OFFCURVE",
"454 700 CURVE",
"402 704 LINE",
"395 674 OFFCURVE",
"378 657 OFFCURVE",
"350 657 CURVE SMOOTH",
"309 657 OFFCURVE",
"305 694 OFFCURVE",
"249 694 CURVE SMOOTH",
"192 694 OFFCURVE",
"155 657 OFFCURVE",
"138 588 CURVE"
);
}
);
width = 471;
}
);
leftKerningGroup = r;
rightKerningGroup = n;
unicode = 00F1;
},
{
color = 10;
glyphname = o;
lastChange = "2025-02-19 09:35:11 +0000";
layers = (
{
anchors = (
{
name = bottom;
position = "{188, 0}";
},
{
name = center;
position = "{225, 253}";
},
{
name = ogonek;
position = "{372, 10}";
},
{
name = top;
position = "{258, 505}";
},
{
name = topright;
position = "{466, 505}";
}
);
layerId = m01;
paths = (
{
closed = 1;
nodes = (
"308 -10 OFFCURVE",
"379 60 OFFCURVE",
"397 190 CURVE SMOOTH",
"414 308 LINE SMOOTH",
"416 324 OFFCURVE",
"417 340 OFFCURVE",
"417 354 CURVE SMOOTH",
"417 456 OFFCURVE",
"363 515 OFFCURVE",
"257 515 CURVE SMOOTH",
"138 515 OFFCURVE",
"72 442 OFFCURVE",
"53 312 CURVE SMOOTH",
"37 194 LINE SMOOTH",
"35 177 OFFCURVE",
"33 160 OFFCURVE",
"33 145 CURVE SMOOTH",
"33 46 OFFCURVE",
"84 -10 OFFCURVE",
"189 -10 CURVE SMOOTH"
);
},
{
closed = 1;
nodes = (
"134 45 OFFCURVE",
"109 82 OFFCURVE",
"109 145 CURVE SMOOTH",
"109 158 OFFCURVE",
"110 173 OFFCURVE",
"112 189 CURVE SMOOTH",
"129 308 LINE SMOOTH",
"141 398 OFFCURVE",
"184 460 OFFCURVE",
"255 460 CURVE SMOOTH",
"313 460 OFFCURVE",
"341 419 OFFCURVE",
"341 353 CURVE SMOOTH",
"341 340 OFFCURVE",
"340 327 OFFCURVE",
"338 312 CURVE SMOOTH",
"322 193 LINE SMOOTH",
"309 103 OFFCURVE",
"262 45 OFFCURVE",
"191 45 CURVE SMOOTH"
);
}
);
vertWidth = 1200;
width = 451;
}
);
leftKerningGroup = o;
note = o;
rightKerningGroup = o;
unicode = 006F;
},
{
glyphname = oacute;
lastChange = "2025-02-19 09:35:11 +0000";
layers = (
{
anchors = (
{
name = bottom;
position = "{188, 0}";
},
{
name = center;
position = "{225, 253}";
},
{
name = ogonek;
position = "{372, 10}";
},
{
name = top;
position = "{290, 727}";
},
{
name = topright;
position = "{466, 505}";
}
);
layerId = m01;
paths = (
{
closed = 1;
nodes = (
"308 -10 OFFCURVE",
"379 60 OFFCURVE",
"397 190 CURVE SMOOTH",
"414 308 LINE SMOOTH",
"416 324 OFFCURVE",
"417 340 OFFCURVE",
"417 354 CURVE SMOOTH",
"417 456 OFFCURVE",
"363 515 OFFCURVE",
"257 515 CURVE SMOOTH",
"138 515 OFFCURVE",
"72 442 OFFCURVE",
"53 312 CURVE SMOOTH",
"37 194 LINE SMOOTH",
"35 177 OFFCURVE",
"33 160 OFFCURVE",
"33 145 CURVE SMOOTH",
"33 46 OFFCURVE",
"84 -10 OFFCURVE",
"189 -10 CURVE SMOOTH"
);
},
{
closed = 1;
nodes = (
"134 45 OFFCURVE",
"109 82 OFFCURVE",
"109 145 CURVE SMOOTH",
"109 158 OFFCURVE",
"110 173 OFFCURVE",
"112 189 CURVE SMOOTH",
"129 308 LINE SMOOTH",
"141 398 OFFCURVE",
"184 460 OFFCURVE",
"255 460 CURVE SMOOTH",
"313 460 OFFCURVE",
"341 419 OFFCURVE",
"341 353 CURVE SMOOTH",
"341 340 OFFCURVE",
"340 327 OFFCURVE",
"338 312 CURVE SMOOTH",
"322 193 LINE SMOOTH",
"309 103 OFFCURVE",
"262 45 OFFCURVE",
"191 45 CURVE SMOOTH"
);
},
{
closed = 1;
nodes = (
"303 586 LINE",
"444 727 LINE",
"344 727 LINE",
"235 586 LINE"
);
}
);
width = 451;
}
);
leftKerningGroup = o;
rightKerningGroup = o;
unicode = 00F3;
},
{
glyphname = ocircumflex;
lastChange = "2025-02-19 09:35:11 +0000";
layers = (
{
anchors = (
{
name = bottom;
position = "{188, 0}";
},
{
name = center;
position = "{225, 253}";
},
{
name = ogonek;
position = "{372, 10}";
},
{
name = top;
position = "{290, 727}";
},
{
name = topright;
position = "{466, 505}";
}
);
layerId = m01;
paths = (
{
closed = 1;
nodes = (
"308 -10 OFFCURVE",
"379 60 OFFCURVE",
"397 190 CURVE SMOOTH",
"414 308 LINE SMOOTH",
"416 324 OFFCURVE",
"417 340 OFFCURVE",
"417 354 CURVE SMOOTH",
"417 456 OFFCURVE",
"363 515 OFFCURVE",
"257 515 CURVE SMOOTH",
"138 515 OFFCURVE",
"72 442 OFFCURVE",
"53 312 CURVE SMOOTH",
"37 194 LINE SMOOTH",
"35 177 OFFCURVE",
"33 160 OFFCURVE",
"33 145 CURVE SMOOTH",
"33 46 OFFCURVE",
"84 -10 OFFCURVE",
"189 -10 CURVE SMOOTH"
);
},
{
closed = 1;
nodes = (
"134 45 OFFCURVE",
"109 82 OFFCURVE",
"109 145 CURVE SMOOTH",
"109 158 OFFCURVE",
"110 173 OFFCURVE",
"112 189 CURVE SMOOTH",
"129 308 LINE SMOOTH",
"141 398 OFFCURVE",
"184 460 OFFCURVE",
"255 460 CURVE SMOOTH",
"313 460 OFFCURVE",
"341 419 OFFCURVE",
"341 353 CURVE SMOOTH",
"341 340 OFFCURVE",
"340 327 OFFCURVE",
"338 312 CURVE SMOOTH",
"322 193 LINE SMOOTH",
"309 103 OFFCURVE",
"262 45 OFFCURVE",
"191 45 CURVE SMOOTH"
);
},
{
closed = 1;
nodes = (
"214 586 LINE",
"284 680 LINE",
"326 586 LINE",
"400 586 LINE",
"330 727 LINE",
"248 727 LINE",
"138 586 LINE"
);
}
);
width = 451;
}
);
leftKerningGroup = o;
rightKerningGroup = o;
unicode = 00F4;
},
{
glyphname = odieresis;
lastChange = "2025-02-19 09:35:11 +0000";
layers = (
{
anchors = (
{
name = bottom;
position = "{188, 0}";
},
{
name = center;
position = "{225, 253}";
},
{
name = ogonek;
position = "{372, 10}";
},
{
name = top;
position = "{282, 674}";
},
{
name = topright;
position = "{466, 505}";
}
);
hints = (
{
horizontal = 1;
place = "{576, 48}";
type = Stem;
},
{
place = "{238, 45}";
type = Stem;
},
{
place = "{58, 45}";
type = Stem;
},
{
horizontal = 1;
place = "{576, 48}";
type = Stem;
},
{
place = "{227, 45}";
type = Stem;
},
{
place = "{47, 45}";
type = Stem;
}
);
layerId = m01;
paths = (
{
closed = 1;
nodes = (
"308 -10 OFFCURVE",
"379 60 OFFCURVE",
"397 190 CURVE SMOOTH",
"414 308 LINE SMOOTH",
"416 324 OFFCURVE",
"417 340 OFFCURVE",
"417 354 CURVE SMOOTH",
"417 456 OFFCURVE",
"363 515 OFFCURVE",
"257 515 CURVE SMOOTH",
"138 515 OFFCURVE",
"72 442 OFFCURVE",
"53 312 CURVE SMOOTH",
"37 194 LINE SMOOTH",
"35 177 OFFCURVE",
"33 160 OFFCURVE",
"33 145 CURVE SMOOTH",
"33 46 OFFCURVE",
"84 -10 OFFCURVE",
"189 -10 CURVE SMOOTH"
);
},
{
closed = 1;
nodes = (
"134 45 OFFCURVE",
"109 82 OFFCURVE",
"109 145 CURVE SMOOTH",
"109 158 OFFCURVE",
"110 173 OFFCURVE",
"112 189 CURVE SMOOTH",
"129 308 LINE SMOOTH",
"141 398 OFFCURVE",
"184 460 OFFCURVE",
"255 460 CURVE SMOOTH",
"313 460 OFFCURVE",
"341 419 OFFCURVE",
"341 353 CURVE SMOOTH",
"341 340 OFFCURVE",
"340 327 OFFCURVE",
"338 312 CURVE SMOOTH",
"322 193 LINE SMOOTH",
"309 103 OFFCURVE",
"262 45 OFFCURVE",
"191 45 CURVE SMOOTH"
);
},
{
closed = 1;
nodes = (
"401 591 LINE",
"412 674 LINE",
"332 674 LINE",
"321 591 LINE"
);
},
{
closed = 1;
nodes = (
"221 591 LINE",
"232 674 LINE",
"152 674 LINE",
"141 591 LINE"
);
}
);
width = 451;
}
);
leftKerningGroup = o;
rightKerningGroup = o;
unicode = 00F6;
},
{
glyphname = ograve;
lastChange = "2025-02-19 09:35:11 +0000";
layers = (
{
anchors = (
{
name = bottom;
position = "{188, 0}";
},
{
name = center;
position = "{225, 253}";
},
{
name = ogonek;
position = "{372, 10}";
},
{
name = top;
position = "{290, 727}";
},
{
name = topright;
position = "{466, 505}";
}
);
layerId = m01;
paths = (
{
closed = 1;
nodes = (
"308 -10 OFFCURVE",
"379 60 OFFCURVE",
"397 190 CURVE SMOOTH",
"414 308 LINE SMOOTH",
"416 324 OFFCURVE",
"417 340 OFFCURVE",
"417 354 CURVE SMOOTH",
"417 456 OFFCURVE",
"363 515 OFFCURVE",
"257 515 CURVE SMOOTH",
"138 515 OFFCURVE",
"72 442 OFFCURVE",
"53 312 CURVE SMOOTH",
"37 194 LINE SMOOTH",
"35 177 OFFCURVE",
"33 160 OFFCURVE",
"33 145 CURVE SMOOTH",
"33 46 OFFCURVE",
"84 -10 OFFCURVE",
"189 -10 CURVE SMOOTH"
);
},
{
closed = 1;
nodes = (
"134 45 OFFCURVE",
"109 82 OFFCURVE",
"109 145 CURVE SMOOTH",
"109 158 OFFCURVE",
"110 173 OFFCURVE",
"112 189 CURVE SMOOTH",
"129 308 LINE SMOOTH",
"141 398 OFFCURVE",
"184 460 OFFCURVE",
"255 460 CURVE SMOOTH",
"313 460 OFFCURVE",
"341 419 OFFCURVE",
"341 353 CURVE SMOOTH",
"341 340 OFFCURVE",
"340 327 OFFCURVE",
"338 312 CURVE SMOOTH",
"322 193 LINE SMOOTH",
"309 103 OFFCURVE",
"262 45 OFFCURVE",
"191 45 CURVE SMOOTH"
);
},
{
closed = 1;
nodes = (
"303 586 LINE",
"234 727 LINE",
"136 727 LINE",
"237 586 LINE"
);
}
);
width = 451;
}
);
leftKerningGroup = o;
rightKerningGroup = o;
unicode = 00F2;
},
{
glyphname = ohungarumlaut;
lastChange = "2025-02-19 09:35:11 +0000";
layers = (
{
anchors = (
{
name = bottom;
position = "{188, 0}";
},
{
name = center;
position = "{225, 253}";
},
{
name = ogonek;
position = "{372, 10}";
},
{
name = top;
position = "{324, 727}";
},
{
name = topright;
position = "{466, 505}";
}
);
hints = (
{
horizontal = 1;
place = "{551, 106}";
type = Stem;
}
);
layerId = m01;
paths = (
{
closed = 1;
nodes = (
"308 -10 OFFCURVE",
"379 60 OFFCURVE",
"397 190 CURVE SMOOTH",
"414 308 LINE SMOOTH",
"416 324 OFFCURVE",
"417 340 OFFCURVE",
"417 354 CURVE SMOOTH",
"417 456 OFFCURVE",
"363 515 OFFCURVE",
"257 515 CURVE SMOOTH",
"138 515 OFFCURVE",
"72 442 OFFCURVE",
"53 312 CURVE SMOOTH",
"37 194 LINE SMOOTH",
"35 177 OFFCURVE",
"33 160 OFFCURVE",
"33 145 CURVE SMOOTH",
"33 46 OFFCURVE",
"84 -10 OFFCURVE",
"189 -10 CURVE SMOOTH"
);
},
{
closed = 1;
nodes = (
"134 45 OFFCURVE",
"109 82 OFFCURVE",
"109 145 CURVE SMOOTH",
"109 158 OFFCURVE",
"110 173 OFFCURVE",
"112 189 CURVE SMOOTH",
"129 308 LINE SMOOTH",
"141 398 OFFCURVE",
"184 460 OFFCURVE",
"255 460 CURVE SMOOTH",
"313 460 OFFCURVE",
"341 419 OFFCURVE",
"341 353 CURVE SMOOTH",
"341 340 OFFCURVE",
"340 327 OFFCURVE",
"338 312 CURVE SMOOTH",
"322 193 LINE SMOOTH",
"309 103 OFFCURVE",
"262 45 OFFCURVE",
"191 45 CURVE SMOOTH"
);
},
{
closed = 1;
nodes = (
"365 586 LINE",
"506 727 LINE",
"406 727 LINE",
"297 586 LINE"
);
},
{
closed = 1;
nodes = (
"218 586 LINE",
"359 727 LINE",
"259 727 LINE",
"150 586 LINE"
);
}
);
width = 451;
}
);
leftKerningGroup = o;
rightKerningGroup = o;
unicode = 0151;
},
{
glyphname = omacron;
lastChange = "2025-02-19 09:35:11 +0000";
layers = (
{
anchors = (
{
name = bottom;
position = "{188, 0}";
},
{
name = center;
position = "{225, 253}";
},
{
name = ogonek;
position = "{372, 10}";
},
{
name = top;
position = "{278, 647}";
},
{
name = topright;
position = "{466, 505}";
}
);
hints = (
{
horizontal = 1;
place = "{573, 26}";
type = Stem;
},
{
place = "{85, 172}";
type = Stem;
},
{
horizontal = 1;
place = "{573, 26}";
type = Stem;
},
{
place = "{74, 172}";
type = Stem;
}
);
layerId = m01;
paths = (
{
closed = 1;
nodes = (
"308 -10 OFFCURVE",
"379 60 OFFCURVE",
"397 190 CURVE SMOOTH",
"414 308 LINE SMOOTH",
"416 324 OFFCURVE",
"417 340 OFFCURVE",
"417 354 CURVE SMOOTH",
"417 456 OFFCURVE",
"363 515 OFFCURVE",
"257 515 CURVE SMOOTH",
"138 515 OFFCURVE",
"72 442 OFFCURVE",
"53 312 CURVE SMOOTH",
"37 194 LINE SMOOTH",
"35 177 OFFCURVE",
"33 160 OFFCURVE",
"33 145 CURVE SMOOTH",
"33 46 OFFCURVE",
"84 -10 OFFCURVE",
"189 -10 CURVE SMOOTH"
);
},
{
closed = 1;
nodes = (
"134 45 OFFCURVE",
"109 82 OFFCURVE",
"109 145 CURVE SMOOTH",
"109 158 OFFCURVE",
"110 173 OFFCURVE",
"112 189 CURVE SMOOTH",
"129 308 LINE SMOOTH",
"141 398 OFFCURVE",
"184 460 OFFCURVE",
"255 460 CURVE SMOOTH",
"313 460 OFFCURVE",
"341 419 OFFCURVE",
"341 353 CURVE SMOOTH",
"341 340 OFFCURVE",
"340 327 OFFCURVE",
"338 312 CURVE SMOOTH",
"322 193 LINE SMOOTH",
"309 103 OFFCURVE",
"262 45 OFFCURVE",
"191 45 CURVE SMOOTH"
);
},
{
closed = 1;
nodes = (
"374 586 LINE",
"382 647 LINE",
"174 647 LINE",
"166 586 LINE"
);
}
);
width = 451;
}
);
leftKerningGroup = o;
rightKerningGroup = o;
unicode = 014D;
},
{
color = 10;
glyphname = oslash;
lastChange = "2025-02-19 09:35:11 +0000";
layers = (
{
anchors = (
{
name = bottom;
position = "{188, 0}";
},
{
name = center;
position = "{225, 253}";
},
{
name = ogonek;
position = "{372, 10}";
},
{
name = top;
position = "{258, 505}";
},
{
name = topright;
position = "{466, 505}";
}
);
layerId = m01;
paths = (
{
closed = 1;
nodes = (
"321 506 LINE",
"303 511 OFFCURVE",
"282 515 OFFCURVE",
"257 515 CURVE SMOOTH",
"138 515 OFFCURVE",
"72 442 OFFCURVE",
"53 312 CURVE SMOOTH",
"37 194 LINE SMOOTH",
"35 177 OFFCURVE",
"33 160 OFFCURVE",
"33 145 CURVE SMOOTH",
"33 84 OFFCURVE",
"53 39 OFFCURVE",
"92 14 CURVE",
"61 -50 LINE",
"111 -50 LINE",
"134 -4 LINE",
"150 -7 OFFCURVE",
"168 -10 OFFCURVE",
"189 -10 CURVE SMOOTH",
"308 -10 OFFCURVE",
"379 60 OFFCURVE",
"397 190 CURVE SMOOTH",
"414 308 LINE SMOOTH",
"416 324 OFFCURVE",
"418 340 OFFCURVE",
"418 354 CURVE SMOOTH",
"418 414 OFFCURVE",
"398 459 OFFCURVE",
"361 486 CURVE",
"395 555 LINE",
"345 555 LINE"
);
},
{
closed = 1;
nodes = (
"129 308 LINE SMOOTH",
"141 398 OFFCURVE",
"184 460 OFFCURVE",
"255 460 CURVE SMOOTH",
"271 460 OFFCURVE",
"285 457 OFFCURVE",
"298 451 CURVE",
"122 80 LINE",
"113 96 OFFCURVE",
"109 118 OFFCURVE",
"109 144 CURVE SMOOTH",
"109 158 OFFCURVE",
"110 173 OFFCURVE",
"112 189 CURVE SMOOTH"
);
},
{
closed = 1;
nodes = (
"330 416 LINE",
"338 399 OFFCURVE",
"341 379 OFFCURVE",
"341 355 CURVE SMOOTH",
"341 342 OFFCURVE",
"340 327 OFFCURVE",
"338 312 CURVE SMOOTH",
"322 193 LINE SMOOTH",
"309 103 OFFCURVE",
"262 45 OFFCURVE",
"191 45 CURVE SMOOTH",
"179 45 OFFCURVE",
"167 46 OFFCURVE",
"156 51 CURVE"
);
}
);
width = 451;
}
);
leftKerningGroup = o;
leftMetricsKey = o;
rightKerningGroup = o;
rightMetricsKey = o;
unicode = 00F8;
},
{
glyphname = otilde;
lastChange = "2025-02-19 09:35:14 +0000";
layers = (
{
anchors = (
{
name = bottom;
position = "{188, 0}";
},
{
name = center;
position = "{225, 253}";
},
{
name = ogonek;
position = "{372, 10}";
},
{
name = top;
position = "{286, 702}";
},
{
name = topright;
position = "{466, 505}";
}
);
layerId = m01;
paths = (
{
closed = 1;
nodes = (
"308 -10 OFFCURVE",
"379 60 OFFCURVE",
"397 190 CURVE SMOOTH",
"414 308 LINE SMOOTH",
"416 324 OFFCURVE",
"417 340 OFFCURVE",
"417 354 CURVE SMOOTH",
"417 456 OFFCURVE",
"363 515 OFFCURVE",
"257 515 CURVE SMOOTH",
"138 515 OFFCURVE",
"72 442 OFFCURVE",
"53 312 CURVE SMOOTH",
"37 194 LINE SMOOTH",
"35 177 OFFCURVE",
"33 160 OFFCURVE",
"33 145 CURVE SMOOTH",
"33 46 OFFCURVE",
"84 -10 OFFCURVE",
"189 -10 CURVE SMOOTH"
);
},
{
closed = 1;
nodes = (
"166 584 LINE",
"172 609 OFFCURVE",
"196 631 OFFCURVE",
"222 631 CURVE SMOOTH",
"257 631 OFFCURVE",
"278 593 OFFCURVE",
"326 593 CURVE SMOOTH",
"351 593 OFFCURVE",
"374 603 OFFCURVE",
"396 623 CURVE",
"415 643 OFFCURVE",
"429 671 OFFCURVE",
"436 700 CURVE",
"384 704 LINE",
"377 674 OFFCURVE",
"360 657 OFFCURVE",
"332 657 CURVE SMOOTH",
"291 657 OFFCURVE",
"287 694 OFFCURVE",
"231 694 CURVE SMOOTH",
"174 694 OFFCURVE",
"137 657 OFFCURVE",
"120 588 CURVE"
);
},
{
closed = 1;
nodes = (
"129 308 LINE SMOOTH",
"141 398 OFFCURVE",
"184 460 OFFCURVE",
"255 460 CURVE SMOOTH",
"313 460 OFFCURVE",
"341 419 OFFCURVE",
"341 353 CURVE SMOOTH",
"341 340 OFFCURVE",
"340 327 OFFCURVE",
"338 312 CURVE SMOOTH",
"322 193 LINE SMOOTH",
"309 103 OFFCURVE",
"262 45 OFFCURVE",
"191 45 CURVE SMOOTH",
"134 45 OFFCURVE",
"109 82 OFFCURVE",
"109 145 CURVE SMOOTH",
"109 158 OFFCURVE",
"110 173 OFFCURVE",
"112 189 CURVE SMOOTH"
);
}
);
width = 451;
}
);
leftKerningGroup = o;
rightKerningGroup = o;
unicode = 00F5;
},
{
color = 10;
glyphname = oe;
lastChange = "2025-02-19 09:35:11 +0000";
layers = (
{
background = {
paths = (
{
closed = 1;
nodes = (
"343 -10 OFFCURVE",
"406 92 OFFCURVE",
"406 192 CURVE SMOOTH",
"406 310 LINE SMOOTH",
"406 410 OFFCURVE",
"343 515 OFFCURVE",
"223 515 CURVE SMOOTH",
"103 515 OFFCURVE",
"45 440 OFFCURVE",
"45 310 CURVE SMOOTH",
"45 192 LINE SMOOTH",
"45 62 OFFCURVE",
"103 -10 OFFCURVE",
"223 -10 CURVE SMOOTH"
);
},
{
closed = 1;
nodes = (
"153 45 OFFCURVE",
"121 101 OFFCURVE",
"121 191 CURVE SMOOTH",
"121 310 LINE SMOOTH",
"121 400 OFFCURVE",
"153 460 OFFCURVE",
"223 460 CURVE SMOOTH",
"293 460 OFFCURVE",
"330 400 OFFCURVE",
"330 310 CURVE SMOOTH",
"330 191 LINE SMOOTH",
"330 101 OFFCURVE",
"293 45 OFFCURVE",
"223 45 CURVE SMOOTH"
);
},
{
closed = 1;
nodes = (
"691 310 LINE SMOOTH",
"691 440 OFFCURVE",
"628 515 OFFCURVE",
"508 515 CURVE SMOOTH",
"388 515 OFFCURVE",
"330 410 OFFCURVE",
"330 310 CURVE SMOOTH",
"330 192 LINE SMOOTH",
"330 92 OFFCURVE",
"388 -10 OFFCURVE",
"508 -10 CURVE SMOOTH",
"616 -10 OFFCURVE",
"678 49 OFFCURVE",
"689 155 CURVE",
"613 155 LINE",
"604 86 OFFCURVE",
"568 45 OFFCURVE",
"508 45 CURVE SMOOTH",
"438 45 OFFCURVE",
"406 101 OFFCURVE",
"406 191 CURVE SMOOTH",
"406 310 LINE SMOOTH",
"406 400 OFFCURVE",
"438 460 OFFCURVE",
"508 460 CURVE SMOOTH",
"578 460 OFFCURVE",
"615 400 OFFCURVE",
"615 310 CURVE SMOOTH",
"615 229 LINE",
"691 229 LINE"
);
},
{
closed = 1;
nodes = (
"385 229 LINE",
"691 229 LINE",
"691 284 LINE",
"385 284 LINE"
);
}
);
};
layerId = m01;
paths = (
{
closed = 1;
nodes = (
"253 -10 OFFCURVE",
"304 18 OFFCURVE",
"342 63 CURVE",
"364 22 OFFCURVE",
"408 -10 OFFCURVE",
"474 -10 CURVE SMOOTH",
"581 -10 OFFCURVE",
"649 47 OFFCURVE",
"675 153 CURVE",
"599 157 LINE",
"581 88 OFFCURVE",
"537 45 OFFCURVE",
"476 45 CURVE SMOOTH",
"419 45 OFFCURVE",
"394 82 OFFCURVE",
"394 145 CURVE SMOOTH",
"394 158 OFFCURVE",
"395 173 OFFCURVE",
"397 189 CURVE SMOOTH",
"403 229 LINE",
"688 229 LINE",
"699 308 LINE SMOOTH",
"701 324 OFFCURVE",
"702 340 OFFCURVE",
"702 354 CURVE SMOOTH",
"702 456 OFFCURVE",
"648 515 OFFCURVE",
"542 515 CURVE SMOOTH",
"478 515 OFFCURVE",
"428 486 OFFCURVE",
"392 440 CURVE",
"367 482 OFFCURVE",
"323 515 OFFCURVE",
"257 515 CURVE SMOOTH",
"138 515 OFFCURVE",
"72 442 OFFCURVE",
"53 312 CURVE SMOOTH",
"37 194 LINE SMOOTH",
"35 177 OFFCURVE",
"33 160 OFFCURVE",
"33 145 CURVE SMOOTH",
"33 46 OFFCURVE",
"84 -10 OFFCURVE",
"189 -10 CURVE SMOOTH"
);
},
{
closed = 1;
nodes = (
"129 308 LINE SMOOTH",
"141 398 OFFCURVE",
"184 460 OFFCURVE",
"255 460 CURVE SMOOTH",
"313 460 OFFCURVE",
"341 419 OFFCURVE",
"341 353 CURVE SMOOTH",
"341 340 OFFCURVE",
"340 327 OFFCURVE",
"338 312 CURVE SMOOTH",
"322 193 LINE SMOOTH",
"309 103 OFFCURVE",
"262 45 OFFCURVE",
"191 45 CURVE SMOOTH",
"134 45 OFFCURVE",
"109 82 OFFCURVE",
"109 145 CURVE SMOOTH",
"109 158 OFFCURVE",
"110 173 OFFCURVE",
"112 189 CURVE SMOOTH"
);
},
{
closed = 1;
nodes = (
"414 308 LINE SMOOTH",
"426 398 OFFCURVE",
"469 460 OFFCURVE",
"540 460 CURVE SMOOTH",
"598 460 OFFCURVE",
"626 419 OFFCURVE",
"626 353 CURVE SMOOTH",
"626 340 OFFCURVE",
"625 327 OFFCURVE",
"623 312 CURVE SMOOTH",
"619 284 LINE",
"410 284 LINE"
);
}
);
width = 736;
}
);
leftKerningGroup = o;
leftMetricsKey = o;
rightKerningGroup = o;
rightMetricsKey = e;
unicode = 0153;
},
{
color = 10;
glyphname = p;
lastChange = "2025-02-19 09:35:11 +0000";
layers = (
{
anchors = (
{
name = bottom;
position = "{196, 0}";
},
{
name = top;
position = "{266, 505}";
}
);
layerId = m01;
paths = (
{
closed = 1;
nodes = (
"333 -10 OFFCURVE",
"389 60 OFFCURVE",
"407 190 CURVE SMOOTH",
"424 308 LINE SMOOTH",
"427 328 OFFCURVE",
"428 347 OFFCURVE",
"428 365 CURVE SMOOTH",
"428 460 OFFCURVE",
"387 515 OFFCURVE",
"302 515 CURVE SMOOTH",
"249 515 OFFCURVE",
"204 498 OFFCURVE",
"169 457 CURVE",
"166 505 LINE",
"100 505 LINE",
"3 -190 LINE",
"79 -190 LINE",
"114 52 LINE",
"136 11 OFFCURVE",
"178 -10 OFFCURVE",
"234 -10 CURVE SMOOTH"
);
},
{
closed = 1;
nodes = (
"147 298 LINE SMOOTH",
"160 388 OFFCURVE",
"199 460 OFFCURVE",
"270 460 CURVE SMOOTH",
"331 460 OFFCURVE",
"352 419 OFFCURVE",
"352 359 CURVE SMOOTH",
"352 341 OFFCURVE",
"350 322 OFFCURVE",
"347 302 CURVE SMOOTH",
"333 203 LINE SMOOTH",
"320 113 OFFCURVE",
"287 45 OFFCURVE",
"206 45 CURVE SMOOTH",
"151 45 OFFCURVE",
"129 86 OFFCURVE",
"129 149 CURVE SMOOTH",
"129 165 OFFCURVE",
"131 181 OFFCURVE",
"133 199 CURVE SMOOTH"
);
}
);
vertWidth = 1200;
width = 461;
}
);
leftKerningGroup = r;
leftMetricsKey = n;
note = p;
rightKerningGroup = o;
rightMetricsKey = o;
unicode = 0070;
},
{
color = 10;
glyphname = thorn;
lastChange = "2025-02-19 09:35:11 +0000";
layers = (
{
anchors = (
{
name = bottom;
position = "{196, 0}";
},
{
name = top;
position = "{266, 505}";
}
);
layerId = m01;
paths = (
{
closed = 1;
nodes = (
"99 497 LINE",
"175 497 LINE",
"208 727 LINE",
"132 727 LINE"
);
},
{
closed = 1;
nodes = (
"333 -10 OFFCURVE",
"389 60 OFFCURVE",
"407 190 CURVE SMOOTH",
"424 308 LINE SMOOTH",
"427 328 OFFCURVE",
"428 347 OFFCURVE",
"428 365 CURVE SMOOTH",
"428 460 OFFCURVE",
"387 515 OFFCURVE",
"302 515 CURVE SMOOTH",
"249 515 OFFCURVE",
"204 498 OFFCURVE",
"169 457 CURVE",
"166 505 LINE",
"100 505 LINE",
"3 -190 LINE",
"79 -190 LINE",
"114 52 LINE",
"136 11 OFFCURVE",
"178 -10 OFFCURVE",
"234 -10 CURVE SMOOTH"
);
},
{
closed = 1;
nodes = (
"147 298 LINE SMOOTH",
"160 388 OFFCURVE",
"199 460 OFFCURVE",
"270 460 CURVE SMOOTH",
"331 460 OFFCURVE",
"352 419 OFFCURVE",
"352 359 CURVE SMOOTH",
"352 341 OFFCURVE",
"350 322 OFFCURVE",
"347 302 CURVE SMOOTH",
"333 203 LINE SMOOTH",
"320 113 OFFCURVE",
"287 45 OFFCURVE",
"206 45 CURVE SMOOTH",
"151 45 OFFCURVE",
"129 86 OFFCURVE",
"129 149 CURVE SMOOTH",
"129 165 OFFCURVE",
"131 181 OFFCURVE",
"133 199 CURVE SMOOTH"
);
}
);
width = 461;
}
);
leftMetricsKey = p;
rightKerningGroup = o;
rightMetricsKey = p;
unicode = 00FE;
},
{
color = 10;
glyphname = q;
lastChange = "2025-02-19 09:35:11 +0000";
layers = (
{
anchors = (
{
name = bottom;
position = "{199, 0}";
},
{
name = top;
position = "{269, 505}";
}
);
layerId = m01;
paths = (
{
closed = 1;
nodes = (
"347 453 LINE",
"324 494 OFFCURVE",
"282 515 OFFCURVE",
"227 515 CURVE SMOOTH",
"128 515 OFFCURVE",
"72 442 OFFCURVE",
"53 312 CURVE SMOOTH",
"37 194 LINE SMOOTH",
"34 174 OFFCURVE",
"33 155 OFFCURVE",
"33 137 CURVE SMOOTH",
"33 43 OFFCURVE",
"74 -10 OFFCURVE",
"159 -10 CURVE SMOOTH",
"213 -10 OFFCURVE",
"258 7 OFFCURVE",
"292 48 CURVE",
"258 -190 LINE",
"334 -190 LINE",
"431 505 LINE",
"365 505 LINE"
);
},
{
closed = 1;
nodes = (
"127 298 LINE SMOOTH",
"140 388 OFFCURVE",
"174 460 OFFCURVE",
"255 460 CURVE SMOOTH",
"310 460 OFFCURVE",
"331 417 OFFCURVE",
"331 355 CURVE SMOOTH",
"331 338 OFFCURVE",
"330 321 OFFCURVE",
"327 302 CURVE SMOOTH",
"313 203 LINE SMOOTH",
"300 113 OFFCURVE",
"262 45 OFFCURVE",
"191 45 CURVE SMOOTH",
"129 45 OFFCURVE",
"109 84 OFFCURVE",
"109 145 CURVE SMOOTH",
"109 161 OFFCURVE",
"110 180 OFFCURVE",
"113 199 CURVE SMOOTH"
);
}
);
vertWidth = 1200;
width = 461;
}
);
leftKerningGroup = o;
leftMetricsKey = o;
note = q;
rightMetricsKey = d;
unicode = 0071;
},
{
color = 10;
glyphname = r;
lastChange = "2025-02-19 09:35:11 +0000";
layers = (
{
anchors = (
{
name = bottom;
position = "{68, 0}";
},
{
name = top;
position = "{216, 505}";
}
);
layerId = m01;
paths = (
{
closed = 1;
nodes = (
"106 0 LINE",
"149 307 LINE SMOOTH",
"160 393 OFFCURVE",
"214 437 OFFCURVE",
"290 437 CURVE SMOOTH",
"300 437 OFFCURVE",
"312 436 OFFCURVE",
"323 434 CURVE",
"332 512 LINE",
"306 512 LINE SMOOTH",
"234 512 OFFCURVE",
"196 490 OFFCURVE",
"166 431 CURVE",
"177 505 LINE",
"100 505 LINE",
"30 0 LINE"
);
}
);
vertWidth = 1200;
width = 316;
}
);
leftKerningGroup = r;
leftMetricsKey = n;
note = r;
rightKerningGroup = r;
unicode = 0072;
},
{
glyphname = racute;
lastChange = "2025-02-19 09:35:11 +0000";
layers = (
{
anchors = (
{
name = bottom;
position = "{68, 0}";
},
{
name = top;
position = "{248, 727}";
}
);
layerId = m01;
paths = (
{
closed = 1;
nodes = (
"106 0 LINE",
"149 307 LINE SMOOTH",
"160 393 OFFCURVE",
"214 437 OFFCURVE",
"290 437 CURVE SMOOTH",
"300 437 OFFCURVE",
"312 436 OFFCURVE",
"323 434 CURVE",
"332 512 LINE",
"306 512 LINE SMOOTH",
"234 512 OFFCURVE",
"196 490 OFFCURVE",
"166 431 CURVE",
"177 505 LINE",
"100 505 LINE",
"30 0 LINE"
);
},
{
closed = 1;
nodes = (
"261 586 LINE",
"402 727 LINE",
"302 727 LINE",
"193 586 LINE"
);
}
);
width = 316;
}
);
leftKerningGroup = r;
rightKerningGroup = r;
unicode = 0155;
},
{
glyphname = rcaron;
lastChange = "2025-02-19 09:35:11 +0000";
layers = (
{
anchors = (
{
name = bottom;
position = "{68, 0}";
},
{
name = top;
position = "{248, 727}";
}
);
hints = (
{
horizontal = 1;
place = "{551, 106}";
type = Stem;
},
{
place = "{0, 257}";
type = Stem;
}
);
layerId = m01;
paths = (
{
closed = 1;
nodes = (
"106 0 LINE",
"149 307 LINE SMOOTH",
"160 393 OFFCURVE",
"214 437 OFFCURVE",
"290 437 CURVE SMOOTH",
"300 437 OFFCURVE",
"312 436 OFFCURVE",
"323 434 CURVE",
"332 512 LINE",
"306 512 LINE SMOOTH",
"234 512 OFFCURVE",
"196 490 OFFCURVE",
"166 431 CURVE",
"177 505 LINE",
"100 505 LINE",
"30 0 LINE"
);
},
{
closed = 1;
nodes = (
"303 727 LINE",
"233 633 LINE",
"191 727 LINE",
"117 727 LINE",
"187 586 LINE",
"269 586 LINE",
"379 727 LINE"
);
}
);
width = 316;
}
);
leftKerningGroup = r;
rightKerningGroup = r;
unicode = 0159;
},
{
glyphname = rcommaaccent;
lastChange = "2025-02-19 09:35:11 +0000";
layers = (
{
anchors = (
{
name = bottom;
position = "{17, -231}";
},
{
name = top;
position = "{216, 505}";
}
);
layerId = m01;
paths = (
{
closed = 1;
nodes = (
"106 0 LINE",
"149 307 LINE SMOOTH",
"160 393 OFFCURVE",
"214 437 OFFCURVE",
"290 437 CURVE SMOOTH",
"300 437 OFFCURVE",
"312 436 OFFCURVE",
"323 434 CURVE",
"332 512 LINE",
"306 512 LINE SMOOTH",
"234 512 OFFCURVE",
"196 490 OFFCURVE",
"166 431 CURVE",
"177 505 LINE",
"100 505 LINE",
"30 0 LINE"
);
},
{
closed = 1;
nodes = (
"12 -231 LINE",
"99 -65 LINE",
"18 -65 LINE",
"-42 -231 LINE"
);
}
);
width = 316;
}
);
leftKerningGroup = r;
rightKerningGroup = r;
unicode = 0157;
},
{
color = 10;
glyphname = s;
lastChange = "2025-02-19 09:35:14 +0000";
layers = (
{
anchors = (
{
name = bottom;
position = "{181, 0}";
},
{
name = top;
position = "{251, 505}";
}
);
layerId = m01;
paths = (
{
closed = 1;
nodes = (
"283 -10 OFFCURVE",
"365 51 OFFCURVE",
"365 148 CURVE SMOOTH",
"365 303 OFFCURVE",
"152 279 OFFCURVE",
"152 382 CURVE SMOOTH",
"152 385 OFFCURVE",
"152 389 OFFCURVE",
"153 393 CURVE",
"158 434 OFFCURVE",
"208 460 OFFCURVE",
"248 460 CURVE SMOOTH",
"297 460 OFFCURVE",
"323 441 OFFCURVE",
"323 392 CURVE SMOOTH",
"323 382 OFFCURVE",
"322 370 OFFCURVE",
"320 358 CURVE",
"392 354 LINE",
"395 366 OFFCURVE",
"397 376 OFFCURVE",
"398 383 CURVE SMOOTH",
"399 390 OFFCURVE",
"400 397 OFFCURVE",
"400 404 CURVE SMOOTH",
"400 475 OFFCURVE",
"342 515 OFFCURVE",
"250 515 CURVE SMOOTH",
"152 515 OFFCURVE",
"74 458 OFFCURVE",
"74 366 CURVE SMOOTH",
"74 228 OFFCURVE",
"287 248 OFFCURVE",
"287 132 CURVE SMOOTH",
"287 127 OFFCURVE",
"287 122 OFFCURVE",
"286 117 CURVE",
"279 70 OFFCURVE",
"230 45 OFFCURVE",
"185 45 CURVE SMOOTH",
"134 45 OFFCURVE",
"107 65 OFFCURVE",
"107 119 CURVE SMOOTH",
"107 129 OFFCURVE",
"108 141 OFFCURVE",
"110 154 CURVE",
"31 156 LINE",
"29 137 LINE SMOOTH",
"28 128 OFFCURVE",
"27 120 OFFCURVE",
"27 111 CURVE SMOOTH",
"27 33 OFFCURVE",
"87 -10 OFFCURVE",
"182 -10 CURVE SMOOTH"
);
}
);
vertWidth = 1200;
width = 426;
}
);
leftKerningGroup = s;
leftMetricsKey = o;
note = s;
rightKerningGroup = s;
rightMetricsKey = o;
unicode = 0073;
},
{
glyphname = sacute;
lastChange = "2025-02-19 09:35:14 +0000";
layers = (
{
anchors = (
{
name = bottom;
position = "{181, 0}";
},
{
name = top;
position = "{283, 727}";
}
);
layerId = m01;
paths = (
{
closed = 1;
nodes = (
"283 -10 OFFCURVE",
"365 51 OFFCURVE",
"365 148 CURVE SMOOTH",
"365 303 OFFCURVE",
"152 279 OFFCURVE",
"152 382 CURVE SMOOTH",
"152 385 OFFCURVE",
"152 389 OFFCURVE",
"153 393 CURVE",
"158 434 OFFCURVE",
"208 460 OFFCURVE",
"248 460 CURVE SMOOTH",
"297 460 OFFCURVE",
"323 441 OFFCURVE",
"323 392 CURVE SMOOTH",
"323 382 OFFCURVE",
"322 370 OFFCURVE",
"320 358 CURVE",
"392 354 LINE",
"395 366 OFFCURVE",
"397 376 OFFCURVE",
"398 383 CURVE SMOOTH",
"399 390 OFFCURVE",
"400 397 OFFCURVE",
"400 404 CURVE SMOOTH",
"400 475 OFFCURVE",
"342 515 OFFCURVE",
"250 515 CURVE SMOOTH",
"152 515 OFFCURVE",
"74 458 OFFCURVE",
"74 366 CURVE SMOOTH",
"74 228 OFFCURVE",
"287 248 OFFCURVE",
"287 132 CURVE SMOOTH",
"287 127 OFFCURVE",
"287 122 OFFCURVE",
"286 117 CURVE",
"279 70 OFFCURVE",
"230 45 OFFCURVE",
"185 45 CURVE SMOOTH",
"134 45 OFFCURVE",
"107 65 OFFCURVE",
"107 119 CURVE SMOOTH",
"107 129 OFFCURVE",
"108 141 OFFCURVE",
"110 154 CURVE",
"31 156 LINE",
"29 137 LINE SMOOTH",
"28 128 OFFCURVE",
"27 120 OFFCURVE",
"27 111 CURVE SMOOTH",
"27 33 OFFCURVE",
"87 -10 OFFCURVE",
"182 -10 CURVE SMOOTH"
);
},
{
closed = 1;
nodes = (
"296 586 LINE",
"437 727 LINE",
"337 727 LINE",
"228 586 LINE"
);
}
);
width = 426;
}
);
leftKerningGroup = s;
rightKerningGroup = s;
unicode = 015B;
},
{
glyphname = scaron;
lastChange = "2025-02-19 09:35:14 +0000";
layers = (
{
anchors = (
{
name = bottom;
position = "{181, 0}";
},
{
name = top;
position = "{283, 727}";
}
);
hints = (
{
horizontal = 1;
place = "{551, 106}";
type = Stem;
},
{
place = "{35, 257}";
type = Stem;
}
);
layerId = m01;
paths = (
{
closed = 1;
nodes = (
"283 -10 OFFCURVE",
"365 51 OFFCURVE",
"365 148 CURVE SMOOTH",
"365 303 OFFCURVE",
"152 279 OFFCURVE",
"152 382 CURVE SMOOTH",
"152 385 OFFCURVE",
"152 389 OFFCURVE",
"153 393 CURVE",
"158 434 OFFCURVE",
"208 460 OFFCURVE",
"248 460 CURVE SMOOTH",
"297 460 OFFCURVE",
"323 441 OFFCURVE",
"323 392 CURVE SMOOTH",
"323 382 OFFCURVE",
"322 370 OFFCURVE",
"320 358 CURVE",
"392 354 LINE",
"395 366 OFFCURVE",
"397 376 OFFCURVE",
"398 383 CURVE SMOOTH",
"399 390 OFFCURVE",
"400 397 OFFCURVE",
"400 404 CURVE SMOOTH",
"400 475 OFFCURVE",
"342 515 OFFCURVE",
"250 515 CURVE SMOOTH",
"152 515 OFFCURVE",
"74 458 OFFCURVE",
"74 366 CURVE SMOOTH",
"74 228 OFFCURVE",
"287 248 OFFCURVE",
"287 132 CURVE SMOOTH",
"287 127 OFFCURVE",
"287 122 OFFCURVE",
"286 117 CURVE",
"279 70 OFFCURVE",
"230 45 OFFCURVE",
"185 45 CURVE SMOOTH",
"134 45 OFFCURVE",
"107 65 OFFCURVE",
"107 119 CURVE SMOOTH",
"107 129 OFFCURVE",
"108 141 OFFCURVE",
"110 154 CURVE",
"31 156 LINE",
"29 137 LINE SMOOTH",
"28 128 OFFCURVE",
"27 120 OFFCURVE",
"27 111 CURVE SMOOTH",
"27 33 OFFCURVE",
"87 -10 OFFCURVE",
"182 -10 CURVE SMOOTH"
);
},
{
closed = 1;
nodes = (
"222 586 LINE",
"304 586 LINE",
"414 727 LINE",
"338 727 LINE",
"268 633 LINE",
"226 727 LINE",
"152 727 LINE"
);
}
);
width = 426;
}
);
leftKerningGroup = s;
rightKerningGroup = s;
unicode = 0161;
},
{
glyphname = scedilla;
lastChange = "2025-02-19 09:35:14 +0000";
layers = (
{
anchors = (
{
name = bottom;
position = "{138, -225}";
},
{
name = top;
position = "{251, 505}";
}
);
hints = (
{
place = "{201, 41}";
type = Stem;
}
);
layerId = m01;
paths = (
{
closed = 1;
nodes = (
"152 -80 OFFCURVE",
"163 -76 OFFCURVE",
"175 -76 CURVE SMOOTH",
"197 -76 OFFCURVE",
"216 -89 OFFCURVE",
"216 -114 CURVE SMOOTH",
"216 -146 OFFCURVE",
"187 -182 OFFCURVE",
"144 -182 CURVE SMOOTH",
"120 -182 OFFCURVE",
"96 -173 OFFCURVE",
"86 -157 CURVE",
"52 -183 LINE",
"73 -212 OFFCURVE",
"108 -227 OFFCURVE",
"146 -227 CURVE SMOOTH",
"206 -227 OFFCURVE",
"269 -189 OFFCURVE",
"269 -116 CURVE SMOOTH",
"269 -62 OFFCURVE",
"230 -36 OFFCURVE",
"186 -35 CURVE",
"206 -9 LINE",
"296 0 OFFCURVE",
"365 60 OFFCURVE",
"365 148 CURVE SMOOTH",
"365 303 OFFCURVE",
"152 279 OFFCURVE",
"152 382 CURVE SMOOTH",
"152 385 OFFCURVE",
"152 389 OFFCURVE",
"153 393 CURVE",
"158 434 OFFCURVE",
"208 460 OFFCURVE",
"248 460 CURVE SMOOTH",
"297 460 OFFCURVE",
"323 441 OFFCURVE",
"323 392 CURVE SMOOTH",
"323 382 OFFCURVE",
"322 370 OFFCURVE",
"320 358 CURVE",
"392 354 LINE",
"395 366 OFFCURVE",
"397 376 OFFCURVE",
"398 383 CURVE SMOOTH",
"399 390 OFFCURVE",
"400 397 OFFCURVE",
"400 404 CURVE SMOOTH",
"400 475 OFFCURVE",
"342 515 OFFCURVE",
"250 515 CURVE SMOOTH",
"152 515 OFFCURVE",
"74 458 OFFCURVE",
"74 366 CURVE SMOOTH",
"74 228 OFFCURVE",
"287 248 OFFCURVE",
"287 132 CURVE SMOOTH",
"287 127 OFFCURVE",
"287 122 OFFCURVE",
"286 117 CURVE",
"279 70 OFFCURVE",
"230 45 OFFCURVE",
"185 45 CURVE SMOOTH",
"134 45 OFFCURVE",
"107 65 OFFCURVE",
"107 119 CURVE SMOOTH",
"107 129 OFFCURVE",
"108 141 OFFCURVE",
"110 154 CURVE",
"31 156 LINE",
"29 137 LINE SMOOTH",
"28 128 OFFCURVE",
"27 120 OFFCURVE",
"27 112 CURVE SMOOTH",
"27 43 OFFCURVE",
"73 1 OFFCURVE",
"147 -8 CURVE",
"109 -65 LINE",
"142 -86 LINE"
);
}
);
width = 426;
}
);
leftKerningGroup = s;
rightKerningGroup = s;
unicode = 015F;
},
{
glyphname = scommaaccent;
lastChange = "2025-02-19 09:35:14 +0000";
layers = (
{
anchors = (
{
name = bottom;
position = "{130, -231}";
},
{
name = top;
position = "{251, 505}";
}
);
layerId = m01;
paths = (
{
closed = 1;
nodes = (
"283 -10 OFFCURVE",
"365 51 OFFCURVE",
"365 148 CURVE SMOOTH",
"365 303 OFFCURVE",
"152 279 OFFCURVE",
"152 382 CURVE SMOOTH",
"152 385 OFFCURVE",
"152 389 OFFCURVE",
"153 393 CURVE",
"158 434 OFFCURVE",
"208 460 OFFCURVE",
"248 460 CURVE SMOOTH",
"297 460 OFFCURVE",
"323 441 OFFCURVE",
"323 392 CURVE SMOOTH",
"323 382 OFFCURVE",
"322 370 OFFCURVE",
"320 358 CURVE",
"392 354 LINE",
"395 366 OFFCURVE",
"397 376 OFFCURVE",
"398 383 CURVE SMOOTH",
"399 390 OFFCURVE",
"400 397 OFFCURVE",
"400 404 CURVE SMOOTH",
"400 475 OFFCURVE",
"342 515 OFFCURVE",
"250 515 CURVE SMOOTH",
"152 515 OFFCURVE",
"74 458 OFFCURVE",
"74 366 CURVE SMOOTH",
"74 228 OFFCURVE",
"287 248 OFFCURVE",
"287 132 CURVE SMOOTH",
"287 127 OFFCURVE",
"287 122 OFFCURVE",
"286 117 CURVE",
"279 70 OFFCURVE",
"230 45 OFFCURVE",
"185 45 CURVE SMOOTH",
"134 45 OFFCURVE",
"107 65 OFFCURVE",
"107 119 CURVE SMOOTH",
"107 129 OFFCURVE",
"108 141 OFFCURVE",
"110 154 CURVE",
"31 156 LINE",
"29 137 LINE SMOOTH",
"28 128 OFFCURVE",
"27 120 OFFCURVE",
"27 111 CURVE SMOOTH",
"27 33 OFFCURVE",
"87 -10 OFFCURVE",
"182 -10 CURVE SMOOTH"
);
},
{
closed = 1;
nodes = (
"125 -231 LINE",
"212 -65 LINE",
"131 -65 LINE",
"71 -231 LINE"
);
}
);
width = 426;
}
);
leftKerningGroup = s;
rightKerningGroup = s;
unicode = 0219;
},
{
color = 10;
glyphname = germandbls;
lastChange = "2025-02-19 09:35:14 +0000";
layers = (
{
background = {
paths = (
{
closed = 1;
nodes = (
"423 -10 OFFCURVE",
"495 42 OFFCURVE",
"495 126 CURVE SMOOTH",
"495 314 OFFCURVE",
"247 274 OFFCURVE",
"247 397 CURVE SMOOTH",
"247 436 OFFCURVE",
"291 460 OFFCURVE",
"330 460 CURVE SMOOTH",
"390 460 OFFCURVE",
"422 430 OFFCURVE",
"419 356 CURVE",
"492 356 LINE",
"493 368 OFFCURVE",
"494 378 OFFCURVE",
"494 387 CURVE SMOOTH",
"494 469 OFFCURVE",
"429 515 OFFCURVE",
"330 515 CURVE SMOOTH",
"239 515 OFFCURVE",
"171 465 OFFCURVE",
"171 384 CURVE SMOOTH",
"171 218 OFFCURVE",
"419 254 OFFCURVE",
"419 113 CURVE SMOOTH",
"419 68 OFFCURVE",
"375 45 OFFCURVE",
"331 45 CURVE SMOOTH",
"269 45 OFFCURVE",
"236 76 OFFCURVE",
"238 156 CURVE",
"159 156 LINE",
"159 135 LINE SMOOTH",
"159 40 OFFCURVE",
"226 -10 OFFCURVE",
"330 -10 CURVE SMOOTH"
);
}
);
};
layerId = m01;
paths = (
{
closed = 1;
nodes = (
"383 -10 OFFCURVE",
"465 56 OFFCURVE",
"465 161 CURVE SMOOTH",
"465 295 OFFCURVE",
"300 301 OFFCURVE",
"300 388 CURVE SMOOTH",
"300 466 OFFCURVE",
"439 466 OFFCURVE",
"457 594 CURVE SMOOTH",
"458 602 OFFCURVE",
"459 609 OFFCURVE",
"459 616 CURVE SMOOTH",
"459 694 OFFCURVE",
"394 734 OFFCURVE",
"299 734 CURVE SMOOTH",
"189 734 OFFCURVE",
"126 688 OFFCURVE",
"106 545 CURVE SMOOTH",
"30 0 LINE",
"106 0 LINE",
"182 544 LINE SMOOTH",
"196 645 OFFCURVE",
"242 681 OFFCURVE",
"300 681 CURVE SMOOTH",
"343 681 OFFCURVE",
"383 655 OFFCURVE",
"383 612 CURVE SMOOTH",
"383 522 OFFCURVE",
"239 494 OFFCURVE",
"226 404 CURVE SMOOTH",
"225 397 OFFCURVE",
"224 389 OFFCURVE",
"224 383 CURVE SMOOTH",
"224 259 OFFCURVE",
"388 247 OFFCURVE",
"388 145 CURVE SMOOTH",
"388 85 OFFCURVE",
"344 45 OFFCURVE",
"296 45 CURVE SMOOTH",
"260 45 OFFCURVE",
"221 61 OFFCURVE",
"221 112 CURVE SMOOTH",
"221 116 OFFCURVE",
"221 120 OFFCURVE",
"222 125 CURVE",
"156 129 LINE",
"155 124 OFFCURVE",
"154 118 OFFCURVE",
"154 116 CURVE",
"153 109 OFFCURVE",
"153 102 OFFCURVE",
"153 96 CURVE SMOOTH",
"153 23 OFFCURVE",
"213 -10 OFFCURVE",
"292 -10 CURVE SMOOTH"
);
}
);
width = 525;
}
);
leftMetricsKey = n;
rightKerningGroup = s;
rightMetricsKey = s;
unicode = 00DF;
},
{
color = 10;
glyphname = t;
lastChange = "2025-02-19 09:35:14 +0000";
layers = (
{
anchors = (
{
name = bottom;
position = "{158, 0}";
},
{
name = center;
position = "{173, 253}";
},
{
name = top;
position = "{208, 505}";
},
{
name = topright;
position = "{261, 505}";
}
);
layerId = m01;
paths = (
{
closed = 1;
nodes = (
"146 505 LINE",
"65 505 LINE",
"58 450 LINE",
"139 450 LINE",
"95 135 LINE SMOOTH",
"93 121 OFFCURVE",
"92 109 OFFCURVE",
"92 98 CURVE SMOOTH",
"92 18 OFFCURVE",
"141 0 OFFCURVE",
"218 0 CURVE SMOOTH",
"254 0 LINE",
"260 59 LINE",
"209 59 OFFCURVE",
"169 63 OFFCURVE",
"169 113 CURVE SMOOTH",
"169 119 OFFCURVE",
"169 125 OFFCURVE",
"170 131 CURVE SMOOTH",
"215 450 LINE",
"311 450 LINE",
"318 505 LINE",
"222 505 LINE",
"241 638 LINE",
"160 601 LINE"
);
},
);
vertWidth = 1200;
width = 319;
}
);
leftMetricsKey = f;
note = t;
rightKerningGroup = t;
rightMetricsKey = f;
unicode = 0074;
},
{
color = 10;
glyphname = tbar;
lastChange = "2025-02-19 09:35:14 +0000";
layers = (
{
anchors = (
{
name = bottom;
position = "{158, 0}";
},
{
name = center;
position = "{173, 253}";
},
{
name = top;
position = "{208, 505}";
},
{
name = topright;
position = "{261, 505}";
}
);
layerId = m01;
paths = (
{
closed = 1;
nodes = (
"37 266 LINE",
"290 266 LINE",
"298 322 LINE",
"45 322 LINE"
);
},
{
closed = 1;
nodes = (
"146 505 LINE",
"65 505 LINE",
"58 450 LINE",
"139 450 LINE",
"95 135 LINE SMOOTH",
"93 121 OFFCURVE",
"92 109 OFFCURVE",
"92 98 CURVE SMOOTH",
"92 18 OFFCURVE",
"141 0 OFFCURVE",
"218 0 CURVE SMOOTH",
"254 0 LINE",
"260 59 LINE",
"209 59 OFFCURVE",
"169 63 OFFCURVE",
"169 113 CURVE SMOOTH",
"169 119 OFFCURVE",
"169 125 OFFCURVE",
"170 131 CURVE SMOOTH",
"215 450 LINE",
"311 450 LINE",
"318 505 LINE",
"222 505 LINE",
"241 638 LINE",
"160 601 LINE"
);
},
);
width = 329;
}
);
rightKerningGroup = t;
unicode = 0167;
},
{
glyphname = tcaron;
lastChange = "2025-02-19 09:35:14 +0000";
layers = (
{
anchors = (
{
name = bottom;
position = "{158, 0}";
},
{
name = center;
position = "{173, 253}";
},
{
name = top;
position = "{208, 505}";
},
{
name = topright;
position = "{261, 505}";
}
);
layerId = m01;
paths = (
{
closed = 1;
nodes = (
"146 505 LINE",
"65 505 LINE",
"58 450 LINE",
"139 450 LINE",
"95 135 LINE SMOOTH",
"93 121 OFFCURVE",
"92 109 OFFCURVE",
"92 98 CURVE SMOOTH",
"92 18 OFFCURVE",
"141 0 OFFCURVE",
"218 0 CURVE SMOOTH",
"254 0 LINE",
"260 59 LINE",
"209 59 OFFCURVE",
"169 63 OFFCURVE",
"169 113 CURVE SMOOTH",
"169 119 OFFCURVE",
"169 125 OFFCURVE",
"170 131 CURVE SMOOTH",
"215 450 LINE",
"311 450 LINE",
"318 505 LINE",
"222 505 LINE",
"241 638 LINE",
"160 601 LINE"
);
},
{
closed = 1;
nodes = (
"343 561 LINE",
"430 727 LINE",
"349 727 LINE",
"289 561 LINE"
);
}
);
width = 353;
}
);
rightKerningGroup = t;
rightMetricsKey = dcaron;
unicode = 0165;
},
{
glyphname = tcedilla;
lastChange = "2025-02-19 09:35:14 +0000";
layers = (
{
anchors = (
{
name = bottom;
position = "{115, -225}";
},
{
name = center;
position = "{173, 253}";
},
{
name = top;
position = "{208, 505}";
},
{
name = topright;
position = "{261, 505}";
}
);
hints = (
{
place = "{178, 41}";
type = Stem;
}
);
layerId = m01;
paths = (
{
closed = 1;
nodes = (
"146 505 LINE",
"65 505 LINE",
"58 450 LINE",
"139 450 LINE",
"95 135 LINE SMOOTH",
"93 121 OFFCURVE",
"92 109 OFFCURVE",
"92 98 CURVE SMOOTH",
"92 18 OFFCURVE",
"141 0 OFFCURVE",
"218 0 CURVE SMOOTH",
"254 0 LINE",
"260 59 LINE",
"209 59 OFFCURVE",
"169 63 OFFCURVE",
"169 113 CURVE SMOOTH",
"169 119 OFFCURVE",
"169 125 OFFCURVE",
"170 131 CURVE SMOOTH",
"215 450 LINE",
"311 450 LINE",
"318 505 LINE",
"222 505 LINE",
"241 638 LINE",
"160 601 LINE"
);
},
{
closed = 1;
nodes = (
"86 -65 LINE",
"146 -65 LINE",
"200 20 LINE",
"140 20 LINE"
);
},
{
closed = 1;
nodes = (
"129 -80 OFFCURVE",
"140 -76 OFFCURVE",
"152 -76 CURVE SMOOTH",
"174 -76 OFFCURVE",
"193 -89 OFFCURVE",
"193 -114 CURVE SMOOTH",
"193 -146 OFFCURVE",
"164 -182 OFFCURVE",
"121 -182 CURVE SMOOTH",
"97 -182 OFFCURVE",
"73 -173 OFFCURVE",
"63 -157 CURVE",
"29 -183 LINE",
"50 -212 OFFCURVE",
"85 -227 OFFCURVE",
"123 -227 CURVE SMOOTH",
"183 -227 OFFCURVE",
"246 -189 OFFCURVE",
"246 -117 CURVE SMOOTH",
"246 -61 OFFCURVE",
"206 -35 OFFCURVE",
"160 -35 CURVE SMOOTH",
"136 -35 OFFCURVE",
"110 -43 OFFCURVE",
"85 -64 CURVE",
"119 -86 LINE"
);
}
);
width = 319;
}
);
rightKerningGroup = t;
unicode = 0163;
},
{
glyphname = tcommaaccent;
lastChange = "2025-02-19 09:35:14 +0000";
layers = (
{
anchors = (
{
name = bottom;
position = "{107, -231}";
},
{
name = center;
position = "{173, 253}";
},
{
name = top;
position = "{208, 505}";
},
{
name = topright;
position = "{261, 505}";
}
);
layerId = m01;
paths = (
{
closed = 1;
nodes = (
"146 505 LINE",
"65 505 LINE",
"58 450 LINE",
"139 450 LINE",
"95 135 LINE SMOOTH",
"93 121 OFFCURVE",
"92 109 OFFCURVE",
"92 98 CURVE SMOOTH",
"92 18 OFFCURVE",
"141 0 OFFCURVE",
"218 0 CURVE SMOOTH",
"254 0 LINE",
"260 59 LINE",
"209 59 OFFCURVE",
"169 63 OFFCURVE",
"169 113 CURVE SMOOTH",
"169 119 OFFCURVE",
"169 125 OFFCURVE",
"170 131 CURVE SMOOTH",
"215 450 LINE",
"311 450 LINE",
"318 505 LINE",
"222 505 LINE",
"241 638 LINE",
"160 601 LINE"
);
},
{
closed = 1;
nodes = (
"102 -231 LINE",
"189 -65 LINE",
"108 -65 LINE",
"48 -231 LINE"
);
}
);
width = 319;
}
);
rightKerningGroup = t;
unicode = 021B;
},
{
color = 10;
glyphname = u;
lastChange = "2025-02-19 09:35:11 +0000";
layers = (
{
anchors = (
{
name = bottom;
position = "{199, 0}";
},
{
name = ogonek;
position = "{371, 0}";
},
{
name = top;
position = "{269, 505}";
},
{
name = topright;
position = "{486, 505}";
}
);
layerId = m01;
paths = (
{
closed = 1;
nodes = (
"441 505 LINE",
"365 505 LINE",
"324 207 LINE SMOOTH",
"311 117 OFFCURVE",
"272 45 OFFCURVE",
"201 45 CURVE SMOOTH",
"139 45 OFFCURVE",
"122 78 OFFCURVE",
"122 129 CURVE SMOOTH",
"122 151 OFFCURVE",
"125 176 OFFCURVE",
"129 203 CURVE SMOOTH",
"171 505 LINE",
"95 505 LINE",
"52 197 LINE SMOOTH",
"48 170 OFFCURVE",
"46 146 OFFCURVE",
"46 125 CURVE SMOOTH",
"46 28 OFFCURVE",
"85 -10 OFFCURVE",
"164 -10 CURVE SMOOTH",
"214 -10 OFFCURVE",
"265 3 OFFCURVE",
"302 48 CURVE",
"305 0 LINE",
"371 0 LINE"
);
}
);
width = 471;
}
);
leftKerningGroup = u;
note = u;
rightMetricsKey = d;
unicode = 0075;
},
{
glyphname = uacute;
lastChange = "2025-02-19 09:35:11 +0000";
layers = (
{
anchors = (
{
name = bottom;
position = "{199, 0}";
},
{
name = ogonek;
position = "{371, 0}";
},
{
name = top;
position = "{301, 727}";
},
{
name = topright;
position = "{486, 505}";
}
);
layerId = m01;
paths = (
{
closed = 1;
nodes = (
"441 505 LINE",
"365 505 LINE",
"324 207 LINE SMOOTH",
"311 117 OFFCURVE",
"272 45 OFFCURVE",
"201 45 CURVE SMOOTH",
"139 45 OFFCURVE",
"122 78 OFFCURVE",
"122 129 CURVE SMOOTH",
"122 151 OFFCURVE",
"125 176 OFFCURVE",
"129 203 CURVE SMOOTH",
"171 505 LINE",
"95 505 LINE",
"52 197 LINE SMOOTH",
"48 170 OFFCURVE",
"46 146 OFFCURVE",
"46 125 CURVE SMOOTH",
"46 28 OFFCURVE",
"85 -10 OFFCURVE",
"164 -10 CURVE SMOOTH",
"214 -10 OFFCURVE",
"265 3 OFFCURVE",
"302 48 CURVE",
"305 0 LINE",
"371 0 LINE"
);
},
{
closed = 1;
nodes = (
"314 586 LINE",
"455 727 LINE",
"355 727 LINE",
"246 586 LINE"
);
}
);
width = 471;
}
);
leftKerningGroup = u;
unicode = 00FA;
},
